; NON-PLATED HOLES START AT T1
; THROUGH (PLATED) HOLES START AT T100
M48
INCH
T1C0.165354
T100C0.038000
T101C0.015748
%
T1
X002721Y001507
X002721Y007507
T100
X003721Y011507
X015721Y001507
X017721Y007507
X008721Y011507
X015721Y010507
X018721Y007507
X009721Y010507
X003721Y010507
X007721Y011507
X002721Y011507
X021721Y001507
X020721Y001507
X014721Y011507
X006721Y010507
X015721Y007507
X020721Y010507
X011721Y011507
X020721Y011507
X008721Y010507
X016721Y007507
X010721Y010507
X018721Y010507
X019721Y011507
X021721Y007507
X019721Y010507
X017721Y001507
X018721Y011507
X016721Y001507
X012721Y011507
X013721Y010507
X009721Y011507
X005721Y010507
X006721Y011507
X014721Y010507
X017721Y011507
X001721Y010507
X012721Y010507
X016721Y011507
X010721Y011507
X020721Y007507
X004721Y011507
X018721Y001507
X019721Y007507
X001721Y011507
X019721Y001507
X004721Y010507
X007721Y010507
X011721Y010507
X016721Y010507
X015721Y011507
X017721Y010507
X002721Y010507
X013721Y011507
X005721Y011507
T101
X011160Y012392
T00
M30
