G04 MADE WITH FRITZING*
G04 WWW.FRITZING.ORG*
G04 DOUBLE SIDED*
G04 HOLES PLATED*
G04 CONTOUR ON CENTER OF CONTOUR VECTOR*
%ASAXBY*%
%FSLAX23Y23*%
%MOIN*%
%OFA0B0*%
%SFA1.0B1.0*%
%ADD10R,2.283460X1.299210X2.267460X1.283210*%
%ADD11C,0.008000*%
%ADD12R,0.001000X0.001000*%
%LNSILK0*%
G90*
G70*
G54D11*
X4Y1295D02*
X2279Y1295D01*
X2279Y4D01*
X4Y4D01*
X4Y1295D01*
D02*
G54D12*
X968Y976D02*
X968Y976D01*
X992Y976D02*
X992Y976D01*
X1213Y976D02*
X1213Y976D01*
X1410Y976D02*
X1410Y976D01*
X1434Y976D02*
X1434Y976D01*
X966Y975D02*
X970Y975D01*
X991Y975D02*
X994Y975D01*
X1212Y975D02*
X1215Y975D01*
X1408Y975D02*
X1412Y975D01*
X1433Y975D02*
X1436Y975D01*
X966Y974D02*
X970Y974D01*
X990Y974D02*
X995Y974D01*
X1211Y974D02*
X1216Y974D01*
X1408Y974D02*
X1412Y974D01*
X1432Y974D02*
X1437Y974D01*
X897Y973D02*
X899Y973D01*
X965Y973D02*
X971Y973D01*
X990Y973D02*
X995Y973D01*
X1211Y973D02*
X1216Y973D01*
X1407Y973D02*
X1413Y973D01*
X1432Y973D02*
X1437Y973D01*
X896Y972D02*
X900Y972D01*
X965Y972D02*
X971Y972D01*
X990Y972D02*
X995Y972D01*
X1211Y972D02*
X1216Y972D01*
X1407Y972D02*
X1413Y972D01*
X1432Y972D02*
X1437Y972D01*
X895Y971D02*
X900Y971D01*
X965Y971D02*
X971Y971D01*
X990Y971D02*
X995Y971D01*
X1211Y971D02*
X1216Y971D01*
X1407Y971D02*
X1413Y971D01*
X1432Y971D02*
X1437Y971D01*
X895Y970D02*
X900Y970D01*
X965Y970D02*
X971Y970D01*
X990Y970D02*
X995Y970D01*
X1211Y970D02*
X1216Y970D01*
X1407Y970D02*
X1413Y970D01*
X1432Y970D02*
X1437Y970D01*
X895Y969D02*
X900Y969D01*
X965Y969D02*
X971Y969D01*
X990Y969D02*
X995Y969D01*
X1211Y969D02*
X1216Y969D01*
X1407Y969D02*
X1413Y969D01*
X1432Y969D02*
X1437Y969D01*
X895Y968D02*
X900Y968D01*
X965Y968D02*
X971Y968D01*
X990Y968D02*
X995Y968D01*
X1211Y968D02*
X1216Y968D01*
X1407Y968D02*
X1413Y968D01*
X1432Y968D02*
X1437Y968D01*
X895Y967D02*
X900Y967D01*
X965Y967D02*
X971Y967D01*
X990Y967D02*
X995Y967D01*
X1211Y967D02*
X1216Y967D01*
X1407Y967D02*
X1413Y967D01*
X1432Y967D02*
X1437Y967D01*
X895Y966D02*
X900Y966D01*
X965Y966D02*
X971Y966D01*
X990Y966D02*
X995Y966D01*
X1211Y966D02*
X1216Y966D01*
X1407Y966D02*
X1413Y966D01*
X1432Y966D02*
X1437Y966D01*
X895Y965D02*
X900Y965D01*
X965Y965D02*
X971Y965D01*
X990Y965D02*
X995Y965D01*
X1211Y965D02*
X1216Y965D01*
X1407Y965D02*
X1413Y965D01*
X1432Y965D02*
X1437Y965D01*
X895Y964D02*
X900Y964D01*
X965Y964D02*
X971Y964D01*
X990Y964D02*
X995Y964D01*
X1211Y964D02*
X1216Y964D01*
X1407Y964D02*
X1413Y964D01*
X1432Y964D02*
X1437Y964D01*
X883Y963D02*
X904Y963D01*
X930Y963D02*
X942Y963D01*
X965Y963D02*
X971Y963D01*
X990Y963D02*
X995Y963D01*
X1064Y963D02*
X1073Y963D01*
X1106Y963D02*
X1113Y963D01*
X1125Y963D02*
X1125Y963D01*
X1151Y963D02*
X1163Y963D01*
X1195Y963D02*
X1200Y963D01*
X1211Y963D02*
X1216Y963D01*
X1238Y963D02*
X1253Y963D01*
X1285Y963D02*
X1294Y963D01*
X1322Y963D02*
X1322Y963D01*
X1346Y963D02*
X1346Y963D01*
X1372Y963D02*
X1384Y963D01*
X1407Y963D02*
X1413Y963D01*
X1432Y963D02*
X1437Y963D01*
X881Y962D02*
X906Y962D01*
X927Y962D02*
X944Y962D01*
X965Y962D02*
X971Y962D01*
X990Y962D02*
X995Y962D01*
X1061Y962D02*
X1076Y962D01*
X1103Y962D02*
X1115Y962D01*
X1123Y962D02*
X1127Y962D01*
X1148Y962D02*
X1165Y962D01*
X1192Y962D02*
X1203Y962D01*
X1211Y962D02*
X1216Y962D01*
X1235Y962D02*
X1256Y962D01*
X1282Y962D02*
X1297Y962D01*
X1320Y962D02*
X1323Y962D01*
X1344Y962D02*
X1348Y962D01*
X1369Y962D02*
X1386Y962D01*
X1407Y962D02*
X1413Y962D01*
X1432Y962D02*
X1437Y962D01*
X880Y961D02*
X906Y961D01*
X925Y961D02*
X944Y961D01*
X965Y961D02*
X971Y961D01*
X990Y961D02*
X995Y961D01*
X1059Y961D02*
X1078Y961D01*
X1101Y961D02*
X1116Y961D01*
X1123Y961D02*
X1127Y961D01*
X1146Y961D02*
X1165Y961D01*
X1191Y961D02*
X1205Y961D01*
X1211Y961D02*
X1216Y961D01*
X1234Y961D02*
X1257Y961D01*
X1280Y961D02*
X1299Y961D01*
X1319Y961D02*
X1324Y961D01*
X1344Y961D02*
X1348Y961D01*
X1367Y961D02*
X1386Y961D01*
X1407Y961D02*
X1413Y961D01*
X1432Y961D02*
X1437Y961D01*
X880Y960D02*
X906Y960D01*
X924Y960D02*
X945Y960D01*
X965Y960D02*
X971Y960D01*
X990Y960D02*
X995Y960D01*
X1058Y960D02*
X1079Y960D01*
X1100Y960D02*
X1117Y960D01*
X1122Y960D02*
X1127Y960D01*
X1145Y960D02*
X1166Y960D01*
X1190Y960D02*
X1206Y960D01*
X1211Y960D02*
X1216Y960D01*
X1233Y960D02*
X1258Y960D01*
X1279Y960D02*
X1300Y960D01*
X1319Y960D02*
X1324Y960D01*
X1343Y960D02*
X1348Y960D01*
X1366Y960D02*
X1387Y960D01*
X1407Y960D02*
X1413Y960D01*
X1421Y960D02*
X1423Y960D01*
X1432Y960D02*
X1437Y960D01*
X880Y959D02*
X906Y959D01*
X924Y959D02*
X944Y959D01*
X965Y959D02*
X971Y959D01*
X990Y959D02*
X995Y959D01*
X1057Y959D02*
X1080Y959D01*
X1100Y959D02*
X1118Y959D01*
X1122Y959D02*
X1127Y959D01*
X1145Y959D02*
X1165Y959D01*
X1189Y959D02*
X1208Y959D01*
X1211Y959D02*
X1216Y959D01*
X1232Y959D02*
X1258Y959D01*
X1278Y959D02*
X1301Y959D01*
X1319Y959D02*
X1324Y959D01*
X1343Y959D02*
X1349Y959D01*
X1366Y959D02*
X1386Y959D01*
X1407Y959D02*
X1413Y959D01*
X1420Y959D02*
X1424Y959D01*
X1432Y959D02*
X1437Y959D01*
X881Y958D02*
X906Y958D01*
X923Y958D02*
X944Y958D01*
X965Y958D02*
X971Y958D01*
X990Y958D02*
X995Y958D01*
X1056Y958D02*
X1081Y958D01*
X1099Y958D02*
X1119Y958D01*
X1122Y958D02*
X1127Y958D01*
X1144Y958D02*
X1165Y958D01*
X1188Y958D02*
X1216Y958D01*
X1231Y958D02*
X1259Y958D01*
X1277Y958D02*
X1302Y958D01*
X1319Y958D02*
X1324Y958D01*
X1343Y958D02*
X1349Y958D01*
X1365Y958D02*
X1386Y958D01*
X1407Y958D02*
X1413Y958D01*
X1420Y958D02*
X1425Y958D01*
X1432Y958D02*
X1437Y958D01*
X883Y957D02*
X904Y957D01*
X923Y957D02*
X942Y957D01*
X965Y957D02*
X971Y957D01*
X990Y957D02*
X995Y957D01*
X1055Y957D02*
X1082Y957D01*
X1099Y957D02*
X1127Y957D01*
X1144Y957D02*
X1163Y957D01*
X1188Y957D02*
X1216Y957D01*
X1231Y957D02*
X1259Y957D01*
X1276Y957D02*
X1303Y957D01*
X1319Y957D02*
X1324Y957D01*
X1343Y957D02*
X1349Y957D01*
X1365Y957D02*
X1384Y957D01*
X1407Y957D02*
X1413Y957D01*
X1420Y957D02*
X1425Y957D01*
X1432Y957D02*
X1437Y957D01*
X895Y956D02*
X900Y956D01*
X922Y956D02*
X928Y956D01*
X965Y956D02*
X971Y956D01*
X990Y956D02*
X995Y956D01*
X1055Y956D02*
X1062Y956D01*
X1075Y956D02*
X1082Y956D01*
X1098Y956D02*
X1104Y956D01*
X1113Y956D02*
X1127Y956D01*
X1143Y956D02*
X1149Y956D01*
X1187Y956D02*
X1193Y956D01*
X1202Y956D02*
X1216Y956D01*
X1232Y956D02*
X1236Y956D01*
X1254Y956D02*
X1259Y956D01*
X1276Y956D02*
X1283Y956D01*
X1296Y956D02*
X1303Y956D01*
X1319Y956D02*
X1324Y956D01*
X1343Y956D02*
X1349Y956D01*
X1364Y956D02*
X1370Y956D01*
X1407Y956D02*
X1413Y956D01*
X1420Y956D02*
X1425Y956D01*
X1432Y956D02*
X1437Y956D01*
X895Y955D02*
X900Y955D01*
X922Y955D02*
X928Y955D01*
X965Y955D02*
X995Y955D01*
X1054Y955D02*
X1061Y955D01*
X1076Y955D02*
X1083Y955D01*
X1098Y955D02*
X1103Y955D01*
X1114Y955D02*
X1127Y955D01*
X1143Y955D02*
X1149Y955D01*
X1187Y955D02*
X1193Y955D01*
X1204Y955D02*
X1216Y955D01*
X1233Y955D02*
X1235Y955D01*
X1254Y955D02*
X1259Y955D01*
X1275Y955D02*
X1282Y955D01*
X1297Y955D02*
X1304Y955D01*
X1319Y955D02*
X1324Y955D01*
X1343Y955D02*
X1348Y955D01*
X1364Y955D02*
X1370Y955D01*
X1407Y955D02*
X1413Y955D01*
X1420Y955D02*
X1425Y955D01*
X1432Y955D02*
X1437Y955D01*
X895Y954D02*
X900Y954D01*
X922Y954D02*
X927Y954D01*
X965Y954D02*
X995Y954D01*
X1054Y954D02*
X1060Y954D01*
X1077Y954D02*
X1083Y954D01*
X1098Y954D02*
X1103Y954D01*
X1116Y954D02*
X1127Y954D01*
X1143Y954D02*
X1148Y954D01*
X1187Y954D02*
X1192Y954D01*
X1205Y954D02*
X1216Y954D01*
X1254Y954D02*
X1259Y954D01*
X1275Y954D02*
X1281Y954D01*
X1298Y954D02*
X1304Y954D01*
X1319Y954D02*
X1325Y954D01*
X1343Y954D02*
X1348Y954D01*
X1364Y954D02*
X1369Y954D01*
X1407Y954D02*
X1413Y954D01*
X1420Y954D02*
X1425Y954D01*
X1432Y954D02*
X1437Y954D01*
X895Y953D02*
X900Y953D01*
X922Y953D02*
X927Y953D01*
X965Y953D02*
X995Y953D01*
X1054Y953D02*
X1059Y953D01*
X1078Y953D02*
X1083Y953D01*
X1098Y953D02*
X1103Y953D01*
X1117Y953D02*
X1127Y953D01*
X1143Y953D02*
X1148Y953D01*
X1187Y953D02*
X1192Y953D01*
X1207Y953D02*
X1216Y953D01*
X1252Y953D02*
X1259Y953D01*
X1275Y953D02*
X1280Y953D01*
X1299Y953D02*
X1304Y953D01*
X1320Y953D02*
X1325Y953D01*
X1342Y953D02*
X1348Y953D01*
X1364Y953D02*
X1369Y953D01*
X1407Y953D02*
X1413Y953D01*
X1420Y953D02*
X1425Y953D01*
X1432Y953D02*
X1437Y953D01*
X895Y952D02*
X900Y952D01*
X922Y952D02*
X927Y952D01*
X965Y952D02*
X995Y952D01*
X1054Y952D02*
X1059Y952D01*
X1078Y952D02*
X1083Y952D01*
X1098Y952D02*
X1103Y952D01*
X1118Y952D02*
X1127Y952D01*
X1143Y952D02*
X1148Y952D01*
X1187Y952D02*
X1192Y952D01*
X1208Y952D02*
X1216Y952D01*
X1249Y952D02*
X1259Y952D01*
X1275Y952D02*
X1280Y952D01*
X1299Y952D02*
X1304Y952D01*
X1320Y952D02*
X1326Y952D01*
X1342Y952D02*
X1348Y952D01*
X1364Y952D02*
X1369Y952D01*
X1407Y952D02*
X1413Y952D01*
X1420Y952D02*
X1425Y952D01*
X1432Y952D02*
X1437Y952D01*
X895Y951D02*
X900Y951D01*
X922Y951D02*
X927Y951D01*
X965Y951D02*
X995Y951D01*
X1054Y951D02*
X1059Y951D01*
X1078Y951D02*
X1083Y951D01*
X1098Y951D02*
X1103Y951D01*
X1119Y951D02*
X1127Y951D01*
X1143Y951D02*
X1148Y951D01*
X1187Y951D02*
X1192Y951D01*
X1210Y951D02*
X1216Y951D01*
X1247Y951D02*
X1258Y951D01*
X1275Y951D02*
X1280Y951D01*
X1299Y951D02*
X1304Y951D01*
X1320Y951D02*
X1326Y951D01*
X1341Y951D02*
X1347Y951D01*
X1364Y951D02*
X1369Y951D01*
X1407Y951D02*
X1413Y951D01*
X1420Y951D02*
X1425Y951D01*
X1432Y951D02*
X1437Y951D01*
X895Y950D02*
X900Y950D01*
X922Y950D02*
X927Y950D01*
X929Y950D02*
X943Y950D01*
X965Y950D02*
X995Y950D01*
X1054Y950D02*
X1059Y950D01*
X1078Y950D02*
X1083Y950D01*
X1099Y950D02*
X1102Y950D01*
X1120Y950D02*
X1127Y950D01*
X1143Y950D02*
X1148Y950D01*
X1150Y950D02*
X1164Y950D01*
X1187Y950D02*
X1192Y950D01*
X1211Y950D02*
X1216Y950D01*
X1245Y950D02*
X1257Y950D01*
X1275Y950D02*
X1280Y950D01*
X1299Y950D02*
X1304Y950D01*
X1321Y950D02*
X1327Y950D01*
X1341Y950D02*
X1347Y950D01*
X1364Y950D02*
X1369Y950D01*
X1371Y950D02*
X1385Y950D01*
X1407Y950D02*
X1413Y950D01*
X1420Y950D02*
X1425Y950D01*
X1432Y950D02*
X1437Y950D01*
X895Y949D02*
X900Y949D01*
X922Y949D02*
X946Y949D01*
X965Y949D02*
X971Y949D01*
X989Y949D02*
X995Y949D01*
X1054Y949D02*
X1059Y949D01*
X1078Y949D02*
X1083Y949D01*
X1121Y949D02*
X1127Y949D01*
X1143Y949D02*
X1167Y949D01*
X1187Y949D02*
X1192Y949D01*
X1211Y949D02*
X1216Y949D01*
X1242Y949D02*
X1256Y949D01*
X1275Y949D02*
X1280Y949D01*
X1299Y949D02*
X1304Y949D01*
X1321Y949D02*
X1327Y949D01*
X1341Y949D02*
X1346Y949D01*
X1364Y949D02*
X1388Y949D01*
X1407Y949D02*
X1413Y949D01*
X1420Y949D02*
X1425Y949D01*
X1432Y949D02*
X1437Y949D01*
X895Y948D02*
X900Y948D01*
X922Y948D02*
X947Y948D01*
X965Y948D02*
X971Y948D01*
X990Y948D02*
X995Y948D01*
X1054Y948D02*
X1059Y948D01*
X1078Y948D02*
X1083Y948D01*
X1122Y948D02*
X1127Y948D01*
X1143Y948D02*
X1168Y948D01*
X1187Y948D02*
X1192Y948D01*
X1211Y948D02*
X1216Y948D01*
X1240Y948D02*
X1255Y948D01*
X1275Y948D02*
X1280Y948D01*
X1299Y948D02*
X1304Y948D01*
X1322Y948D02*
X1328Y948D01*
X1340Y948D02*
X1346Y948D01*
X1364Y948D02*
X1389Y948D01*
X1407Y948D02*
X1413Y948D01*
X1420Y948D02*
X1425Y948D01*
X1432Y948D02*
X1437Y948D01*
X895Y947D02*
X900Y947D01*
X922Y947D02*
X948Y947D01*
X965Y947D02*
X971Y947D01*
X990Y947D02*
X995Y947D01*
X1054Y947D02*
X1083Y947D01*
X1122Y947D02*
X1127Y947D01*
X1143Y947D02*
X1169Y947D01*
X1187Y947D02*
X1192Y947D01*
X1211Y947D02*
X1216Y947D01*
X1238Y947D02*
X1252Y947D01*
X1275Y947D02*
X1304Y947D01*
X1322Y947D02*
X1328Y947D01*
X1340Y947D02*
X1345Y947D01*
X1364Y947D02*
X1390Y947D01*
X1407Y947D02*
X1413Y947D01*
X1420Y947D02*
X1425Y947D01*
X1432Y947D02*
X1437Y947D01*
X895Y946D02*
X900Y946D01*
X922Y946D02*
X949Y946D01*
X965Y946D02*
X971Y946D01*
X990Y946D02*
X995Y946D01*
X1054Y946D02*
X1083Y946D01*
X1122Y946D02*
X1127Y946D01*
X1143Y946D02*
X1170Y946D01*
X1187Y946D02*
X1192Y946D01*
X1211Y946D02*
X1216Y946D01*
X1236Y946D02*
X1250Y946D01*
X1275Y946D02*
X1304Y946D01*
X1323Y946D02*
X1328Y946D01*
X1339Y946D02*
X1345Y946D01*
X1364Y946D02*
X1391Y946D01*
X1407Y946D02*
X1413Y946D01*
X1420Y946D02*
X1425Y946D01*
X1432Y946D02*
X1437Y946D01*
X895Y945D02*
X900Y945D01*
X922Y945D02*
X950Y945D01*
X965Y945D02*
X971Y945D01*
X990Y945D02*
X995Y945D01*
X1054Y945D02*
X1083Y945D01*
X1122Y945D02*
X1127Y945D01*
X1143Y945D02*
X1171Y945D01*
X1187Y945D02*
X1192Y945D01*
X1211Y945D02*
X1216Y945D01*
X1234Y945D02*
X1248Y945D01*
X1275Y945D02*
X1304Y945D01*
X1323Y945D02*
X1329Y945D01*
X1339Y945D02*
X1345Y945D01*
X1364Y945D02*
X1392Y945D01*
X1407Y945D02*
X1413Y945D01*
X1420Y945D02*
X1425Y945D01*
X1432Y945D02*
X1437Y945D01*
X895Y944D02*
X900Y944D01*
X922Y944D02*
X950Y944D01*
X965Y944D02*
X971Y944D01*
X990Y944D02*
X995Y944D01*
X1054Y944D02*
X1083Y944D01*
X1122Y944D02*
X1127Y944D01*
X1143Y944D02*
X1171Y944D01*
X1187Y944D02*
X1192Y944D01*
X1211Y944D02*
X1216Y944D01*
X1233Y944D02*
X1245Y944D01*
X1275Y944D02*
X1304Y944D01*
X1324Y944D02*
X1329Y944D01*
X1338Y944D02*
X1344Y944D01*
X1364Y944D02*
X1392Y944D01*
X1407Y944D02*
X1413Y944D01*
X1420Y944D02*
X1425Y944D01*
X1432Y944D02*
X1437Y944D01*
X895Y943D02*
X900Y943D01*
X922Y943D02*
X928Y943D01*
X945Y943D02*
X950Y943D01*
X965Y943D02*
X971Y943D01*
X990Y943D02*
X995Y943D01*
X1054Y943D02*
X1083Y943D01*
X1122Y943D02*
X1127Y943D01*
X1143Y943D02*
X1149Y943D01*
X1166Y943D02*
X1171Y943D01*
X1187Y943D02*
X1192Y943D01*
X1211Y943D02*
X1216Y943D01*
X1232Y943D02*
X1243Y943D01*
X1275Y943D02*
X1304Y943D01*
X1324Y943D02*
X1330Y943D01*
X1338Y943D02*
X1344Y943D01*
X1364Y943D02*
X1370Y943D01*
X1387Y943D02*
X1392Y943D01*
X1407Y943D02*
X1413Y943D01*
X1420Y943D02*
X1425Y943D01*
X1432Y943D02*
X1437Y943D01*
X895Y942D02*
X900Y942D01*
X922Y942D02*
X927Y942D01*
X945Y942D02*
X951Y942D01*
X965Y942D02*
X971Y942D01*
X990Y942D02*
X995Y942D01*
X1055Y942D02*
X1083Y942D01*
X1122Y942D02*
X1127Y942D01*
X1143Y942D02*
X1148Y942D01*
X1166Y942D02*
X1172Y942D01*
X1187Y942D02*
X1192Y942D01*
X1211Y942D02*
X1216Y942D01*
X1232Y942D02*
X1241Y942D01*
X1276Y942D02*
X1304Y942D01*
X1324Y942D02*
X1330Y942D01*
X1337Y942D02*
X1343Y942D01*
X1364Y942D02*
X1369Y942D01*
X1387Y942D02*
X1393Y942D01*
X1407Y942D02*
X1413Y942D01*
X1420Y942D02*
X1425Y942D01*
X1432Y942D02*
X1437Y942D01*
X895Y941D02*
X900Y941D01*
X922Y941D02*
X927Y941D01*
X945Y941D02*
X951Y941D01*
X965Y941D02*
X971Y941D01*
X990Y941D02*
X995Y941D01*
X1078Y941D02*
X1083Y941D01*
X1122Y941D02*
X1127Y941D01*
X1143Y941D02*
X1148Y941D01*
X1166Y941D02*
X1172Y941D01*
X1187Y941D02*
X1192Y941D01*
X1211Y941D02*
X1216Y941D01*
X1231Y941D02*
X1238Y941D01*
X1299Y941D02*
X1304Y941D01*
X1325Y941D02*
X1331Y941D01*
X1337Y941D02*
X1343Y941D01*
X1364Y941D02*
X1369Y941D01*
X1388Y941D02*
X1393Y941D01*
X1407Y941D02*
X1413Y941D01*
X1420Y941D02*
X1425Y941D01*
X1432Y941D02*
X1437Y941D01*
X895Y940D02*
X900Y940D01*
X922Y940D02*
X927Y940D01*
X945Y940D02*
X951Y940D01*
X965Y940D02*
X971Y940D01*
X990Y940D02*
X995Y940D01*
X1078Y940D02*
X1083Y940D01*
X1122Y940D02*
X1127Y940D01*
X1143Y940D02*
X1148Y940D01*
X1167Y940D02*
X1172Y940D01*
X1187Y940D02*
X1192Y940D01*
X1211Y940D02*
X1216Y940D01*
X1231Y940D02*
X1237Y940D01*
X1299Y940D02*
X1304Y940D01*
X1325Y940D02*
X1331Y940D01*
X1337Y940D02*
X1342Y940D01*
X1364Y940D02*
X1369Y940D01*
X1388Y940D02*
X1393Y940D01*
X1407Y940D02*
X1413Y940D01*
X1420Y940D02*
X1425Y940D01*
X1432Y940D02*
X1437Y940D01*
X878Y939D02*
X881Y939D01*
X895Y939D02*
X900Y939D01*
X921Y939D02*
X927Y939D01*
X945Y939D02*
X951Y939D01*
X965Y939D02*
X971Y939D01*
X990Y939D02*
X995Y939D01*
X1078Y939D02*
X1083Y939D01*
X1122Y939D02*
X1127Y939D01*
X1143Y939D02*
X1148Y939D01*
X1167Y939D02*
X1172Y939D01*
X1187Y939D02*
X1192Y939D01*
X1211Y939D02*
X1216Y939D01*
X1231Y939D02*
X1236Y939D01*
X1299Y939D02*
X1304Y939D01*
X1326Y939D02*
X1331Y939D01*
X1336Y939D02*
X1342Y939D01*
X1364Y939D02*
X1369Y939D01*
X1388Y939D02*
X1393Y939D01*
X1407Y939D02*
X1413Y939D01*
X1420Y939D02*
X1425Y939D01*
X1432Y939D02*
X1437Y939D01*
X877Y938D02*
X882Y938D01*
X895Y938D02*
X900Y938D01*
X921Y938D02*
X927Y938D01*
X945Y938D02*
X951Y938D01*
X965Y938D02*
X971Y938D01*
X990Y938D02*
X995Y938D01*
X1078Y938D02*
X1083Y938D01*
X1122Y938D02*
X1127Y938D01*
X1142Y938D02*
X1148Y938D01*
X1167Y938D02*
X1172Y938D01*
X1187Y938D02*
X1192Y938D01*
X1211Y938D02*
X1216Y938D01*
X1231Y938D02*
X1236Y938D01*
X1299Y938D02*
X1304Y938D01*
X1326Y938D02*
X1332Y938D01*
X1336Y938D02*
X1341Y938D01*
X1363Y938D02*
X1370Y938D01*
X1388Y938D02*
X1393Y938D01*
X1407Y938D02*
X1413Y938D01*
X1420Y938D02*
X1425Y938D01*
X1432Y938D02*
X1437Y938D01*
X877Y937D02*
X882Y937D01*
X895Y937D02*
X900Y937D01*
X921Y937D02*
X929Y937D01*
X945Y937D02*
X951Y937D01*
X965Y937D02*
X971Y937D01*
X990Y937D02*
X995Y937D01*
X1077Y937D02*
X1083Y937D01*
X1122Y937D02*
X1127Y937D01*
X1142Y937D02*
X1150Y937D01*
X1166Y937D02*
X1172Y937D01*
X1187Y937D02*
X1192Y937D01*
X1211Y937D02*
X1216Y937D01*
X1231Y937D02*
X1236Y937D01*
X1257Y937D02*
X1258Y937D01*
X1298Y937D02*
X1304Y937D01*
X1327Y937D02*
X1332Y937D01*
X1335Y937D02*
X1341Y937D01*
X1363Y937D02*
X1371Y937D01*
X1387Y937D02*
X1393Y937D01*
X1407Y937D02*
X1413Y937D01*
X1419Y937D02*
X1425Y937D01*
X1431Y937D02*
X1437Y937D01*
X877Y936D02*
X883Y936D01*
X895Y936D02*
X900Y936D01*
X921Y936D02*
X931Y936D01*
X945Y936D02*
X951Y936D01*
X965Y936D02*
X971Y936D01*
X990Y936D02*
X995Y936D01*
X1076Y936D02*
X1083Y936D01*
X1122Y936D02*
X1127Y936D01*
X1142Y936D02*
X1152Y936D01*
X1166Y936D02*
X1172Y936D01*
X1187Y936D02*
X1192Y936D01*
X1211Y936D02*
X1216Y936D01*
X1231Y936D02*
X1237Y936D01*
X1255Y936D02*
X1259Y936D01*
X1297Y936D02*
X1304Y936D01*
X1327Y936D02*
X1333Y936D01*
X1335Y936D02*
X1341Y936D01*
X1363Y936D02*
X1373Y936D01*
X1387Y936D02*
X1393Y936D01*
X1407Y936D02*
X1414Y936D01*
X1419Y936D02*
X1426Y936D01*
X1431Y936D02*
X1437Y936D01*
X877Y935D02*
X884Y935D01*
X894Y935D02*
X900Y935D01*
X921Y935D02*
X933Y935D01*
X944Y935D02*
X950Y935D01*
X965Y935D02*
X971Y935D01*
X990Y935D02*
X995Y935D01*
X1074Y935D02*
X1082Y935D01*
X1122Y935D02*
X1127Y935D01*
X1142Y935D02*
X1154Y935D01*
X1165Y935D02*
X1171Y935D01*
X1187Y935D02*
X1192Y935D01*
X1211Y935D02*
X1216Y935D01*
X1231Y935D02*
X1238Y935D01*
X1254Y935D02*
X1260Y935D01*
X1295Y935D02*
X1303Y935D01*
X1327Y935D02*
X1340Y935D01*
X1363Y935D02*
X1375Y935D01*
X1386Y935D02*
X1392Y935D01*
X1408Y935D02*
X1414Y935D01*
X1418Y935D02*
X1426Y935D01*
X1430Y935D02*
X1436Y935D01*
X878Y934D02*
X900Y934D01*
X921Y934D02*
X950Y934D01*
X965Y934D02*
X971Y934D01*
X990Y934D02*
X995Y934D01*
X1055Y934D02*
X1082Y934D01*
X1122Y934D02*
X1127Y934D01*
X1142Y934D02*
X1171Y934D01*
X1187Y934D02*
X1192Y934D01*
X1211Y934D02*
X1216Y934D01*
X1232Y934D02*
X1260Y934D01*
X1276Y934D02*
X1303Y934D01*
X1328Y934D02*
X1340Y934D01*
X1363Y934D02*
X1392Y934D01*
X1409Y934D02*
X1436Y934D01*
X878Y933D02*
X899Y933D01*
X921Y933D02*
X949Y933D01*
X965Y933D02*
X971Y933D01*
X990Y933D02*
X995Y933D01*
X1054Y933D02*
X1081Y933D01*
X1122Y933D02*
X1127Y933D01*
X1142Y933D02*
X1170Y933D01*
X1187Y933D02*
X1192Y933D01*
X1211Y933D02*
X1216Y933D01*
X1232Y933D02*
X1260Y933D01*
X1275Y933D02*
X1302Y933D01*
X1328Y933D02*
X1339Y933D01*
X1363Y933D02*
X1391Y933D01*
X1409Y933D02*
X1435Y933D01*
X879Y932D02*
X898Y932D01*
X921Y932D02*
X949Y932D01*
X965Y932D02*
X971Y932D01*
X990Y932D02*
X995Y932D01*
X1054Y932D02*
X1080Y932D01*
X1122Y932D02*
X1127Y932D01*
X1142Y932D02*
X1170Y932D01*
X1187Y932D02*
X1192Y932D01*
X1211Y932D02*
X1216Y932D01*
X1233Y932D02*
X1259Y932D01*
X1275Y932D02*
X1301Y932D01*
X1329Y932D02*
X1339Y932D01*
X1363Y932D02*
X1391Y932D01*
X1410Y932D02*
X1435Y932D01*
X880Y931D02*
X898Y931D01*
X921Y931D02*
X926Y931D01*
X928Y931D02*
X948Y931D01*
X966Y931D02*
X971Y931D01*
X990Y931D02*
X995Y931D01*
X1054Y931D02*
X1078Y931D01*
X1122Y931D02*
X1127Y931D01*
X1142Y931D02*
X1147Y931D01*
X1149Y931D02*
X1169Y931D01*
X1187Y931D02*
X1192Y931D01*
X1211Y931D02*
X1216Y931D01*
X1234Y931D02*
X1258Y931D01*
X1275Y931D02*
X1299Y931D01*
X1329Y931D02*
X1338Y931D01*
X1363Y931D02*
X1368Y931D01*
X1370Y931D02*
X1390Y931D01*
X1410Y931D02*
X1434Y931D01*
X881Y930D02*
X896Y930D01*
X922Y930D02*
X926Y930D01*
X930Y930D02*
X947Y930D01*
X966Y930D02*
X970Y930D01*
X990Y930D02*
X994Y930D01*
X1054Y930D02*
X1077Y930D01*
X1123Y930D02*
X1127Y930D01*
X1143Y930D02*
X1147Y930D01*
X1151Y930D02*
X1168Y930D01*
X1187Y930D02*
X1191Y930D01*
X1211Y930D02*
X1215Y930D01*
X1235Y930D02*
X1257Y930D01*
X1275Y930D02*
X1298Y930D01*
X1330Y930D02*
X1338Y930D01*
X1364Y930D02*
X1368Y930D01*
X1372Y930D02*
X1389Y930D01*
X1411Y930D02*
X1421Y930D01*
X1423Y930D02*
X1433Y930D01*
X883Y929D02*
X895Y929D01*
X923Y929D02*
X925Y929D01*
X932Y929D02*
X945Y929D01*
X967Y929D02*
X969Y929D01*
X991Y929D02*
X994Y929D01*
X1055Y929D02*
X1075Y929D01*
X1124Y929D02*
X1126Y929D01*
X1144Y929D02*
X1146Y929D01*
X1153Y929D02*
X1166Y929D01*
X1188Y929D02*
X1190Y929D01*
X1212Y929D02*
X1215Y929D01*
X1237Y929D02*
X1254Y929D01*
X1276Y929D02*
X1296Y929D01*
X1331Y929D02*
X1337Y929D01*
X1365Y929D02*
X1367Y929D01*
X1374Y929D02*
X1387Y929D01*
X1412Y929D02*
X1420Y929D01*
X1424Y929D02*
X1433Y929D01*
X854Y77D02*
X860Y77D01*
X1693Y77D02*
X1700Y77D01*
X853Y76D02*
X861Y76D01*
X1693Y76D02*
X1701Y76D01*
X447Y75D02*
X470Y75D01*
X752Y75D02*
X781Y75D01*
X802Y75D02*
X821Y75D01*
X853Y75D02*
X861Y75D01*
X885Y75D02*
X892Y75D01*
X907Y75D02*
X914Y75D01*
X931Y75D02*
X932Y75D01*
X1264Y75D02*
X1266Y75D01*
X1284Y75D02*
X1286Y75D01*
X1530Y75D02*
X1531Y75D01*
X1618Y75D02*
X1620Y75D01*
X1693Y75D02*
X1701Y75D01*
X1770Y75D02*
X1772Y75D01*
X1815Y75D02*
X1816Y75D01*
X2104Y75D02*
X2106Y75D01*
X445Y74D02*
X472Y74D01*
X752Y74D02*
X782Y74D01*
X800Y74D02*
X823Y74D01*
X853Y74D02*
X861Y74D01*
X885Y74D02*
X892Y74D01*
X906Y74D02*
X914Y74D01*
X930Y74D02*
X934Y74D01*
X1263Y74D02*
X1267Y74D01*
X1283Y74D02*
X1287Y74D01*
X1528Y74D02*
X1532Y74D01*
X1617Y74D02*
X1621Y74D01*
X1693Y74D02*
X1701Y74D01*
X1769Y74D02*
X1773Y74D01*
X1814Y74D02*
X1818Y74D01*
X2103Y74D02*
X2107Y74D01*
X444Y73D02*
X472Y73D01*
X752Y73D02*
X782Y73D01*
X799Y73D02*
X824Y73D01*
X853Y73D02*
X861Y73D01*
X885Y73D02*
X893Y73D01*
X906Y73D02*
X914Y73D01*
X929Y73D02*
X934Y73D01*
X1263Y73D02*
X1268Y73D01*
X1283Y73D02*
X1288Y73D01*
X1528Y73D02*
X1533Y73D01*
X1616Y73D02*
X1621Y73D01*
X1693Y73D02*
X1701Y73D01*
X1769Y73D02*
X1774Y73D01*
X1813Y73D02*
X1818Y73D01*
X2103Y73D02*
X2107Y73D01*
X443Y72D02*
X472Y72D01*
X550Y72D02*
X553Y72D01*
X595Y72D02*
X598Y72D01*
X752Y72D02*
X782Y72D01*
X798Y72D02*
X825Y72D01*
X853Y72D02*
X861Y72D01*
X885Y72D02*
X894Y72D01*
X905Y72D02*
X914Y72D01*
X929Y72D02*
X935Y72D01*
X1263Y72D02*
X1268Y72D01*
X1283Y72D02*
X1288Y72D01*
X1528Y72D02*
X1533Y72D01*
X1616Y72D02*
X1621Y72D01*
X1656Y72D02*
X1658Y72D01*
X1693Y72D02*
X1701Y72D01*
X1769Y72D02*
X1775Y72D01*
X1813Y72D02*
X1819Y72D01*
X2009Y72D02*
X2012Y72D01*
X2053Y72D02*
X2056Y72D01*
X2102Y72D02*
X2108Y72D01*
X443Y71D02*
X472Y71D01*
X550Y71D02*
X554Y71D01*
X594Y71D02*
X598Y71D01*
X752Y71D02*
X782Y71D01*
X797Y71D02*
X825Y71D01*
X853Y71D02*
X861Y71D01*
X885Y71D02*
X895Y71D01*
X904Y71D02*
X914Y71D01*
X929Y71D02*
X935Y71D01*
X1263Y71D02*
X1268Y71D01*
X1283Y71D02*
X1289Y71D01*
X1528Y71D02*
X1533Y71D01*
X1616Y71D02*
X1621Y71D01*
X1655Y71D02*
X1659Y71D01*
X1693Y71D02*
X1700Y71D01*
X1769Y71D02*
X1775Y71D01*
X1813Y71D02*
X1819Y71D01*
X2008Y71D02*
X2013Y71D01*
X2053Y71D02*
X2057Y71D01*
X2102Y71D02*
X2108Y71D01*
X443Y70D02*
X471Y70D01*
X549Y70D02*
X554Y70D01*
X594Y70D02*
X599Y70D01*
X752Y70D02*
X782Y70D01*
X797Y70D02*
X826Y70D01*
X854Y70D02*
X860Y70D01*
X885Y70D02*
X895Y70D01*
X904Y70D02*
X914Y70D01*
X930Y70D02*
X936Y70D01*
X1263Y70D02*
X1268Y70D01*
X1283Y70D02*
X1290Y70D01*
X1528Y70D02*
X1533Y70D01*
X1616Y70D02*
X1621Y70D01*
X1654Y70D02*
X1659Y70D01*
X1694Y70D02*
X1700Y70D01*
X1770Y70D02*
X1776Y70D01*
X1814Y70D02*
X1820Y70D01*
X2008Y70D02*
X2013Y70D01*
X2052Y70D02*
X2057Y70D01*
X2102Y70D02*
X2108Y70D01*
X443Y69D02*
X448Y69D01*
X549Y69D02*
X555Y69D01*
X594Y69D02*
X599Y69D01*
X752Y69D02*
X758Y69D01*
X764Y69D02*
X770Y69D01*
X776Y69D02*
X782Y69D01*
X797Y69D02*
X803Y69D01*
X820Y69D02*
X826Y69D01*
X885Y69D02*
X896Y69D01*
X903Y69D02*
X914Y69D01*
X930Y69D02*
X937Y69D01*
X1263Y69D02*
X1268Y69D01*
X1284Y69D02*
X1290Y69D01*
X1528Y69D02*
X1533Y69D01*
X1616Y69D02*
X1621Y69D01*
X1654Y69D02*
X1660Y69D01*
X1770Y69D02*
X1776Y69D01*
X1814Y69D02*
X1821Y69D01*
X2008Y69D02*
X2013Y69D01*
X2052Y69D02*
X2057Y69D01*
X2102Y69D02*
X2108Y69D01*
X443Y68D02*
X448Y68D01*
X549Y68D02*
X555Y68D01*
X594Y68D02*
X599Y68D01*
X752Y68D02*
X757Y68D01*
X764Y68D02*
X769Y68D01*
X776Y68D02*
X782Y68D01*
X796Y68D02*
X802Y68D01*
X820Y68D02*
X826Y68D01*
X885Y68D02*
X897Y68D01*
X902Y68D02*
X914Y68D01*
X931Y68D02*
X937Y68D01*
X1263Y68D02*
X1268Y68D01*
X1285Y68D02*
X1291Y68D01*
X1528Y68D02*
X1533Y68D01*
X1616Y68D02*
X1621Y68D01*
X1654Y68D02*
X1660Y68D01*
X1771Y68D02*
X1777Y68D01*
X1815Y68D02*
X1821Y68D01*
X2008Y68D02*
X2013Y68D01*
X2052Y68D02*
X2057Y68D01*
X2102Y68D02*
X2108Y68D01*
X443Y67D02*
X448Y67D01*
X549Y67D02*
X555Y67D01*
X594Y67D02*
X599Y67D01*
X752Y67D02*
X757Y67D01*
X764Y67D02*
X769Y67D01*
X776Y67D02*
X782Y67D01*
X796Y67D02*
X801Y67D01*
X820Y67D02*
X826Y67D01*
X885Y67D02*
X897Y67D01*
X902Y67D02*
X914Y67D01*
X932Y67D02*
X938Y67D01*
X1263Y67D02*
X1268Y67D01*
X1285Y67D02*
X1291Y67D01*
X1528Y67D02*
X1533Y67D01*
X1616Y67D02*
X1621Y67D01*
X1654Y67D02*
X1660Y67D01*
X1771Y67D02*
X1778Y67D01*
X1816Y67D02*
X1822Y67D01*
X1868Y67D02*
X1876Y67D01*
X2008Y67D02*
X2013Y67D01*
X2052Y67D02*
X2057Y67D01*
X2102Y67D02*
X2108Y67D01*
X443Y66D02*
X448Y66D01*
X549Y66D02*
X555Y66D01*
X594Y66D02*
X599Y66D01*
X752Y66D02*
X757Y66D01*
X764Y66D02*
X769Y66D01*
X777Y66D02*
X781Y66D01*
X797Y66D02*
X801Y66D01*
X819Y66D02*
X825Y66D01*
X885Y66D02*
X890Y66D01*
X892Y66D02*
X898Y66D01*
X901Y66D02*
X907Y66D01*
X909Y66D02*
X914Y66D01*
X932Y66D02*
X938Y66D01*
X1263Y66D02*
X1268Y66D01*
X1286Y66D02*
X1292Y66D01*
X1528Y66D02*
X1533Y66D01*
X1616Y66D02*
X1621Y66D01*
X1654Y66D02*
X1660Y66D01*
X1772Y66D02*
X1778Y66D01*
X1816Y66D02*
X1822Y66D01*
X1867Y66D02*
X1877Y66D01*
X2008Y66D02*
X2013Y66D01*
X2052Y66D02*
X2057Y66D01*
X2102Y66D02*
X2108Y66D01*
X443Y65D02*
X448Y65D01*
X549Y65D02*
X555Y65D01*
X594Y65D02*
X599Y65D01*
X753Y65D02*
X756Y65D01*
X764Y65D02*
X769Y65D01*
X777Y65D02*
X781Y65D01*
X797Y65D02*
X801Y65D01*
X818Y65D02*
X825Y65D01*
X885Y65D02*
X890Y65D01*
X892Y65D02*
X907Y65D01*
X909Y65D02*
X914Y65D01*
X933Y65D02*
X939Y65D01*
X1263Y65D02*
X1268Y65D01*
X1286Y65D02*
X1293Y65D01*
X1528Y65D02*
X1533Y65D01*
X1616Y65D02*
X1621Y65D01*
X1654Y65D02*
X1660Y65D01*
X1773Y65D02*
X1779Y65D01*
X1817Y65D02*
X1823Y65D01*
X1866Y65D02*
X1877Y65D01*
X2008Y65D02*
X2013Y65D01*
X2052Y65D02*
X2057Y65D01*
X2102Y65D02*
X2108Y65D01*
X443Y64D02*
X448Y64D01*
X549Y64D02*
X555Y64D01*
X594Y64D02*
X599Y64D01*
X764Y64D02*
X769Y64D01*
X817Y64D02*
X824Y64D01*
X885Y64D02*
X890Y64D01*
X893Y64D02*
X906Y64D01*
X909Y64D02*
X914Y64D01*
X933Y64D02*
X939Y64D01*
X1263Y64D02*
X1268Y64D01*
X1287Y64D02*
X1293Y64D01*
X1528Y64D02*
X1533Y64D01*
X1616Y64D02*
X1621Y64D01*
X1654Y64D02*
X1660Y64D01*
X1773Y64D02*
X1779Y64D01*
X1817Y64D02*
X1824Y64D01*
X1866Y64D02*
X1878Y64D01*
X2008Y64D02*
X2013Y64D01*
X2052Y64D02*
X2057Y64D01*
X2102Y64D02*
X2108Y64D01*
X277Y63D02*
X284Y63D01*
X291Y63D02*
X294Y63D01*
X365Y63D02*
X373Y63D01*
X380Y63D02*
X383Y63D01*
X443Y63D02*
X448Y63D01*
X549Y63D02*
X555Y63D01*
X594Y63D02*
X599Y63D01*
X764Y63D02*
X769Y63D01*
X817Y63D02*
X823Y63D01*
X885Y63D02*
X890Y63D01*
X894Y63D02*
X905Y63D01*
X909Y63D02*
X914Y63D01*
X934Y63D02*
X940Y63D01*
X1263Y63D02*
X1268Y63D01*
X1287Y63D02*
X1294Y63D01*
X1528Y63D02*
X1533Y63D01*
X1616Y63D02*
X1621Y63D01*
X1654Y63D02*
X1660Y63D01*
X1774Y63D02*
X1780Y63D01*
X1818Y63D02*
X1824Y63D01*
X1866Y63D02*
X1878Y63D01*
X1957Y63D02*
X1964Y63D01*
X1971Y63D02*
X1974Y63D01*
X2008Y63D02*
X2013Y63D01*
X2052Y63D02*
X2057Y63D01*
X2102Y63D02*
X2108Y63D01*
X184Y62D02*
X193Y62D01*
X203Y62D02*
X205Y62D01*
X230Y62D02*
X242Y62D01*
X275Y62D02*
X286Y62D01*
X291Y62D02*
X295Y62D01*
X317Y62D02*
X332Y62D01*
X364Y62D02*
X374Y62D01*
X379Y62D02*
X383Y62D01*
X407Y62D02*
X419Y62D01*
X443Y62D02*
X448Y62D01*
X489Y62D02*
X490Y62D01*
X513Y62D02*
X515Y62D01*
X536Y62D02*
X559Y62D01*
X580Y62D02*
X603Y62D01*
X670Y62D02*
X680Y62D01*
X690Y62D02*
X692Y62D01*
X717Y62D02*
X729Y62D01*
X764Y62D02*
X769Y62D01*
X816Y62D02*
X823Y62D01*
X854Y62D02*
X865Y62D01*
X885Y62D02*
X890Y62D01*
X894Y62D02*
X905Y62D01*
X909Y62D02*
X914Y62D01*
X934Y62D02*
X941Y62D01*
X980Y62D02*
X989Y62D01*
X999Y62D02*
X1001Y62D01*
X1026Y62D02*
X1038Y62D01*
X1063Y62D02*
X1065Y62D01*
X1073Y62D02*
X1082Y62D01*
X1113Y62D02*
X1121Y62D01*
X1132Y62D02*
X1134Y62D01*
X1159Y62D02*
X1171Y62D01*
X1196Y62D02*
X1212Y62D01*
X1243Y62D02*
X1245Y62D01*
X1263Y62D02*
X1268Y62D01*
X1288Y62D02*
X1294Y62D01*
X1333Y62D02*
X1335Y62D01*
X1344Y62D02*
X1348Y62D01*
X1353Y62D02*
X1355Y62D01*
X1380Y62D02*
X1392Y62D01*
X1417Y62D02*
X1433Y62D01*
X1512Y62D02*
X1521Y62D01*
X1528Y62D02*
X1533Y62D01*
X1549Y62D02*
X1551Y62D01*
X1574Y62D02*
X1576Y62D01*
X1599Y62D02*
X1607Y62D01*
X1616Y62D02*
X1621Y62D01*
X1641Y62D02*
X1664Y62D01*
X1694Y62D02*
X1705Y62D01*
X1726Y62D02*
X1728Y62D01*
X1736Y62D02*
X1745Y62D01*
X1774Y62D02*
X1781Y62D01*
X1818Y62D02*
X1825Y62D01*
X1866Y62D02*
X1878Y62D01*
X1908Y62D02*
X1925Y62D01*
X1955Y62D02*
X1966Y62D01*
X1970Y62D02*
X1975Y62D01*
X1995Y62D02*
X2018Y62D01*
X2039Y62D02*
X2062Y62D01*
X2085Y62D02*
X2093Y62D01*
X2102Y62D02*
X2108Y62D01*
X182Y61D02*
X195Y61D01*
X202Y61D02*
X206Y61D01*
X228Y61D02*
X245Y61D01*
X274Y61D02*
X287Y61D01*
X290Y61D02*
X295Y61D01*
X315Y61D02*
X333Y61D01*
X362Y61D02*
X376Y61D01*
X379Y61D02*
X384Y61D01*
X405Y61D02*
X421Y61D01*
X443Y61D02*
X448Y61D01*
X487Y61D02*
X492Y61D01*
X512Y61D02*
X516Y61D01*
X535Y61D02*
X560Y61D01*
X579Y61D02*
X604Y61D01*
X668Y61D02*
X681Y61D01*
X689Y61D02*
X693Y61D01*
X714Y61D02*
X731Y61D01*
X764Y61D02*
X769Y61D01*
X815Y61D02*
X822Y61D01*
X853Y61D02*
X866Y61D01*
X885Y61D02*
X890Y61D01*
X895Y61D02*
X904Y61D01*
X909Y61D02*
X914Y61D01*
X935Y61D02*
X941Y61D01*
X977Y61D02*
X990Y61D01*
X998Y61D02*
X1002Y61D01*
X1024Y61D02*
X1040Y61D01*
X1062Y61D02*
X1066Y61D01*
X1071Y61D02*
X1084Y61D01*
X1111Y61D02*
X1123Y61D01*
X1131Y61D02*
X1135Y61D01*
X1157Y61D02*
X1173Y61D01*
X1195Y61D02*
X1214Y61D01*
X1242Y61D02*
X1246Y61D01*
X1263Y61D02*
X1268Y61D01*
X1289Y61D02*
X1295Y61D01*
X1331Y61D02*
X1337Y61D01*
X1342Y61D02*
X1350Y61D01*
X1352Y61D02*
X1356Y61D01*
X1378Y61D02*
X1394Y61D01*
X1416Y61D02*
X1435Y61D01*
X1510Y61D02*
X1523Y61D01*
X1528Y61D02*
X1533Y61D01*
X1548Y61D02*
X1552Y61D01*
X1573Y61D02*
X1577Y61D01*
X1597Y61D02*
X1609Y61D01*
X1616Y61D02*
X1621Y61D01*
X1640Y61D02*
X1665Y61D01*
X1693Y61D02*
X1706Y61D01*
X1725Y61D02*
X1729Y61D01*
X1734Y61D02*
X1747Y61D01*
X1775Y61D02*
X1781Y61D01*
X1819Y61D02*
X1825Y61D01*
X1866Y61D02*
X1878Y61D01*
X1905Y61D02*
X1927Y61D01*
X1953Y61D02*
X1967Y61D01*
X1970Y61D02*
X1975Y61D01*
X1993Y61D02*
X2019Y61D01*
X2038Y61D02*
X2063Y61D01*
X2083Y61D02*
X2095Y61D01*
X2102Y61D02*
X2108Y61D01*
X181Y60D02*
X196Y60D01*
X202Y60D02*
X207Y60D01*
X227Y60D02*
X246Y60D01*
X273Y60D02*
X288Y60D01*
X290Y60D02*
X295Y60D01*
X314Y60D02*
X333Y60D01*
X361Y60D02*
X377Y60D01*
X379Y60D02*
X384Y60D01*
X404Y60D02*
X423Y60D01*
X443Y60D02*
X448Y60D01*
X487Y60D02*
X492Y60D01*
X511Y60D02*
X516Y60D01*
X534Y60D02*
X560Y60D01*
X579Y60D02*
X605Y60D01*
X667Y60D02*
X682Y60D01*
X688Y60D02*
X693Y60D01*
X713Y60D02*
X732Y60D01*
X764Y60D02*
X769Y60D01*
X814Y60D02*
X821Y60D01*
X853Y60D02*
X867Y60D01*
X885Y60D02*
X890Y60D01*
X896Y60D02*
X903Y60D01*
X909Y60D02*
X914Y60D01*
X936Y60D02*
X942Y60D01*
X976Y60D02*
X991Y60D01*
X998Y60D02*
X1002Y60D01*
X1023Y60D02*
X1042Y60D01*
X1062Y60D02*
X1067Y60D01*
X1070Y60D02*
X1086Y60D01*
X1110Y60D02*
X1125Y60D01*
X1130Y60D02*
X1135Y60D01*
X1155Y60D02*
X1174Y60D01*
X1194Y60D02*
X1216Y60D01*
X1242Y60D02*
X1247Y60D01*
X1263Y60D02*
X1268Y60D01*
X1289Y60D02*
X1295Y60D01*
X1329Y60D02*
X1339Y60D01*
X1341Y60D02*
X1357Y60D01*
X1376Y60D02*
X1395Y60D01*
X1415Y60D02*
X1437Y60D01*
X1509Y60D02*
X1525Y60D01*
X1528Y60D02*
X1533Y60D01*
X1548Y60D02*
X1553Y60D01*
X1572Y60D02*
X1577Y60D01*
X1596Y60D02*
X1611Y60D01*
X1616Y60D02*
X1621Y60D01*
X1639Y60D02*
X1665Y60D01*
X1693Y60D02*
X1707Y60D01*
X1725Y60D02*
X1730Y60D01*
X1733Y60D02*
X1749Y60D01*
X1775Y60D02*
X1782Y60D01*
X1820Y60D02*
X1826Y60D01*
X1866Y60D02*
X1878Y60D01*
X1904Y60D02*
X1928Y60D01*
X1952Y60D02*
X1968Y60D01*
X1970Y60D02*
X1975Y60D01*
X1993Y60D02*
X2019Y60D01*
X2037Y60D02*
X2063Y60D01*
X2082Y60D02*
X2097Y60D01*
X2102Y60D02*
X2108Y60D01*
X180Y59D02*
X197Y59D01*
X202Y59D02*
X207Y59D01*
X226Y59D02*
X247Y59D01*
X271Y59D02*
X295Y59D01*
X313Y59D02*
X333Y59D01*
X360Y59D02*
X384Y59D01*
X402Y59D02*
X424Y59D01*
X443Y59D02*
X448Y59D01*
X487Y59D02*
X492Y59D01*
X511Y59D02*
X516Y59D01*
X534Y59D02*
X560Y59D01*
X578Y59D02*
X605Y59D01*
X666Y59D02*
X683Y59D01*
X688Y59D02*
X693Y59D01*
X712Y59D02*
X733Y59D01*
X764Y59D02*
X769Y59D01*
X813Y59D02*
X820Y59D01*
X853Y59D02*
X867Y59D01*
X885Y59D02*
X890Y59D01*
X896Y59D02*
X903Y59D01*
X909Y59D02*
X914Y59D01*
X936Y59D02*
X942Y59D01*
X975Y59D02*
X993Y59D01*
X997Y59D02*
X1003Y59D01*
X1021Y59D02*
X1043Y59D01*
X1062Y59D02*
X1067Y59D01*
X1069Y59D02*
X1087Y59D01*
X1109Y59D02*
X1126Y59D01*
X1130Y59D02*
X1135Y59D01*
X1154Y59D02*
X1175Y59D01*
X1194Y59D02*
X1217Y59D01*
X1241Y59D02*
X1249Y59D01*
X1263Y59D02*
X1268Y59D01*
X1290Y59D02*
X1296Y59D01*
X1328Y59D02*
X1357Y59D01*
X1375Y59D02*
X1396Y59D01*
X1415Y59D02*
X1438Y59D01*
X1508Y59D02*
X1526Y59D01*
X1528Y59D02*
X1533Y59D01*
X1548Y59D02*
X1553Y59D01*
X1572Y59D02*
X1577Y59D01*
X1595Y59D02*
X1612Y59D01*
X1616Y59D02*
X1621Y59D01*
X1639Y59D02*
X1666Y59D01*
X1693Y59D02*
X1707Y59D01*
X1725Y59D02*
X1730Y59D01*
X1732Y59D02*
X1750Y59D01*
X1776Y59D02*
X1782Y59D01*
X1820Y59D02*
X1826Y59D01*
X1866Y59D02*
X1878Y59D01*
X1903Y59D02*
X1929Y59D01*
X1951Y59D02*
X1975Y59D01*
X1993Y59D02*
X2019Y59D01*
X2037Y59D02*
X2063Y59D01*
X2081Y59D02*
X2099Y59D01*
X2102Y59D02*
X2108Y59D01*
X179Y58D02*
X198Y58D01*
X202Y58D02*
X207Y58D01*
X225Y58D02*
X248Y58D01*
X270Y58D02*
X295Y58D01*
X312Y58D02*
X333Y58D01*
X359Y58D02*
X384Y58D01*
X401Y58D02*
X425Y58D01*
X443Y58D02*
X448Y58D01*
X487Y58D02*
X492Y58D01*
X511Y58D02*
X516Y58D01*
X535Y58D02*
X560Y58D01*
X579Y58D02*
X604Y58D01*
X665Y58D02*
X684Y58D01*
X688Y58D02*
X693Y58D01*
X711Y58D02*
X734Y58D01*
X764Y58D02*
X769Y58D01*
X813Y58D02*
X820Y58D01*
X853Y58D02*
X867Y58D01*
X885Y58D02*
X890Y58D01*
X897Y58D02*
X902Y58D01*
X909Y58D02*
X914Y58D01*
X937Y58D02*
X943Y58D01*
X975Y58D02*
X994Y58D01*
X997Y58D02*
X1003Y58D01*
X1020Y58D02*
X1044Y58D01*
X1062Y58D02*
X1088Y58D01*
X1108Y58D02*
X1128Y58D01*
X1130Y58D02*
X1135Y58D01*
X1153Y58D02*
X1176Y58D01*
X1194Y58D02*
X1218Y58D01*
X1242Y58D02*
X1250Y58D01*
X1263Y58D02*
X1268Y58D01*
X1290Y58D02*
X1297Y58D01*
X1328Y58D02*
X1357Y58D01*
X1374Y58D02*
X1397Y58D01*
X1415Y58D02*
X1439Y58D01*
X1506Y58D02*
X1533Y58D01*
X1548Y58D02*
X1553Y58D01*
X1572Y58D02*
X1577Y58D01*
X1594Y58D02*
X1614Y58D01*
X1616Y58D02*
X1621Y58D01*
X1640Y58D02*
X1665Y58D01*
X1693Y58D02*
X1706Y58D01*
X1725Y58D02*
X1751Y58D01*
X1777Y58D02*
X1783Y58D01*
X1821Y58D02*
X1827Y58D01*
X1867Y58D02*
X1877Y58D01*
X1902Y58D02*
X1929Y58D01*
X1950Y58D02*
X1975Y58D01*
X1993Y58D02*
X2019Y58D01*
X2037Y58D02*
X2063Y58D01*
X2080Y58D02*
X2100Y58D01*
X2102Y58D02*
X2108Y58D01*
X178Y57D02*
X199Y57D01*
X202Y57D02*
X207Y57D01*
X224Y57D02*
X249Y57D01*
X269Y57D02*
X278Y57D01*
X283Y57D02*
X295Y57D01*
X312Y57D02*
X332Y57D01*
X358Y57D02*
X366Y57D01*
X372Y57D02*
X384Y57D01*
X401Y57D02*
X426Y57D01*
X443Y57D02*
X448Y57D01*
X487Y57D02*
X492Y57D01*
X511Y57D02*
X516Y57D01*
X535Y57D02*
X559Y57D01*
X580Y57D02*
X604Y57D01*
X665Y57D02*
X685Y57D01*
X688Y57D02*
X693Y57D01*
X710Y57D02*
X735Y57D01*
X764Y57D02*
X769Y57D01*
X812Y57D02*
X819Y57D01*
X853Y57D02*
X866Y57D01*
X885Y57D02*
X890Y57D01*
X897Y57D02*
X902Y57D01*
X909Y57D02*
X914Y57D01*
X937Y57D02*
X944Y57D01*
X974Y57D02*
X995Y57D01*
X997Y57D02*
X1003Y57D01*
X1019Y57D02*
X1045Y57D01*
X1062Y57D02*
X1089Y57D01*
X1107Y57D02*
X1135Y57D01*
X1152Y57D02*
X1177Y57D01*
X1195Y57D02*
X1219Y57D01*
X1243Y57D02*
X1251Y57D01*
X1263Y57D02*
X1268Y57D01*
X1291Y57D02*
X1297Y57D01*
X1327Y57D02*
X1357Y57D01*
X1373Y57D02*
X1398Y57D01*
X1416Y57D02*
X1440Y57D01*
X1506Y57D02*
X1533Y57D01*
X1548Y57D02*
X1553Y57D01*
X1572Y57D02*
X1577Y57D01*
X1594Y57D02*
X1621Y57D01*
X1640Y57D02*
X1665Y57D01*
X1693Y57D02*
X1706Y57D01*
X1725Y57D02*
X1752Y57D01*
X1777Y57D02*
X1783Y57D01*
X1821Y57D02*
X1828Y57D01*
X1867Y57D02*
X1876Y57D01*
X1902Y57D02*
X1930Y57D01*
X1949Y57D02*
X1957Y57D01*
X1963Y57D02*
X1975Y57D01*
X1994Y57D02*
X2018Y57D01*
X2038Y57D02*
X2062Y57D01*
X2080Y57D02*
X2108Y57D01*
X178Y56D02*
X185Y56D01*
X192Y56D02*
X207Y56D01*
X223Y56D02*
X231Y56D01*
X242Y56D02*
X250Y56D01*
X268Y56D02*
X276Y56D01*
X284Y56D02*
X295Y56D01*
X311Y56D02*
X318Y56D01*
X357Y56D02*
X365Y56D01*
X373Y56D02*
X384Y56D01*
X400Y56D02*
X408Y56D01*
X419Y56D02*
X427Y56D01*
X443Y56D02*
X448Y56D01*
X487Y56D02*
X492Y56D01*
X511Y56D02*
X516Y56D01*
X549Y56D02*
X555Y56D01*
X593Y56D02*
X599Y56D01*
X664Y56D02*
X671Y56D01*
X678Y56D02*
X693Y56D01*
X709Y56D02*
X717Y56D01*
X728Y56D02*
X736Y56D01*
X764Y56D02*
X769Y56D01*
X811Y56D02*
X818Y56D01*
X853Y56D02*
X858Y56D01*
X885Y56D02*
X890Y56D01*
X897Y56D02*
X902Y56D01*
X909Y56D02*
X914Y56D01*
X938Y56D02*
X944Y56D01*
X974Y56D02*
X980Y56D01*
X987Y56D02*
X1003Y56D01*
X1019Y56D02*
X1027Y56D01*
X1037Y56D02*
X1045Y56D01*
X1062Y56D02*
X1074Y56D01*
X1082Y56D02*
X1090Y56D01*
X1107Y56D02*
X1114Y56D01*
X1120Y56D02*
X1135Y56D01*
X1151Y56D02*
X1159Y56D01*
X1170Y56D02*
X1178Y56D01*
X1211Y56D02*
X1220Y56D01*
X1244Y56D02*
X1252Y56D01*
X1263Y56D02*
X1268Y56D01*
X1292Y56D02*
X1298Y56D01*
X1327Y56D02*
X1333Y56D01*
X1335Y56D02*
X1345Y56D01*
X1347Y56D02*
X1357Y56D01*
X1372Y56D02*
X1380Y56D01*
X1391Y56D02*
X1399Y56D01*
X1432Y56D02*
X1441Y56D01*
X1505Y56D02*
X1513Y56D01*
X1521Y56D02*
X1533Y56D01*
X1548Y56D02*
X1553Y56D01*
X1572Y56D02*
X1577Y56D01*
X1593Y56D02*
X1600Y56D01*
X1607Y56D02*
X1621Y56D01*
X1654Y56D02*
X1660Y56D01*
X1693Y56D02*
X1698Y56D01*
X1725Y56D02*
X1737Y56D01*
X1745Y56D02*
X1753Y56D01*
X1778Y56D02*
X1784Y56D01*
X1822Y56D02*
X1828Y56D01*
X1902Y56D02*
X1908Y56D01*
X1924Y56D02*
X1930Y56D01*
X1948Y56D02*
X1956Y56D01*
X1964Y56D02*
X1975Y56D01*
X2008Y56D02*
X2013Y56D01*
X2052Y56D02*
X2058Y56D01*
X2079Y56D02*
X2086Y56D01*
X2093Y56D02*
X2108Y56D01*
X178Y55D02*
X183Y55D01*
X193Y55D02*
X207Y55D01*
X222Y55D02*
X229Y55D01*
X243Y55D02*
X250Y55D01*
X268Y55D02*
X275Y55D01*
X285Y55D02*
X295Y55D01*
X311Y55D02*
X317Y55D01*
X356Y55D02*
X364Y55D01*
X374Y55D02*
X384Y55D01*
X399Y55D02*
X406Y55D01*
X420Y55D02*
X427Y55D01*
X443Y55D02*
X448Y55D01*
X487Y55D02*
X492Y55D01*
X511Y55D02*
X516Y55D01*
X549Y55D02*
X555Y55D01*
X594Y55D02*
X599Y55D01*
X664Y55D02*
X670Y55D01*
X679Y55D02*
X693Y55D01*
X709Y55D02*
X716Y55D01*
X730Y55D02*
X737Y55D01*
X764Y55D02*
X769Y55D01*
X810Y55D02*
X817Y55D01*
X853Y55D02*
X858Y55D01*
X885Y55D02*
X890Y55D01*
X897Y55D02*
X901Y55D01*
X909Y55D02*
X914Y55D01*
X939Y55D02*
X945Y55D01*
X973Y55D02*
X979Y55D01*
X989Y55D02*
X1003Y55D01*
X1018Y55D02*
X1025Y55D01*
X1039Y55D02*
X1046Y55D01*
X1062Y55D02*
X1072Y55D01*
X1083Y55D02*
X1090Y55D01*
X1107Y55D02*
X1112Y55D01*
X1122Y55D02*
X1135Y55D01*
X1151Y55D02*
X1158Y55D01*
X1172Y55D02*
X1179Y55D01*
X1213Y55D02*
X1221Y55D01*
X1245Y55D02*
X1253Y55D01*
X1263Y55D02*
X1268Y55D01*
X1292Y55D02*
X1298Y55D01*
X1327Y55D02*
X1332Y55D01*
X1336Y55D02*
X1344Y55D01*
X1348Y55D02*
X1357Y55D01*
X1372Y55D02*
X1379Y55D01*
X1393Y55D02*
X1400Y55D01*
X1434Y55D02*
X1442Y55D01*
X1504Y55D02*
X1511Y55D01*
X1522Y55D02*
X1533Y55D01*
X1548Y55D02*
X1553Y55D01*
X1572Y55D02*
X1577Y55D01*
X1593Y55D02*
X1599Y55D01*
X1608Y55D02*
X1621Y55D01*
X1654Y55D02*
X1660Y55D01*
X1693Y55D02*
X1698Y55D01*
X1725Y55D02*
X1735Y55D01*
X1746Y55D02*
X1753Y55D01*
X1778Y55D02*
X1785Y55D01*
X1823Y55D02*
X1829Y55D01*
X1903Y55D02*
X1907Y55D01*
X1925Y55D02*
X1930Y55D01*
X1947Y55D02*
X1955Y55D01*
X1965Y55D02*
X1975Y55D01*
X2008Y55D02*
X2013Y55D01*
X2052Y55D02*
X2057Y55D01*
X2079Y55D02*
X2085Y55D01*
X2094Y55D02*
X2108Y55D01*
X178Y54D02*
X183Y54D01*
X194Y54D02*
X207Y54D01*
X222Y54D02*
X228Y54D01*
X245Y54D02*
X251Y54D01*
X267Y54D02*
X274Y54D01*
X286Y54D02*
X295Y54D01*
X311Y54D02*
X316Y54D01*
X355Y54D02*
X363Y54D01*
X375Y54D02*
X384Y54D01*
X399Y54D02*
X405Y54D01*
X421Y54D02*
X427Y54D01*
X443Y54D02*
X468Y54D01*
X487Y54D02*
X492Y54D01*
X511Y54D02*
X516Y54D01*
X549Y54D02*
X555Y54D01*
X594Y54D02*
X599Y54D01*
X664Y54D02*
X669Y54D01*
X680Y54D02*
X693Y54D01*
X708Y54D02*
X714Y54D01*
X731Y54D02*
X737Y54D01*
X764Y54D02*
X769Y54D01*
X810Y54D02*
X817Y54D01*
X853Y54D02*
X858Y54D01*
X885Y54D02*
X890Y54D01*
X899Y54D02*
X900Y54D01*
X909Y54D02*
X914Y54D01*
X939Y54D02*
X945Y54D01*
X973Y54D02*
X978Y54D01*
X990Y54D02*
X1003Y54D01*
X1018Y54D02*
X1024Y54D01*
X1040Y54D02*
X1046Y54D01*
X1062Y54D02*
X1071Y54D01*
X1084Y54D02*
X1091Y54D01*
X1107Y54D02*
X1112Y54D01*
X1124Y54D02*
X1135Y54D01*
X1150Y54D02*
X1156Y54D01*
X1173Y54D02*
X1179Y54D01*
X1214Y54D02*
X1222Y54D01*
X1246Y54D02*
X1254Y54D01*
X1263Y54D02*
X1268Y54D01*
X1293Y54D02*
X1299Y54D01*
X1327Y54D02*
X1332Y54D01*
X1337Y54D02*
X1344Y54D01*
X1349Y54D02*
X1357Y54D01*
X1371Y54D02*
X1377Y54D01*
X1394Y54D02*
X1400Y54D01*
X1435Y54D02*
X1443Y54D01*
X1504Y54D02*
X1510Y54D01*
X1523Y54D02*
X1533Y54D01*
X1548Y54D02*
X1553Y54D01*
X1572Y54D02*
X1577Y54D01*
X1593Y54D02*
X1598Y54D01*
X1610Y54D02*
X1621Y54D01*
X1654Y54D02*
X1660Y54D01*
X1693Y54D02*
X1698Y54D01*
X1725Y54D02*
X1734Y54D01*
X1747Y54D02*
X1754Y54D01*
X1779Y54D02*
X1785Y54D01*
X1823Y54D02*
X1829Y54D01*
X1904Y54D02*
X1905Y54D01*
X1925Y54D02*
X1930Y54D01*
X1947Y54D02*
X1954Y54D01*
X1966Y54D02*
X1975Y54D01*
X2008Y54D02*
X2013Y54D01*
X2052Y54D02*
X2057Y54D01*
X2079Y54D02*
X2084Y54D01*
X2096Y54D02*
X2108Y54D01*
X177Y53D02*
X183Y53D01*
X195Y53D02*
X207Y53D01*
X222Y53D02*
X227Y53D01*
X245Y53D02*
X251Y53D01*
X266Y53D02*
X273Y53D01*
X287Y53D02*
X295Y53D01*
X311Y53D02*
X316Y53D01*
X355Y53D02*
X361Y53D01*
X376Y53D02*
X384Y53D01*
X399Y53D02*
X404Y53D01*
X422Y53D02*
X428Y53D01*
X443Y53D02*
X470Y53D01*
X487Y53D02*
X493Y53D01*
X510Y53D02*
X516Y53D01*
X549Y53D02*
X555Y53D01*
X594Y53D02*
X599Y53D01*
X664Y53D02*
X669Y53D01*
X682Y53D02*
X693Y53D01*
X708Y53D02*
X714Y53D01*
X732Y53D02*
X737Y53D01*
X764Y53D02*
X769Y53D01*
X809Y53D02*
X816Y53D01*
X853Y53D02*
X858Y53D01*
X885Y53D02*
X890Y53D01*
X909Y53D02*
X914Y53D01*
X940Y53D02*
X946Y53D01*
X973Y53D02*
X978Y53D01*
X991Y53D02*
X1003Y53D01*
X1017Y53D02*
X1023Y53D01*
X1041Y53D02*
X1047Y53D01*
X1062Y53D02*
X1070Y53D01*
X1085Y53D02*
X1091Y53D01*
X1107Y53D02*
X1112Y53D01*
X1125Y53D02*
X1135Y53D01*
X1150Y53D02*
X1156Y53D01*
X1174Y53D02*
X1179Y53D01*
X1215Y53D02*
X1223Y53D01*
X1247Y53D02*
X1256Y53D01*
X1263Y53D02*
X1268Y53D01*
X1293Y53D02*
X1300Y53D01*
X1327Y53D02*
X1332Y53D01*
X1339Y53D02*
X1344Y53D01*
X1351Y53D02*
X1357Y53D01*
X1371Y53D02*
X1377Y53D01*
X1395Y53D02*
X1400Y53D01*
X1436Y53D02*
X1444Y53D01*
X1504Y53D02*
X1509Y53D01*
X1524Y53D02*
X1533Y53D01*
X1548Y53D02*
X1553Y53D01*
X1572Y53D02*
X1577Y53D01*
X1593Y53D02*
X1598Y53D01*
X1611Y53D02*
X1621Y53D01*
X1654Y53D02*
X1660Y53D01*
X1693Y53D02*
X1698Y53D01*
X1725Y53D02*
X1733Y53D01*
X1748Y53D02*
X1754Y53D01*
X1780Y53D02*
X1786Y53D01*
X1824Y53D02*
X1830Y53D01*
X1924Y53D02*
X1930Y53D01*
X1946Y53D02*
X1953Y53D01*
X1967Y53D02*
X1975Y53D01*
X2008Y53D02*
X2013Y53D01*
X2052Y53D02*
X2057Y53D01*
X2079Y53D02*
X2084Y53D01*
X2098Y53D02*
X2108Y53D01*
X177Y52D02*
X183Y52D01*
X197Y52D02*
X207Y52D01*
X222Y52D02*
X227Y52D01*
X246Y52D02*
X251Y52D01*
X266Y52D02*
X272Y52D01*
X288Y52D02*
X295Y52D01*
X311Y52D02*
X316Y52D01*
X355Y52D02*
X360Y52D01*
X377Y52D02*
X384Y52D01*
X399Y52D02*
X404Y52D01*
X423Y52D02*
X428Y52D01*
X443Y52D02*
X471Y52D01*
X488Y52D02*
X493Y52D01*
X510Y52D02*
X516Y52D01*
X549Y52D02*
X555Y52D01*
X594Y52D02*
X599Y52D01*
X664Y52D02*
X669Y52D01*
X683Y52D02*
X693Y52D01*
X708Y52D02*
X713Y52D01*
X732Y52D02*
X737Y52D01*
X764Y52D02*
X769Y52D01*
X808Y52D02*
X815Y52D01*
X853Y52D02*
X858Y52D01*
X885Y52D02*
X890Y52D01*
X909Y52D02*
X914Y52D01*
X940Y52D02*
X947Y52D01*
X973Y52D02*
X978Y52D01*
X992Y52D02*
X1003Y52D01*
X1017Y52D02*
X1023Y52D01*
X1041Y52D02*
X1047Y52D01*
X1062Y52D02*
X1069Y52D01*
X1086Y52D02*
X1091Y52D01*
X1106Y52D02*
X1112Y52D01*
X1127Y52D02*
X1135Y52D01*
X1150Y52D02*
X1155Y52D01*
X1174Y52D02*
X1179Y52D01*
X1216Y52D02*
X1223Y52D01*
X1248Y52D02*
X1257Y52D01*
X1263Y52D02*
X1268Y52D01*
X1294Y52D02*
X1300Y52D01*
X1327Y52D02*
X1332Y52D01*
X1339Y52D02*
X1344Y52D01*
X1351Y52D02*
X1357Y52D01*
X1371Y52D02*
X1376Y52D01*
X1395Y52D02*
X1400Y52D01*
X1437Y52D02*
X1444Y52D01*
X1504Y52D02*
X1509Y52D01*
X1526Y52D02*
X1533Y52D01*
X1548Y52D02*
X1553Y52D01*
X1572Y52D02*
X1577Y52D01*
X1593Y52D02*
X1598Y52D01*
X1613Y52D02*
X1621Y52D01*
X1654Y52D02*
X1660Y52D01*
X1693Y52D02*
X1698Y52D01*
X1725Y52D02*
X1732Y52D01*
X1749Y52D02*
X1754Y52D01*
X1780Y52D02*
X1786Y52D01*
X1824Y52D02*
X1831Y52D01*
X1922Y52D02*
X1930Y52D01*
X1946Y52D02*
X1952Y52D01*
X1968Y52D02*
X1975Y52D01*
X2008Y52D02*
X2013Y52D01*
X2052Y52D02*
X2057Y52D01*
X2079Y52D02*
X2084Y52D01*
X2099Y52D02*
X2108Y52D01*
X178Y51D02*
X183Y51D01*
X198Y51D02*
X207Y51D01*
X222Y51D02*
X227Y51D01*
X246Y51D02*
X251Y51D01*
X266Y51D02*
X271Y51D01*
X289Y51D02*
X295Y51D01*
X311Y51D02*
X316Y51D01*
X354Y51D02*
X360Y51D01*
X378Y51D02*
X384Y51D01*
X399Y51D02*
X404Y51D01*
X423Y51D02*
X428Y51D01*
X444Y51D02*
X472Y51D01*
X488Y51D02*
X494Y51D01*
X510Y51D02*
X515Y51D01*
X549Y51D02*
X555Y51D01*
X594Y51D02*
X599Y51D01*
X664Y51D02*
X669Y51D01*
X684Y51D02*
X693Y51D01*
X708Y51D02*
X713Y51D01*
X732Y51D02*
X737Y51D01*
X764Y51D02*
X769Y51D01*
X807Y51D02*
X814Y51D01*
X853Y51D02*
X858Y51D01*
X885Y51D02*
X890Y51D01*
X909Y51D02*
X914Y51D01*
X941Y51D02*
X947Y51D01*
X973Y51D02*
X978Y51D01*
X993Y51D02*
X1003Y51D01*
X1017Y51D02*
X1023Y51D01*
X1042Y51D02*
X1047Y51D01*
X1062Y51D02*
X1068Y51D01*
X1086Y51D02*
X1091Y51D01*
X1106Y51D02*
X1112Y51D01*
X1128Y51D02*
X1135Y51D01*
X1150Y51D02*
X1155Y51D01*
X1174Y51D02*
X1179Y51D01*
X1217Y51D02*
X1223Y51D01*
X1249Y51D02*
X1258Y51D01*
X1263Y51D02*
X1268Y51D01*
X1295Y51D02*
X1301Y51D01*
X1327Y51D02*
X1332Y51D01*
X1339Y51D02*
X1344Y51D01*
X1351Y51D02*
X1357Y51D01*
X1371Y51D02*
X1376Y51D01*
X1395Y51D02*
X1400Y51D01*
X1438Y51D02*
X1444Y51D01*
X1504Y51D02*
X1509Y51D01*
X1527Y51D02*
X1533Y51D01*
X1548Y51D02*
X1553Y51D01*
X1572Y51D02*
X1577Y51D01*
X1593Y51D02*
X1598Y51D01*
X1614Y51D02*
X1621Y51D01*
X1654Y51D02*
X1660Y51D01*
X1693Y51D02*
X1698Y51D01*
X1725Y51D02*
X1731Y51D01*
X1749Y51D02*
X1754Y51D01*
X1781Y51D02*
X1787Y51D01*
X1825Y51D02*
X1831Y51D01*
X1919Y51D02*
X1929Y51D01*
X1946Y51D02*
X1951Y51D01*
X1969Y51D02*
X1975Y51D01*
X2008Y51D02*
X2013Y51D01*
X2052Y51D02*
X2057Y51D01*
X2079Y51D02*
X2084Y51D01*
X2101Y51D02*
X2108Y51D01*
X178Y50D02*
X182Y50D01*
X199Y50D02*
X207Y50D01*
X222Y50D02*
X227Y50D01*
X246Y50D02*
X251Y50D01*
X266Y50D02*
X271Y50D01*
X290Y50D02*
X295Y50D01*
X311Y50D02*
X316Y50D01*
X354Y50D02*
X360Y50D01*
X378Y50D02*
X384Y50D01*
X398Y50D02*
X404Y50D01*
X423Y50D02*
X428Y50D01*
X445Y50D02*
X472Y50D01*
X488Y50D02*
X494Y50D01*
X509Y50D02*
X515Y50D01*
X549Y50D02*
X555Y50D01*
X594Y50D02*
X599Y50D01*
X664Y50D02*
X668Y50D01*
X685Y50D02*
X693Y50D01*
X708Y50D02*
X713Y50D01*
X732Y50D02*
X737Y50D01*
X764Y50D02*
X769Y50D01*
X806Y50D02*
X813Y50D01*
X853Y50D02*
X858Y50D01*
X885Y50D02*
X890Y50D01*
X909Y50D02*
X914Y50D01*
X941Y50D02*
X948Y50D01*
X974Y50D02*
X978Y50D01*
X994Y50D02*
X1003Y50D01*
X1017Y50D02*
X1023Y50D01*
X1042Y50D02*
X1047Y50D01*
X1062Y50D02*
X1067Y50D01*
X1086Y50D02*
X1091Y50D01*
X1106Y50D02*
X1112Y50D01*
X1130Y50D02*
X1135Y50D01*
X1150Y50D02*
X1155Y50D01*
X1174Y50D02*
X1179Y50D01*
X1218Y50D02*
X1223Y50D01*
X1251Y50D02*
X1259Y50D01*
X1263Y50D02*
X1268Y50D01*
X1295Y50D02*
X1301Y50D01*
X1327Y50D02*
X1332Y50D01*
X1339Y50D02*
X1344Y50D01*
X1351Y50D02*
X1357Y50D01*
X1371Y50D02*
X1376Y50D01*
X1395Y50D02*
X1400Y50D01*
X1439Y50D02*
X1444Y50D01*
X1504Y50D02*
X1509Y50D01*
X1528Y50D02*
X1533Y50D01*
X1548Y50D02*
X1553Y50D01*
X1572Y50D02*
X1577Y50D01*
X1593Y50D02*
X1598Y50D01*
X1616Y50D02*
X1621Y50D01*
X1654Y50D02*
X1660Y50D01*
X1693Y50D02*
X1698Y50D01*
X1725Y50D02*
X1730Y50D01*
X1749Y50D02*
X1754Y50D01*
X1781Y50D02*
X1788Y50D01*
X1826Y50D02*
X1832Y50D01*
X1917Y50D02*
X1929Y50D01*
X1946Y50D02*
X1951Y50D01*
X1970Y50D02*
X1975Y50D01*
X2008Y50D02*
X2013Y50D01*
X2052Y50D02*
X2057Y50D01*
X2079Y50D02*
X2084Y50D01*
X2102Y50D02*
X2108Y50D01*
X179Y49D02*
X181Y49D01*
X200Y49D02*
X207Y49D01*
X222Y49D02*
X227Y49D01*
X246Y49D02*
X251Y49D01*
X266Y49D02*
X271Y49D01*
X290Y49D02*
X295Y49D01*
X311Y49D02*
X333Y49D01*
X354Y49D02*
X359Y49D01*
X379Y49D02*
X384Y49D01*
X398Y49D02*
X404Y49D01*
X423Y49D02*
X428Y49D01*
X447Y49D02*
X472Y49D01*
X489Y49D02*
X495Y49D01*
X509Y49D02*
X514Y49D01*
X549Y49D02*
X555Y49D01*
X594Y49D02*
X599Y49D01*
X665Y49D02*
X667Y49D01*
X686Y49D02*
X693Y49D01*
X708Y49D02*
X713Y49D01*
X732Y49D02*
X737Y49D01*
X764Y49D02*
X769Y49D01*
X806Y49D02*
X813Y49D01*
X853Y49D02*
X858Y49D01*
X885Y49D02*
X890Y49D01*
X909Y49D02*
X914Y49D01*
X942Y49D02*
X948Y49D01*
X975Y49D02*
X977Y49D01*
X996Y49D02*
X1003Y49D01*
X1017Y49D02*
X1023Y49D01*
X1042Y49D02*
X1047Y49D01*
X1062Y49D02*
X1067Y49D01*
X1086Y49D02*
X1091Y49D01*
X1106Y49D02*
X1112Y49D01*
X1130Y49D02*
X1135Y49D01*
X1150Y49D02*
X1155Y49D01*
X1174Y49D02*
X1179Y49D01*
X1218Y49D02*
X1224Y49D01*
X1252Y49D02*
X1260Y49D01*
X1263Y49D02*
X1268Y49D01*
X1296Y49D02*
X1302Y49D01*
X1327Y49D02*
X1332Y49D01*
X1339Y49D02*
X1344Y49D01*
X1351Y49D02*
X1357Y49D01*
X1371Y49D02*
X1376Y49D01*
X1395Y49D02*
X1400Y49D01*
X1439Y49D02*
X1445Y49D01*
X1504Y49D02*
X1509Y49D01*
X1528Y49D02*
X1533Y49D01*
X1548Y49D02*
X1553Y49D01*
X1572Y49D02*
X1577Y49D01*
X1593Y49D02*
X1598Y49D01*
X1616Y49D02*
X1621Y49D01*
X1654Y49D02*
X1660Y49D01*
X1693Y49D02*
X1698Y49D01*
X1725Y49D02*
X1730Y49D01*
X1749Y49D02*
X1754Y49D01*
X1782Y49D02*
X1788Y49D01*
X1826Y49D02*
X1832Y49D01*
X1915Y49D02*
X1928Y49D01*
X1946Y49D02*
X1951Y49D01*
X1970Y49D02*
X1975Y49D01*
X2008Y49D02*
X2013Y49D01*
X2052Y49D02*
X2057Y49D01*
X2079Y49D02*
X2084Y49D01*
X2102Y49D02*
X2108Y49D01*
X201Y48D02*
X207Y48D01*
X222Y48D02*
X227Y48D01*
X246Y48D02*
X251Y48D01*
X266Y48D02*
X271Y48D01*
X290Y48D02*
X295Y48D01*
X311Y48D02*
X335Y48D01*
X354Y48D02*
X359Y48D01*
X379Y48D02*
X384Y48D01*
X398Y48D02*
X404Y48D01*
X423Y48D02*
X428Y48D01*
X467Y48D02*
X472Y48D01*
X489Y48D02*
X495Y48D01*
X508Y48D02*
X514Y48D01*
X549Y48D02*
X555Y48D01*
X594Y48D02*
X599Y48D01*
X687Y48D02*
X693Y48D01*
X708Y48D02*
X713Y48D01*
X732Y48D02*
X737Y48D01*
X764Y48D02*
X769Y48D01*
X805Y48D02*
X812Y48D01*
X853Y48D02*
X858Y48D01*
X885Y48D02*
X890Y48D01*
X909Y48D02*
X914Y48D01*
X943Y48D02*
X949Y48D01*
X997Y48D02*
X1003Y48D01*
X1017Y48D02*
X1023Y48D01*
X1042Y48D02*
X1047Y48D01*
X1062Y48D02*
X1067Y48D01*
X1086Y48D02*
X1091Y48D01*
X1106Y48D02*
X1112Y48D01*
X1130Y48D02*
X1135Y48D01*
X1150Y48D02*
X1155Y48D01*
X1174Y48D02*
X1179Y48D01*
X1218Y48D02*
X1224Y48D01*
X1253Y48D02*
X1268Y48D01*
X1296Y48D02*
X1302Y48D01*
X1327Y48D02*
X1332Y48D01*
X1339Y48D02*
X1344Y48D01*
X1351Y48D02*
X1357Y48D01*
X1371Y48D02*
X1376Y48D01*
X1395Y48D02*
X1400Y48D01*
X1439Y48D02*
X1445Y48D01*
X1504Y48D02*
X1509Y48D01*
X1528Y48D02*
X1533Y48D01*
X1548Y48D02*
X1553Y48D01*
X1572Y48D02*
X1577Y48D01*
X1593Y48D02*
X1598Y48D01*
X1616Y48D02*
X1621Y48D01*
X1654Y48D02*
X1660Y48D01*
X1693Y48D02*
X1698Y48D01*
X1725Y48D02*
X1730Y48D01*
X1749Y48D02*
X1754Y48D01*
X1782Y48D02*
X1789Y48D01*
X1827Y48D02*
X1833Y48D01*
X1912Y48D02*
X1926Y48D01*
X1946Y48D02*
X1951Y48D01*
X1970Y48D02*
X1975Y48D01*
X2008Y48D02*
X2013Y48D01*
X2052Y48D02*
X2057Y48D01*
X2079Y48D02*
X2084Y48D01*
X2102Y48D02*
X2108Y48D01*
X202Y47D02*
X207Y47D01*
X222Y47D02*
X227Y47D01*
X246Y47D02*
X251Y47D01*
X266Y47D02*
X271Y47D01*
X290Y47D02*
X295Y47D01*
X311Y47D02*
X337Y47D01*
X354Y47D02*
X359Y47D01*
X379Y47D02*
X384Y47D01*
X398Y47D02*
X404Y47D01*
X423Y47D02*
X428Y47D01*
X467Y47D02*
X472Y47D01*
X490Y47D02*
X496Y47D01*
X508Y47D02*
X514Y47D01*
X549Y47D02*
X555Y47D01*
X594Y47D02*
X599Y47D01*
X688Y47D02*
X693Y47D01*
X708Y47D02*
X713Y47D01*
X732Y47D02*
X737Y47D01*
X764Y47D02*
X769Y47D01*
X804Y47D02*
X811Y47D01*
X853Y47D02*
X858Y47D01*
X885Y47D02*
X890Y47D01*
X909Y47D02*
X914Y47D01*
X943Y47D02*
X949Y47D01*
X997Y47D02*
X1003Y47D01*
X1017Y47D02*
X1023Y47D01*
X1041Y47D02*
X1047Y47D01*
X1062Y47D02*
X1067Y47D01*
X1086Y47D02*
X1091Y47D01*
X1106Y47D02*
X1111Y47D01*
X1130Y47D02*
X1135Y47D01*
X1150Y47D02*
X1155Y47D01*
X1174Y47D02*
X1179Y47D01*
X1218Y47D02*
X1224Y47D01*
X1254Y47D02*
X1268Y47D01*
X1297Y47D02*
X1303Y47D01*
X1327Y47D02*
X1332Y47D01*
X1339Y47D02*
X1344Y47D01*
X1351Y47D02*
X1357Y47D01*
X1371Y47D02*
X1376Y47D01*
X1395Y47D02*
X1400Y47D01*
X1439Y47D02*
X1445Y47D01*
X1504Y47D02*
X1509Y47D01*
X1528Y47D02*
X1533Y47D01*
X1548Y47D02*
X1553Y47D01*
X1572Y47D02*
X1577Y47D01*
X1593Y47D02*
X1598Y47D01*
X1616Y47D02*
X1621Y47D01*
X1654Y47D02*
X1660Y47D01*
X1693Y47D02*
X1698Y47D01*
X1725Y47D02*
X1730Y47D01*
X1749Y47D02*
X1754Y47D01*
X1783Y47D02*
X1789Y47D01*
X1827Y47D02*
X1833Y47D01*
X1910Y47D02*
X1925Y47D01*
X1946Y47D02*
X1951Y47D01*
X1970Y47D02*
X1975Y47D01*
X2008Y47D02*
X2013Y47D01*
X2052Y47D02*
X2057Y47D01*
X2079Y47D02*
X2084Y47D01*
X2102Y47D02*
X2108Y47D01*
X202Y46D02*
X207Y46D01*
X222Y46D02*
X251Y46D01*
X266Y46D02*
X271Y46D01*
X290Y46D02*
X295Y46D01*
X311Y46D02*
X337Y46D01*
X354Y46D02*
X359Y46D01*
X379Y46D02*
X384Y46D01*
X398Y46D02*
X428Y46D01*
X467Y46D02*
X472Y46D01*
X490Y46D02*
X496Y46D01*
X507Y46D02*
X513Y46D01*
X549Y46D02*
X555Y46D01*
X594Y46D02*
X599Y46D01*
X688Y46D02*
X693Y46D01*
X708Y46D02*
X737Y46D01*
X764Y46D02*
X769Y46D01*
X803Y46D02*
X810Y46D01*
X853Y46D02*
X858Y46D01*
X885Y46D02*
X890Y46D01*
X909Y46D02*
X914Y46D01*
X944Y46D02*
X950Y46D01*
X997Y46D02*
X1003Y46D01*
X1017Y46D02*
X1047Y46D01*
X1062Y46D02*
X1067Y46D01*
X1086Y46D02*
X1091Y46D01*
X1106Y46D02*
X1111Y46D01*
X1130Y46D02*
X1135Y46D01*
X1150Y46D02*
X1155Y46D01*
X1174Y46D02*
X1179Y46D01*
X1218Y46D02*
X1224Y46D01*
X1254Y46D02*
X1268Y46D01*
X1297Y46D02*
X1304Y46D01*
X1327Y46D02*
X1332Y46D01*
X1339Y46D02*
X1344Y46D01*
X1351Y46D02*
X1357Y46D01*
X1371Y46D02*
X1376Y46D01*
X1395Y46D02*
X1400Y46D01*
X1439Y46D02*
X1445Y46D01*
X1470Y46D02*
X1479Y46D01*
X1504Y46D02*
X1509Y46D01*
X1528Y46D02*
X1533Y46D01*
X1548Y46D02*
X1553Y46D01*
X1572Y46D02*
X1577Y46D01*
X1593Y46D02*
X1598Y46D01*
X1616Y46D02*
X1621Y46D01*
X1654Y46D02*
X1660Y46D01*
X1693Y46D02*
X1698Y46D01*
X1725Y46D02*
X1730Y46D01*
X1749Y46D02*
X1754Y46D01*
X1784Y46D02*
X1790Y46D01*
X1828Y46D02*
X1834Y46D01*
X1867Y46D02*
X1876Y46D01*
X1908Y46D02*
X1922Y46D01*
X1946Y46D02*
X1951Y46D01*
X1970Y46D02*
X1975Y46D01*
X2008Y46D02*
X2013Y46D01*
X2052Y46D02*
X2057Y46D01*
X2079Y46D02*
X2084Y46D01*
X2102Y46D02*
X2108Y46D01*
X202Y45D02*
X207Y45D01*
X222Y45D02*
X251Y45D01*
X266Y45D02*
X271Y45D01*
X290Y45D02*
X295Y45D01*
X311Y45D02*
X338Y45D01*
X354Y45D02*
X359Y45D01*
X379Y45D02*
X384Y45D01*
X398Y45D02*
X428Y45D01*
X467Y45D02*
X472Y45D01*
X491Y45D02*
X496Y45D01*
X507Y45D02*
X513Y45D01*
X549Y45D02*
X555Y45D01*
X594Y45D02*
X599Y45D01*
X688Y45D02*
X693Y45D01*
X708Y45D02*
X737Y45D01*
X764Y45D02*
X769Y45D01*
X803Y45D02*
X810Y45D01*
X853Y45D02*
X858Y45D01*
X885Y45D02*
X890Y45D01*
X909Y45D02*
X914Y45D01*
X944Y45D02*
X951Y45D01*
X997Y45D02*
X1003Y45D01*
X1017Y45D02*
X1047Y45D01*
X1062Y45D02*
X1067Y45D01*
X1086Y45D02*
X1091Y45D01*
X1106Y45D02*
X1111Y45D01*
X1130Y45D02*
X1135Y45D01*
X1150Y45D02*
X1155Y45D01*
X1174Y45D02*
X1179Y45D01*
X1218Y45D02*
X1224Y45D01*
X1253Y45D02*
X1268Y45D01*
X1298Y45D02*
X1304Y45D01*
X1327Y45D02*
X1332Y45D01*
X1339Y45D02*
X1344Y45D01*
X1351Y45D02*
X1357Y45D01*
X1371Y45D02*
X1376Y45D01*
X1395Y45D02*
X1400Y45D01*
X1439Y45D02*
X1445Y45D01*
X1469Y45D02*
X1479Y45D01*
X1504Y45D02*
X1509Y45D01*
X1528Y45D02*
X1533Y45D01*
X1548Y45D02*
X1553Y45D01*
X1572Y45D02*
X1577Y45D01*
X1592Y45D02*
X1598Y45D01*
X1616Y45D02*
X1621Y45D01*
X1654Y45D02*
X1660Y45D01*
X1693Y45D02*
X1698Y45D01*
X1725Y45D02*
X1730Y45D01*
X1749Y45D02*
X1754Y45D01*
X1784Y45D02*
X1790Y45D01*
X1828Y45D02*
X1835Y45D01*
X1867Y45D02*
X1877Y45D01*
X1906Y45D02*
X1920Y45D01*
X1946Y45D02*
X1951Y45D01*
X1970Y45D02*
X1975Y45D01*
X2008Y45D02*
X2013Y45D01*
X2052Y45D02*
X2057Y45D01*
X2079Y45D02*
X2084Y45D01*
X2102Y45D02*
X2108Y45D01*
X202Y44D02*
X207Y44D01*
X222Y44D02*
X251Y44D01*
X266Y44D02*
X271Y44D01*
X290Y44D02*
X295Y44D01*
X311Y44D02*
X339Y44D01*
X354Y44D02*
X359Y44D01*
X379Y44D02*
X384Y44D01*
X399Y44D02*
X428Y44D01*
X467Y44D02*
X472Y44D01*
X491Y44D02*
X497Y44D01*
X506Y44D02*
X512Y44D01*
X549Y44D02*
X555Y44D01*
X594Y44D02*
X599Y44D01*
X688Y44D02*
X693Y44D01*
X708Y44D02*
X737Y44D01*
X764Y44D02*
X769Y44D01*
X802Y44D02*
X809Y44D01*
X853Y44D02*
X858Y44D01*
X885Y44D02*
X890Y44D01*
X909Y44D02*
X914Y44D01*
X945Y44D02*
X951Y44D01*
X997Y44D02*
X1003Y44D01*
X1017Y44D02*
X1047Y44D01*
X1062Y44D02*
X1067Y44D01*
X1086Y44D02*
X1091Y44D01*
X1106Y44D02*
X1111Y44D01*
X1130Y44D02*
X1135Y44D01*
X1150Y44D02*
X1155Y44D01*
X1174Y44D02*
X1179Y44D01*
X1218Y44D02*
X1224Y44D01*
X1252Y44D02*
X1268Y44D01*
X1299Y44D02*
X1305Y44D01*
X1327Y44D02*
X1332Y44D01*
X1339Y44D02*
X1344Y44D01*
X1351Y44D02*
X1357Y44D01*
X1371Y44D02*
X1376Y44D01*
X1395Y44D02*
X1400Y44D01*
X1439Y44D02*
X1445Y44D01*
X1469Y44D02*
X1480Y44D01*
X1504Y44D02*
X1509Y44D01*
X1528Y44D02*
X1533Y44D01*
X1548Y44D02*
X1553Y44D01*
X1572Y44D02*
X1577Y44D01*
X1592Y44D02*
X1598Y44D01*
X1616Y44D02*
X1621Y44D01*
X1654Y44D02*
X1660Y44D01*
X1693Y44D02*
X1698Y44D01*
X1725Y44D02*
X1730Y44D01*
X1749Y44D02*
X1754Y44D01*
X1785Y44D02*
X1791Y44D01*
X1829Y44D02*
X1835Y44D01*
X1866Y44D02*
X1878Y44D01*
X1905Y44D02*
X1918Y44D01*
X1946Y44D02*
X1951Y44D01*
X1970Y44D02*
X1975Y44D01*
X2008Y44D02*
X2013Y44D01*
X2052Y44D02*
X2057Y44D01*
X2079Y44D02*
X2084Y44D01*
X2102Y44D02*
X2108Y44D01*
X202Y43D02*
X207Y43D01*
X222Y43D02*
X251Y43D01*
X266Y43D02*
X271Y43D01*
X290Y43D02*
X295Y43D01*
X311Y43D02*
X318Y43D01*
X333Y43D02*
X339Y43D01*
X354Y43D02*
X359Y43D01*
X379Y43D02*
X384Y43D01*
X399Y43D02*
X428Y43D01*
X467Y43D02*
X472Y43D01*
X492Y43D02*
X497Y43D01*
X506Y43D02*
X512Y43D01*
X549Y43D02*
X555Y43D01*
X594Y43D02*
X599Y43D01*
X688Y43D02*
X693Y43D01*
X708Y43D02*
X737Y43D01*
X764Y43D02*
X769Y43D01*
X801Y43D02*
X808Y43D01*
X853Y43D02*
X858Y43D01*
X885Y43D02*
X890Y43D01*
X909Y43D02*
X914Y43D01*
X946Y43D02*
X952Y43D01*
X997Y43D02*
X1003Y43D01*
X1017Y43D02*
X1047Y43D01*
X1062Y43D02*
X1067Y43D01*
X1086Y43D02*
X1091Y43D01*
X1106Y43D02*
X1111Y43D01*
X1130Y43D02*
X1135Y43D01*
X1150Y43D02*
X1155Y43D01*
X1174Y43D02*
X1179Y43D01*
X1218Y43D02*
X1224Y43D01*
X1251Y43D02*
X1268Y43D01*
X1299Y43D02*
X1305Y43D01*
X1327Y43D02*
X1332Y43D01*
X1339Y43D02*
X1344Y43D01*
X1351Y43D02*
X1357Y43D01*
X1371Y43D02*
X1376Y43D01*
X1395Y43D02*
X1400Y43D01*
X1439Y43D02*
X1445Y43D01*
X1468Y43D02*
X1480Y43D01*
X1504Y43D02*
X1509Y43D01*
X1528Y43D02*
X1533Y43D01*
X1548Y43D02*
X1553Y43D01*
X1572Y43D02*
X1577Y43D01*
X1592Y43D02*
X1598Y43D01*
X1616Y43D02*
X1621Y43D01*
X1654Y43D02*
X1660Y43D01*
X1693Y43D02*
X1698Y43D01*
X1725Y43D02*
X1730Y43D01*
X1749Y43D02*
X1754Y43D01*
X1785Y43D02*
X1792Y43D01*
X1830Y43D02*
X1836Y43D01*
X1866Y43D02*
X1878Y43D01*
X1904Y43D02*
X1915Y43D01*
X1946Y43D02*
X1951Y43D01*
X1970Y43D02*
X1975Y43D01*
X2008Y43D02*
X2013Y43D01*
X2052Y43D02*
X2057Y43D01*
X2079Y43D02*
X2084Y43D01*
X2102Y43D02*
X2108Y43D01*
X202Y42D02*
X207Y42D01*
X222Y42D02*
X251Y42D01*
X266Y42D02*
X271Y42D01*
X290Y42D02*
X295Y42D01*
X310Y42D02*
X316Y42D01*
X334Y42D02*
X339Y42D01*
X354Y42D02*
X359Y42D01*
X379Y42D02*
X384Y42D01*
X399Y42D02*
X428Y42D01*
X467Y42D02*
X472Y42D01*
X492Y42D02*
X498Y42D01*
X506Y42D02*
X511Y42D01*
X549Y42D02*
X555Y42D01*
X594Y42D02*
X599Y42D01*
X688Y42D02*
X693Y42D01*
X709Y42D02*
X737Y42D01*
X764Y42D02*
X769Y42D01*
X800Y42D02*
X807Y42D01*
X853Y42D02*
X858Y42D01*
X885Y42D02*
X890Y42D01*
X909Y42D02*
X914Y42D01*
X946Y42D02*
X952Y42D01*
X997Y42D02*
X1003Y42D01*
X1018Y42D02*
X1047Y42D01*
X1062Y42D02*
X1068Y42D01*
X1086Y42D02*
X1091Y42D01*
X1106Y42D02*
X1111Y42D01*
X1130Y42D02*
X1135Y42D01*
X1150Y42D02*
X1155Y42D01*
X1174Y42D02*
X1179Y42D01*
X1218Y42D02*
X1224Y42D01*
X1250Y42D02*
X1258Y42D01*
X1260Y42D02*
X1268Y42D01*
X1300Y42D02*
X1306Y42D01*
X1327Y42D02*
X1332Y42D01*
X1339Y42D02*
X1344Y42D01*
X1351Y42D02*
X1357Y42D01*
X1371Y42D02*
X1376Y42D01*
X1395Y42D02*
X1400Y42D01*
X1439Y42D02*
X1445Y42D01*
X1468Y42D02*
X1480Y42D01*
X1504Y42D02*
X1509Y42D01*
X1528Y42D02*
X1533Y42D01*
X1548Y42D02*
X1553Y42D01*
X1571Y42D02*
X1577Y42D01*
X1592Y42D02*
X1598Y42D01*
X1616Y42D02*
X1621Y42D01*
X1654Y42D02*
X1660Y42D01*
X1693Y42D02*
X1698Y42D01*
X1725Y42D02*
X1731Y42D01*
X1749Y42D02*
X1754Y42D01*
X1786Y42D02*
X1792Y42D01*
X1830Y42D02*
X1836Y42D01*
X1866Y42D02*
X1878Y42D01*
X1903Y42D02*
X1913Y42D01*
X1946Y42D02*
X1951Y42D01*
X1970Y42D02*
X1975Y42D01*
X2008Y42D02*
X2013Y42D01*
X2052Y42D02*
X2057Y42D01*
X2079Y42D02*
X2084Y42D01*
X2102Y42D02*
X2108Y42D01*
X202Y41D02*
X207Y41D01*
X223Y41D02*
X251Y41D01*
X266Y41D02*
X271Y41D01*
X290Y41D02*
X295Y41D01*
X310Y41D02*
X316Y41D01*
X334Y41D02*
X339Y41D01*
X354Y41D02*
X359Y41D01*
X379Y41D02*
X384Y41D01*
X400Y41D02*
X428Y41D01*
X467Y41D02*
X472Y41D01*
X492Y41D02*
X498Y41D01*
X505Y41D02*
X511Y41D01*
X549Y41D02*
X555Y41D01*
X594Y41D02*
X599Y41D01*
X688Y41D02*
X693Y41D01*
X710Y41D02*
X737Y41D01*
X764Y41D02*
X769Y41D01*
X799Y41D02*
X806Y41D01*
X853Y41D02*
X858Y41D01*
X885Y41D02*
X890Y41D01*
X909Y41D02*
X914Y41D01*
X947Y41D02*
X953Y41D01*
X997Y41D02*
X1003Y41D01*
X1019Y41D02*
X1047Y41D01*
X1062Y41D02*
X1069Y41D01*
X1086Y41D02*
X1091Y41D01*
X1106Y41D02*
X1111Y41D01*
X1130Y41D02*
X1135Y41D01*
X1150Y41D02*
X1155Y41D01*
X1174Y41D02*
X1179Y41D01*
X1218Y41D02*
X1224Y41D01*
X1249Y41D02*
X1257Y41D01*
X1261Y41D02*
X1268Y41D01*
X1300Y41D02*
X1307Y41D01*
X1327Y41D02*
X1332Y41D01*
X1339Y41D02*
X1344Y41D01*
X1351Y41D02*
X1357Y41D01*
X1371Y41D02*
X1376Y41D01*
X1395Y41D02*
X1400Y41D01*
X1439Y41D02*
X1445Y41D01*
X1468Y41D02*
X1480Y41D01*
X1504Y41D02*
X1509Y41D01*
X1528Y41D02*
X1533Y41D01*
X1548Y41D02*
X1553Y41D01*
X1571Y41D02*
X1577Y41D01*
X1592Y41D02*
X1597Y41D01*
X1616Y41D02*
X1621Y41D01*
X1654Y41D02*
X1660Y41D01*
X1693Y41D02*
X1698Y41D01*
X1725Y41D02*
X1732Y41D01*
X1749Y41D02*
X1754Y41D01*
X1787Y41D02*
X1793Y41D01*
X1831Y41D02*
X1837Y41D01*
X1866Y41D02*
X1878Y41D01*
X1902Y41D02*
X1911Y41D01*
X1946Y41D02*
X1951Y41D01*
X1970Y41D02*
X1975Y41D01*
X2008Y41D02*
X2013Y41D01*
X2052Y41D02*
X2057Y41D01*
X2079Y41D02*
X2084Y41D01*
X2102Y41D02*
X2108Y41D01*
X202Y40D02*
X207Y40D01*
X246Y40D02*
X251Y40D01*
X266Y40D02*
X271Y40D01*
X290Y40D02*
X295Y40D01*
X310Y40D02*
X316Y40D01*
X334Y40D02*
X340Y40D01*
X354Y40D02*
X360Y40D01*
X378Y40D02*
X384Y40D01*
X423Y40D02*
X428Y40D01*
X467Y40D02*
X472Y40D01*
X493Y40D02*
X499Y40D01*
X505Y40D02*
X510Y40D01*
X549Y40D02*
X555Y40D01*
X594Y40D02*
X599Y40D01*
X688Y40D02*
X693Y40D01*
X732Y40D02*
X737Y40D01*
X764Y40D02*
X769Y40D01*
X799Y40D02*
X806Y40D01*
X853Y40D02*
X858Y40D01*
X885Y40D02*
X890Y40D01*
X909Y40D02*
X914Y40D01*
X947Y40D02*
X954Y40D01*
X997Y40D02*
X1003Y40D01*
X1042Y40D02*
X1047Y40D01*
X1062Y40D02*
X1070Y40D01*
X1085Y40D02*
X1091Y40D01*
X1106Y40D02*
X1111Y40D01*
X1130Y40D02*
X1135Y40D01*
X1150Y40D02*
X1155Y40D01*
X1174Y40D02*
X1179Y40D01*
X1218Y40D02*
X1223Y40D01*
X1247Y40D02*
X1256Y40D01*
X1262Y40D02*
X1268Y40D01*
X1301Y40D02*
X1307Y40D01*
X1327Y40D02*
X1332Y40D01*
X1339Y40D02*
X1344Y40D01*
X1351Y40D02*
X1357Y40D01*
X1371Y40D02*
X1376Y40D01*
X1395Y40D02*
X1400Y40D01*
X1439Y40D02*
X1444Y40D01*
X1468Y40D02*
X1480Y40D01*
X1504Y40D02*
X1509Y40D01*
X1527Y40D02*
X1533Y40D01*
X1548Y40D02*
X1553Y40D01*
X1571Y40D02*
X1577Y40D01*
X1592Y40D02*
X1597Y40D01*
X1616Y40D02*
X1621Y40D01*
X1654Y40D02*
X1660Y40D01*
X1693Y40D02*
X1698Y40D01*
X1725Y40D02*
X1733Y40D01*
X1749Y40D02*
X1754Y40D01*
X1787Y40D02*
X1793Y40D01*
X1831Y40D02*
X1838Y40D01*
X1866Y40D02*
X1878Y40D01*
X1902Y40D02*
X1908Y40D01*
X1946Y40D02*
X1951Y40D01*
X1970Y40D02*
X1975Y40D01*
X2008Y40D02*
X2013Y40D01*
X2052Y40D02*
X2057Y40D01*
X2079Y40D02*
X2084Y40D01*
X2102Y40D02*
X2108Y40D01*
X202Y39D02*
X207Y39D01*
X246Y39D02*
X251Y39D01*
X266Y39D02*
X271Y39D01*
X289Y39D02*
X295Y39D01*
X310Y39D02*
X316Y39D01*
X334Y39D02*
X340Y39D01*
X354Y39D02*
X360Y39D01*
X378Y39D02*
X384Y39D01*
X423Y39D02*
X428Y39D01*
X467Y39D02*
X472Y39D01*
X493Y39D02*
X499Y39D01*
X504Y39D02*
X510Y39D01*
X534Y39D02*
X534Y39D01*
X549Y39D02*
X555Y39D01*
X578Y39D02*
X578Y39D01*
X594Y39D02*
X599Y39D01*
X688Y39D02*
X693Y39D01*
X732Y39D02*
X737Y39D01*
X764Y39D02*
X769Y39D01*
X798Y39D02*
X805Y39D01*
X823Y39D02*
X823Y39D01*
X853Y39D02*
X858Y39D01*
X885Y39D02*
X890Y39D01*
X909Y39D02*
X914Y39D01*
X948Y39D02*
X954Y39D01*
X997Y39D02*
X1003Y39D01*
X1042Y39D02*
X1047Y39D01*
X1062Y39D02*
X1071Y39D01*
X1085Y39D02*
X1091Y39D01*
X1106Y39D02*
X1111Y39D01*
X1130Y39D02*
X1135Y39D01*
X1150Y39D02*
X1155Y39D01*
X1174Y39D02*
X1179Y39D01*
X1217Y39D02*
X1223Y39D01*
X1246Y39D02*
X1255Y39D01*
X1263Y39D02*
X1268Y39D01*
X1302Y39D02*
X1308Y39D01*
X1327Y39D02*
X1332Y39D01*
X1339Y39D02*
X1344Y39D01*
X1351Y39D02*
X1357Y39D01*
X1371Y39D02*
X1376Y39D01*
X1395Y39D02*
X1400Y39D01*
X1438Y39D02*
X1444Y39D01*
X1468Y39D02*
X1480Y39D01*
X1504Y39D02*
X1509Y39D01*
X1527Y39D02*
X1533Y39D01*
X1548Y39D02*
X1555Y39D01*
X1571Y39D02*
X1577Y39D01*
X1592Y39D02*
X1597Y39D01*
X1616Y39D02*
X1621Y39D01*
X1639Y39D02*
X1639Y39D01*
X1654Y39D02*
X1660Y39D01*
X1693Y39D02*
X1698Y39D01*
X1725Y39D02*
X1734Y39D01*
X1748Y39D02*
X1754Y39D01*
X1788Y39D02*
X1794Y39D01*
X1832Y39D02*
X1838Y39D01*
X1866Y39D02*
X1878Y39D01*
X1902Y39D02*
X1907Y39D01*
X1946Y39D02*
X1951Y39D01*
X1969Y39D02*
X1975Y39D01*
X2008Y39D02*
X2013Y39D01*
X2052Y39D02*
X2057Y39D01*
X2078Y39D02*
X2084Y39D01*
X2102Y39D02*
X2108Y39D01*
X202Y38D02*
X207Y38D01*
X246Y38D02*
X251Y38D01*
X266Y38D02*
X272Y38D01*
X288Y38D02*
X295Y38D01*
X310Y38D02*
X316Y38D01*
X334Y38D02*
X340Y38D01*
X355Y38D02*
X360Y38D01*
X377Y38D02*
X384Y38D01*
X423Y38D02*
X428Y38D01*
X467Y38D02*
X472Y38D01*
X494Y38D02*
X500Y38D01*
X504Y38D02*
X510Y38D01*
X532Y38D02*
X535Y38D01*
X549Y38D02*
X555Y38D01*
X576Y38D02*
X580Y38D01*
X594Y38D02*
X599Y38D01*
X688Y38D02*
X693Y38D01*
X732Y38D02*
X737Y38D01*
X764Y38D02*
X769Y38D01*
X797Y38D02*
X804Y38D01*
X821Y38D02*
X825Y38D01*
X853Y38D02*
X858Y38D01*
X885Y38D02*
X890Y38D01*
X909Y38D02*
X914Y38D01*
X948Y38D02*
X955Y38D01*
X997Y38D02*
X1003Y38D01*
X1041Y38D02*
X1047Y38D01*
X1062Y38D02*
X1072Y38D01*
X1084Y38D02*
X1090Y38D01*
X1106Y38D02*
X1111Y38D01*
X1130Y38D02*
X1135Y38D01*
X1150Y38D02*
X1155Y38D01*
X1174Y38D02*
X1179Y38D01*
X1216Y38D02*
X1223Y38D01*
X1245Y38D02*
X1254Y38D01*
X1263Y38D02*
X1268Y38D01*
X1302Y38D02*
X1308Y38D01*
X1327Y38D02*
X1332Y38D01*
X1339Y38D02*
X1344Y38D01*
X1351Y38D02*
X1357Y38D01*
X1371Y38D02*
X1376Y38D01*
X1395Y38D02*
X1400Y38D01*
X1437Y38D02*
X1444Y38D01*
X1469Y38D02*
X1480Y38D01*
X1504Y38D02*
X1509Y38D01*
X1525Y38D02*
X1533Y38D01*
X1548Y38D02*
X1556Y38D01*
X1571Y38D02*
X1577Y38D01*
X1592Y38D02*
X1597Y38D01*
X1616Y38D02*
X1621Y38D01*
X1637Y38D02*
X1640Y38D01*
X1654Y38D02*
X1660Y38D01*
X1693Y38D02*
X1698Y38D01*
X1725Y38D02*
X1735Y38D01*
X1747Y38D02*
X1753Y38D01*
X1788Y38D02*
X1795Y38D01*
X1833Y38D02*
X1839Y38D01*
X1866Y38D02*
X1877Y38D01*
X1902Y38D02*
X1907Y38D01*
X1946Y38D02*
X1952Y38D01*
X1968Y38D02*
X1975Y38D01*
X1991Y38D02*
X1994Y38D01*
X2008Y38D02*
X2013Y38D01*
X2035Y38D02*
X2038Y38D01*
X2052Y38D02*
X2057Y38D01*
X2078Y38D02*
X2084Y38D01*
X2102Y38D02*
X2108Y38D01*
X202Y37D02*
X207Y37D01*
X245Y37D02*
X251Y37D01*
X266Y37D02*
X273Y37D01*
X287Y37D02*
X295Y37D01*
X310Y37D02*
X317Y37D01*
X334Y37D02*
X340Y37D01*
X355Y37D02*
X362Y37D01*
X376Y37D02*
X384Y37D01*
X422Y37D02*
X428Y37D01*
X467Y37D02*
X472Y37D01*
X494Y37D02*
X500Y37D01*
X503Y37D02*
X509Y37D01*
X531Y37D02*
X536Y37D01*
X549Y37D02*
X554Y37D01*
X576Y37D02*
X580Y37D01*
X594Y37D02*
X599Y37D01*
X688Y37D02*
X693Y37D01*
X732Y37D02*
X737Y37D01*
X764Y37D02*
X769Y37D01*
X797Y37D02*
X803Y37D01*
X821Y37D02*
X826Y37D01*
X853Y37D02*
X858Y37D01*
X885Y37D02*
X890Y37D01*
X909Y37D02*
X914Y37D01*
X949Y37D02*
X955Y37D01*
X997Y37D02*
X1003Y37D01*
X1041Y37D02*
X1047Y37D01*
X1062Y37D02*
X1073Y37D01*
X1082Y37D02*
X1090Y37D01*
X1106Y37D02*
X1111Y37D01*
X1130Y37D02*
X1135Y37D01*
X1150Y37D02*
X1156Y37D01*
X1174Y37D02*
X1179Y37D01*
X1215Y37D02*
X1222Y37D01*
X1244Y37D02*
X1252Y37D01*
X1263Y37D02*
X1268Y37D01*
X1303Y37D02*
X1309Y37D01*
X1327Y37D02*
X1332Y37D01*
X1339Y37D02*
X1344Y37D01*
X1351Y37D02*
X1357Y37D01*
X1371Y37D02*
X1377Y37D01*
X1395Y37D02*
X1400Y37D01*
X1436Y37D02*
X1443Y37D01*
X1469Y37D02*
X1479Y37D01*
X1504Y37D02*
X1509Y37D01*
X1524Y37D02*
X1533Y37D01*
X1548Y37D02*
X1558Y37D01*
X1571Y37D02*
X1576Y37D01*
X1592Y37D02*
X1597Y37D01*
X1616Y37D02*
X1621Y37D01*
X1636Y37D02*
X1641Y37D01*
X1654Y37D02*
X1660Y37D01*
X1693Y37D02*
X1698Y37D01*
X1725Y37D02*
X1736Y37D01*
X1746Y37D02*
X1753Y37D01*
X1789Y37D02*
X1795Y37D01*
X1833Y37D02*
X1839Y37D01*
X1867Y37D02*
X1877Y37D01*
X1901Y37D02*
X1907Y37D01*
X1946Y37D02*
X1953Y37D01*
X1967Y37D02*
X1975Y37D01*
X1990Y37D02*
X1995Y37D01*
X2008Y37D02*
X2013Y37D01*
X2034Y37D02*
X2039Y37D01*
X2052Y37D02*
X2057Y37D01*
X2078Y37D02*
X2084Y37D01*
X2102Y37D02*
X2108Y37D01*
X202Y36D02*
X207Y36D01*
X244Y36D02*
X251Y36D01*
X267Y36D02*
X274Y36D01*
X286Y36D02*
X295Y36D01*
X310Y36D02*
X319Y36D01*
X334Y36D02*
X339Y36D01*
X355Y36D02*
X363Y36D01*
X375Y36D02*
X384Y36D01*
X421Y36D02*
X428Y36D01*
X467Y36D02*
X472Y36D01*
X495Y36D02*
X509Y36D01*
X531Y36D02*
X537Y36D01*
X549Y36D02*
X554Y36D01*
X575Y36D02*
X581Y36D01*
X593Y36D02*
X599Y36D01*
X688Y36D02*
X693Y36D01*
X731Y36D02*
X737Y36D01*
X764Y36D02*
X769Y36D01*
X797Y36D02*
X803Y36D01*
X821Y36D02*
X826Y36D01*
X853Y36D02*
X858Y36D01*
X885Y36D02*
X890Y36D01*
X909Y36D02*
X914Y36D01*
X950Y36D02*
X956Y36D01*
X997Y36D02*
X1003Y36D01*
X1040Y36D02*
X1046Y36D01*
X1062Y36D02*
X1089Y36D01*
X1106Y36D02*
X1111Y36D01*
X1130Y36D02*
X1135Y36D01*
X1150Y36D02*
X1157Y36D01*
X1173Y36D02*
X1179Y36D01*
X1214Y36D02*
X1222Y36D01*
X1243Y36D02*
X1251Y36D01*
X1263Y36D02*
X1268Y36D01*
X1303Y36D02*
X1309Y36D01*
X1327Y36D02*
X1332Y36D01*
X1339Y36D02*
X1344Y36D01*
X1351Y36D02*
X1357Y36D01*
X1371Y36D02*
X1378Y36D01*
X1394Y36D02*
X1400Y36D01*
X1435Y36D02*
X1443Y36D01*
X1470Y36D02*
X1478Y36D01*
X1504Y36D02*
X1510Y36D01*
X1523Y36D02*
X1533Y36D01*
X1548Y36D02*
X1560Y36D01*
X1571Y36D02*
X1576Y36D01*
X1592Y36D02*
X1597Y36D01*
X1616Y36D02*
X1621Y36D01*
X1636Y36D02*
X1642Y36D01*
X1654Y36D02*
X1659Y36D01*
X1693Y36D02*
X1698Y36D01*
X1725Y36D02*
X1752Y36D01*
X1789Y36D02*
X1796Y36D01*
X1834Y36D02*
X1840Y36D01*
X1868Y36D02*
X1876Y36D01*
X1902Y36D02*
X1907Y36D01*
X1927Y36D02*
X1929Y36D01*
X1947Y36D02*
X1954Y36D01*
X1966Y36D02*
X1975Y36D01*
X1990Y36D02*
X1995Y36D01*
X2008Y36D02*
X2013Y36D01*
X2034Y36D02*
X2039Y36D01*
X2052Y36D02*
X2057Y36D01*
X2078Y36D02*
X2084Y36D01*
X2102Y36D02*
X2108Y36D01*
X202Y35D02*
X207Y35D01*
X243Y35D02*
X250Y35D01*
X267Y35D02*
X275Y35D01*
X285Y35D02*
X295Y35D01*
X310Y35D02*
X320Y35D01*
X334Y35D02*
X339Y35D01*
X356Y35D02*
X364Y35D01*
X374Y35D02*
X384Y35D01*
X420Y35D02*
X427Y35D01*
X467Y35D02*
X472Y35D01*
X495Y35D02*
X508Y35D01*
X531Y35D02*
X537Y35D01*
X549Y35D02*
X554Y35D01*
X575Y35D02*
X581Y35D01*
X593Y35D02*
X598Y35D01*
X688Y35D02*
X693Y35D01*
X729Y35D02*
X737Y35D01*
X764Y35D02*
X769Y35D01*
X796Y35D02*
X802Y35D01*
X820Y35D02*
X826Y35D01*
X853Y35D02*
X858Y35D01*
X885Y35D02*
X890Y35D01*
X909Y35D02*
X914Y35D01*
X950Y35D02*
X956Y35D01*
X997Y35D02*
X1003Y35D01*
X1039Y35D02*
X1046Y35D01*
X1062Y35D02*
X1088Y35D01*
X1106Y35D02*
X1111Y35D01*
X1130Y35D02*
X1135Y35D01*
X1151Y35D02*
X1158Y35D01*
X1171Y35D02*
X1179Y35D01*
X1213Y35D02*
X1221Y35D01*
X1242Y35D02*
X1250Y35D01*
X1263Y35D02*
X1268Y35D01*
X1304Y35D02*
X1310Y35D01*
X1326Y35D02*
X1332Y35D01*
X1339Y35D02*
X1344Y35D01*
X1351Y35D02*
X1357Y35D01*
X1372Y35D02*
X1379Y35D01*
X1392Y35D02*
X1400Y35D01*
X1434Y35D02*
X1442Y35D01*
X1504Y35D02*
X1512Y35D01*
X1522Y35D02*
X1533Y35D01*
X1548Y35D02*
X1561Y35D01*
X1571Y35D02*
X1576Y35D01*
X1592Y35D02*
X1597Y35D01*
X1616Y35D02*
X1621Y35D01*
X1636Y35D02*
X1642Y35D01*
X1654Y35D02*
X1659Y35D01*
X1693Y35D02*
X1698Y35D01*
X1725Y35D02*
X1751Y35D01*
X1790Y35D02*
X1796Y35D01*
X1834Y35D02*
X1840Y35D01*
X1902Y35D02*
X1908Y35D01*
X1926Y35D02*
X1930Y35D01*
X1947Y35D02*
X1955Y35D01*
X1965Y35D02*
X1975Y35D01*
X1990Y35D02*
X1996Y35D01*
X2007Y35D02*
X2013Y35D01*
X2034Y35D02*
X2040Y35D01*
X2051Y35D02*
X2057Y35D01*
X2078Y35D02*
X2084Y35D01*
X2102Y35D02*
X2108Y35D01*
X202Y34D02*
X207Y34D01*
X241Y34D02*
X250Y34D01*
X268Y34D02*
X277Y34D01*
X284Y34D02*
X295Y34D01*
X310Y34D02*
X322Y34D01*
X332Y34D02*
X339Y34D01*
X357Y34D02*
X365Y34D01*
X373Y34D02*
X384Y34D01*
X418Y34D02*
X427Y34D01*
X467Y34D02*
X472Y34D01*
X495Y34D02*
X508Y34D01*
X532Y34D02*
X539Y34D01*
X547Y34D02*
X554Y34D01*
X576Y34D02*
X583Y34D01*
X591Y34D02*
X598Y34D01*
X688Y34D02*
X693Y34D01*
X728Y34D02*
X736Y34D01*
X764Y34D02*
X769Y34D01*
X796Y34D02*
X802Y34D01*
X819Y34D02*
X826Y34D01*
X852Y34D02*
X858Y34D01*
X885Y34D02*
X890Y34D01*
X909Y34D02*
X914Y34D01*
X951Y34D02*
X957Y34D01*
X997Y34D02*
X1003Y34D01*
X1037Y34D02*
X1045Y34D01*
X1062Y34D02*
X1087Y34D01*
X1106Y34D02*
X1111Y34D01*
X1130Y34D02*
X1135Y34D01*
X1151Y34D02*
X1160Y34D01*
X1170Y34D02*
X1178Y34D01*
X1211Y34D02*
X1220Y34D01*
X1240Y34D02*
X1249Y34D01*
X1263Y34D02*
X1268Y34D01*
X1304Y34D02*
X1311Y34D01*
X1326Y34D02*
X1332Y34D01*
X1339Y34D02*
X1344Y34D01*
X1351Y34D02*
X1357Y34D01*
X1372Y34D02*
X1381Y34D01*
X1391Y34D02*
X1399Y34D01*
X1432Y34D02*
X1441Y34D01*
X1505Y34D02*
X1513Y34D01*
X1520Y34D02*
X1533Y34D01*
X1548Y34D02*
X1563Y34D01*
X1569Y34D02*
X1576Y34D01*
X1592Y34D02*
X1597Y34D01*
X1616Y34D02*
X1621Y34D01*
X1637Y34D02*
X1644Y34D01*
X1652Y34D02*
X1659Y34D01*
X1692Y34D02*
X1698Y34D01*
X1725Y34D02*
X1750Y34D01*
X1791Y34D02*
X1797Y34D01*
X1835Y34D02*
X1841Y34D01*
X1902Y34D02*
X1909Y34D01*
X1924Y34D02*
X1931Y34D01*
X1948Y34D02*
X1956Y34D01*
X1964Y34D02*
X1975Y34D01*
X1990Y34D02*
X1997Y34D01*
X2006Y34D02*
X2013Y34D01*
X2034Y34D02*
X2041Y34D01*
X2050Y34D02*
X2057Y34D01*
X2078Y34D02*
X2083Y34D01*
X2102Y34D02*
X2108Y34D01*
X202Y33D02*
X207Y33D01*
X223Y33D02*
X249Y33D01*
X269Y33D02*
X278Y33D01*
X283Y33D02*
X295Y33D01*
X310Y33D02*
X339Y33D01*
X358Y33D02*
X366Y33D01*
X372Y33D02*
X384Y33D01*
X400Y33D02*
X426Y33D01*
X444Y33D02*
X472Y33D01*
X496Y33D02*
X507Y33D01*
X532Y33D02*
X554Y33D01*
X576Y33D02*
X598Y33D01*
X688Y33D02*
X693Y33D01*
X709Y33D02*
X735Y33D01*
X764Y33D02*
X769Y33D01*
X797Y33D02*
X825Y33D01*
X845Y33D02*
X866Y33D01*
X885Y33D02*
X890Y33D01*
X909Y33D02*
X914Y33D01*
X951Y33D02*
X958Y33D01*
X997Y33D02*
X1003Y33D01*
X1018Y33D02*
X1045Y33D01*
X1062Y33D02*
X1067Y33D01*
X1069Y33D02*
X1086Y33D01*
X1106Y33D02*
X1111Y33D01*
X1130Y33D02*
X1135Y33D01*
X1152Y33D02*
X1177Y33D01*
X1195Y33D02*
X1219Y33D01*
X1239Y33D02*
X1248Y33D01*
X1263Y33D02*
X1268Y33D01*
X1305Y33D02*
X1311Y33D01*
X1326Y33D02*
X1332Y33D01*
X1339Y33D02*
X1344Y33D01*
X1351Y33D02*
X1357Y33D01*
X1373Y33D02*
X1398Y33D01*
X1416Y33D02*
X1440Y33D01*
X1506Y33D02*
X1533Y33D01*
X1548Y33D02*
X1576Y33D01*
X1592Y33D02*
X1597Y33D01*
X1616Y33D02*
X1621Y33D01*
X1637Y33D02*
X1659Y33D01*
X1684Y33D02*
X1706Y33D01*
X1725Y33D02*
X1730Y33D01*
X1732Y33D02*
X1749Y33D01*
X1791Y33D02*
X1797Y33D01*
X1835Y33D02*
X1842Y33D01*
X1902Y33D02*
X1931Y33D01*
X1949Y33D02*
X1958Y33D01*
X1963Y33D02*
X1975Y33D01*
X1991Y33D02*
X2012Y33D01*
X2035Y33D02*
X2056Y33D01*
X2078Y33D02*
X2083Y33D01*
X2102Y33D02*
X2108Y33D01*
X202Y32D02*
X207Y32D01*
X222Y32D02*
X248Y32D01*
X270Y32D02*
X295Y32D01*
X310Y32D02*
X338Y32D01*
X359Y32D02*
X384Y32D01*
X399Y32D02*
X425Y32D01*
X443Y32D02*
X472Y32D01*
X496Y32D02*
X507Y32D01*
X533Y32D02*
X553Y32D01*
X577Y32D02*
X597Y32D01*
X688Y32D02*
X693Y32D01*
X708Y32D02*
X734Y32D01*
X764Y32D02*
X769Y32D01*
X797Y32D02*
X825Y32D01*
X844Y32D02*
X867Y32D01*
X885Y32D02*
X890Y32D01*
X909Y32D02*
X914Y32D01*
X952Y32D02*
X958Y32D01*
X997Y32D02*
X1003Y32D01*
X1018Y32D02*
X1044Y32D01*
X1062Y32D02*
X1067Y32D01*
X1071Y32D02*
X1085Y32D01*
X1106Y32D02*
X1111Y32D01*
X1130Y32D02*
X1135Y32D01*
X1153Y32D02*
X1176Y32D01*
X1194Y32D02*
X1218Y32D01*
X1239Y32D02*
X1247Y32D01*
X1263Y32D02*
X1268Y32D01*
X1306Y32D02*
X1312Y32D01*
X1326Y32D02*
X1332Y32D01*
X1339Y32D02*
X1344Y32D01*
X1351Y32D02*
X1357Y32D01*
X1374Y32D02*
X1397Y32D01*
X1415Y32D02*
X1439Y32D01*
X1507Y32D02*
X1533Y32D01*
X1548Y32D02*
X1553Y32D01*
X1555Y32D02*
X1575Y32D01*
X1592Y32D02*
X1597Y32D01*
X1616Y32D02*
X1621Y32D01*
X1638Y32D02*
X1658Y32D01*
X1684Y32D02*
X1706Y32D01*
X1725Y32D02*
X1730Y32D01*
X1734Y32D02*
X1748Y32D01*
X1792Y32D02*
X1798Y32D01*
X1836Y32D02*
X1842Y32D01*
X1903Y32D02*
X1930Y32D01*
X1950Y32D02*
X1975Y32D01*
X1991Y32D02*
X2012Y32D01*
X2035Y32D02*
X2056Y32D01*
X2078Y32D02*
X2083Y32D01*
X2102Y32D02*
X2108Y32D01*
X202Y31D02*
X207Y31D01*
X222Y31D02*
X247Y31D01*
X272Y31D02*
X295Y31D01*
X310Y31D02*
X337Y31D01*
X360Y31D02*
X384Y31D01*
X399Y31D02*
X424Y31D01*
X443Y31D02*
X472Y31D01*
X497Y31D02*
X506Y31D01*
X533Y31D02*
X552Y31D01*
X578Y31D02*
X597Y31D01*
X688Y31D02*
X693Y31D01*
X708Y31D02*
X733Y31D01*
X764Y31D02*
X769Y31D01*
X798Y31D02*
X824Y31D01*
X844Y31D02*
X867Y31D01*
X885Y31D02*
X890Y31D01*
X909Y31D02*
X914Y31D01*
X953Y31D02*
X958Y31D01*
X997Y31D02*
X1003Y31D01*
X1017Y31D02*
X1043Y31D01*
X1062Y31D02*
X1067Y31D01*
X1073Y31D02*
X1083Y31D01*
X1106Y31D02*
X1111Y31D01*
X1130Y31D02*
X1135Y31D01*
X1154Y31D02*
X1175Y31D01*
X1194Y31D02*
X1216Y31D01*
X1238Y31D02*
X1245Y31D01*
X1263Y31D02*
X1268Y31D01*
X1306Y31D02*
X1312Y31D01*
X1326Y31D02*
X1331Y31D01*
X1339Y31D02*
X1344Y31D01*
X1352Y31D02*
X1357Y31D01*
X1375Y31D02*
X1396Y31D01*
X1415Y31D02*
X1437Y31D01*
X1508Y31D02*
X1526Y31D01*
X1528Y31D02*
X1533Y31D01*
X1548Y31D02*
X1553Y31D01*
X1557Y31D02*
X1574Y31D01*
X1592Y31D02*
X1597Y31D01*
X1616Y31D02*
X1621Y31D01*
X1639Y31D02*
X1657Y31D01*
X1683Y31D02*
X1707Y31D01*
X1725Y31D02*
X1730Y31D01*
X1736Y31D02*
X1746Y31D01*
X1792Y31D02*
X1798Y31D01*
X1837Y31D02*
X1842Y31D01*
X1904Y31D02*
X1930Y31D01*
X1951Y31D02*
X1975Y31D01*
X1992Y31D02*
X2011Y31D01*
X2036Y31D02*
X2055Y31D01*
X2078Y31D02*
X2083Y31D01*
X2102Y31D02*
X2108Y31D01*
X202Y30D02*
X207Y30D01*
X222Y30D02*
X246Y30D01*
X273Y30D02*
X288Y30D01*
X290Y30D02*
X295Y30D01*
X310Y30D02*
X315Y30D01*
X318Y30D02*
X336Y30D01*
X361Y30D02*
X377Y30D01*
X379Y30D02*
X384Y30D01*
X399Y30D02*
X423Y30D01*
X443Y30D02*
X472Y30D01*
X497Y30D02*
X503Y30D01*
X534Y30D02*
X551Y30D01*
X579Y30D02*
X596Y30D01*
X688Y30D02*
X693Y30D01*
X708Y30D02*
X732Y30D01*
X764Y30D02*
X769Y30D01*
X798Y30D02*
X823Y30D01*
X844Y30D02*
X867Y30D01*
X885Y30D02*
X890Y30D01*
X909Y30D02*
X914Y30D01*
X953Y30D02*
X958Y30D01*
X998Y30D02*
X1002Y30D01*
X1017Y30D02*
X1042Y30D01*
X1062Y30D02*
X1067Y30D01*
X1106Y30D02*
X1111Y30D01*
X1130Y30D02*
X1135Y30D01*
X1155Y30D02*
X1174Y30D01*
X1194Y30D02*
X1215Y30D01*
X1238Y30D02*
X1244Y30D01*
X1263Y30D02*
X1268Y30D01*
X1307Y30D02*
X1312Y30D01*
X1326Y30D02*
X1331Y30D01*
X1339Y30D02*
X1344Y30D01*
X1352Y30D02*
X1357Y30D01*
X1376Y30D02*
X1395Y30D01*
X1415Y30D02*
X1436Y30D01*
X1509Y30D02*
X1525Y30D01*
X1528Y30D02*
X1533Y30D01*
X1548Y30D02*
X1553Y30D01*
X1559Y30D02*
X1573Y30D01*
X1592Y30D02*
X1597Y30D01*
X1616Y30D02*
X1621Y30D01*
X1639Y30D02*
X1656Y30D01*
X1684Y30D02*
X1707Y30D01*
X1725Y30D02*
X1730Y30D01*
X1793Y30D02*
X1798Y30D01*
X1837Y30D02*
X1842Y30D01*
X1905Y30D02*
X1928Y30D01*
X1952Y30D02*
X1968Y30D01*
X1970Y30D02*
X1975Y30D01*
X1993Y30D02*
X2010Y30D01*
X2037Y30D02*
X2054Y30D01*
X2078Y30D02*
X2083Y30D01*
X2103Y30D02*
X2107Y30D01*
X202Y29D02*
X206Y29D01*
X222Y29D02*
X244Y29D01*
X274Y29D02*
X287Y29D01*
X290Y29D02*
X295Y29D01*
X311Y29D02*
X315Y29D01*
X319Y29D02*
X335Y29D01*
X362Y29D02*
X376Y29D01*
X379Y29D02*
X384Y29D01*
X399Y29D02*
X421Y29D01*
X443Y29D02*
X472Y29D01*
X498Y29D02*
X503Y29D01*
X536Y29D02*
X550Y29D01*
X580Y29D02*
X594Y29D01*
X689Y29D02*
X693Y29D01*
X709Y29D02*
X731Y29D01*
X765Y29D02*
X769Y29D01*
X799Y29D02*
X822Y29D01*
X844Y29D02*
X866Y29D01*
X885Y29D02*
X889Y29D01*
X910Y29D02*
X914Y29D01*
X954Y29D02*
X958Y29D01*
X998Y29D02*
X1002Y29D01*
X1018Y29D02*
X1040Y29D01*
X1062Y29D02*
X1067Y29D01*
X1106Y29D02*
X1110Y29D01*
X1131Y29D02*
X1135Y29D01*
X1157Y29D02*
X1173Y29D01*
X1195Y29D02*
X1214Y29D01*
X1239Y29D02*
X1243Y29D01*
X1263Y29D02*
X1267Y29D01*
X1307Y29D02*
X1311Y29D01*
X1327Y29D02*
X1331Y29D01*
X1340Y29D02*
X1343Y29D01*
X1352Y29D02*
X1356Y29D01*
X1378Y29D02*
X1394Y29D01*
X1416Y29D02*
X1435Y29D01*
X1510Y29D02*
X1523Y29D01*
X1528Y29D02*
X1532Y29D01*
X1548Y29D02*
X1552Y29D01*
X1560Y29D02*
X1572Y29D01*
X1593Y29D02*
X1597Y29D01*
X1617Y29D02*
X1621Y29D01*
X1641Y29D02*
X1655Y29D01*
X1684Y29D02*
X1706Y29D01*
X1725Y29D02*
X1730Y29D01*
X1794Y29D02*
X1798Y29D01*
X1838Y29D02*
X1842Y29D01*
X1906Y29D02*
X1927Y29D01*
X1954Y29D02*
X1967Y29D01*
X1970Y29D02*
X1975Y29D01*
X1994Y29D02*
X2009Y29D01*
X2039Y29D02*
X2053Y29D01*
X2079Y29D02*
X2083Y29D01*
X2103Y29D02*
X2107Y29D01*
X204Y28D02*
X205Y28D01*
X224Y28D02*
X242Y28D01*
X275Y28D02*
X286Y28D01*
X290Y28D02*
X295Y28D01*
X312Y28D02*
X313Y28D01*
X321Y28D02*
X333Y28D01*
X364Y28D02*
X374Y28D01*
X379Y28D02*
X384Y28D01*
X400Y28D02*
X419Y28D01*
X445Y28D02*
X472Y28D01*
X498Y28D02*
X504Y28D01*
X538Y28D02*
X548Y28D01*
X582Y28D02*
X592Y28D01*
X690Y28D02*
X691Y28D01*
X710Y28D02*
X728Y28D01*
X766Y28D02*
X768Y28D01*
X801Y28D02*
X820Y28D01*
X845Y28D02*
X865Y28D01*
X887Y28D02*
X888Y28D01*
X911Y28D02*
X912Y28D01*
X955Y28D02*
X957Y28D01*
X999Y28D02*
X1001Y28D01*
X1019Y28D02*
X1038Y28D01*
X1062Y28D02*
X1067Y28D01*
X1108Y28D02*
X1109Y28D01*
X1132Y28D02*
X1133Y28D01*
X1159Y28D02*
X1170Y28D01*
X1196Y28D02*
X1211Y28D01*
X1240Y28D02*
X1242Y28D01*
X1264Y28D02*
X1266Y28D01*
X1309Y28D02*
X1310Y28D01*
X1328Y28D02*
X1330Y28D01*
X1341Y28D02*
X1342Y28D01*
X1353Y28D02*
X1355Y28D01*
X1380Y28D02*
X1391Y28D01*
X1417Y28D02*
X1433Y28D01*
X1513Y28D02*
X1521Y28D01*
X1530Y28D02*
X1531Y28D01*
X1550Y28D02*
X1551Y28D01*
X1563Y28D02*
X1570Y28D01*
X1594Y28D02*
X1595Y28D01*
X1618Y28D02*
X1620Y28D01*
X1643Y28D02*
X1653Y28D01*
X1685Y28D02*
X1705Y28D01*
X1725Y28D02*
X1730Y28D01*
X1795Y28D02*
X1796Y28D01*
X1839Y28D02*
X1841Y28D01*
X1909Y28D02*
X1924Y28D01*
X1955Y28D02*
X1965Y28D01*
X1970Y28D02*
X1975Y28D01*
X1997Y28D02*
X2006Y28D01*
X2041Y28D02*
X2051Y28D01*
X2080Y28D02*
X2082Y28D01*
X2104Y28D02*
X2106Y28D01*
X277Y27D02*
X284Y27D01*
X290Y27D02*
X295Y27D01*
X365Y27D02*
X372Y27D01*
X379Y27D02*
X384Y27D01*
X499Y27D02*
X504Y27D01*
X621Y27D02*
X648Y27D01*
X1062Y27D02*
X1067Y27D01*
X1725Y27D02*
X1730Y27D01*
X1957Y27D02*
X1963Y27D01*
X1970Y27D02*
X1975Y27D01*
X290Y26D02*
X295Y26D01*
X379Y26D02*
X384Y26D01*
X499Y26D02*
X505Y26D01*
X620Y26D02*
X649Y26D01*
X1062Y26D02*
X1067Y26D01*
X1725Y26D02*
X1730Y26D01*
X1970Y26D02*
X1975Y26D01*
X290Y25D02*
X295Y25D01*
X379Y25D02*
X384Y25D01*
X499Y25D02*
X505Y25D01*
X620Y25D02*
X649Y25D01*
X1062Y25D02*
X1067Y25D01*
X1725Y25D02*
X1730Y25D01*
X1970Y25D02*
X1975Y25D01*
X290Y24D02*
X295Y24D01*
X379Y24D02*
X384Y24D01*
X500Y24D02*
X506Y24D01*
X620Y24D02*
X649Y24D01*
X1062Y24D02*
X1067Y24D01*
X1725Y24D02*
X1730Y24D01*
X1970Y24D02*
X1975Y24D01*
X290Y23D02*
X295Y23D01*
X379Y23D02*
X384Y23D01*
X500Y23D02*
X506Y23D01*
X620Y23D02*
X648Y23D01*
X1062Y23D02*
X1068Y23D01*
X1725Y23D02*
X1731Y23D01*
X1970Y23D02*
X1975Y23D01*
X290Y22D02*
X295Y22D01*
X379Y22D02*
X384Y22D01*
X501Y22D02*
X507Y22D01*
X621Y22D02*
X647Y22D01*
X1062Y22D02*
X1070Y22D01*
X1725Y22D02*
X1733Y22D01*
X1970Y22D02*
X1975Y22D01*
X290Y21D02*
X295Y21D01*
X379Y21D02*
X384Y21D01*
X501Y21D02*
X507Y21D01*
X1063Y21D02*
X1072Y21D01*
X1726Y21D02*
X1735Y21D01*
X1970Y21D02*
X1975Y21D01*
X290Y20D02*
X295Y20D01*
X379Y20D02*
X384Y20D01*
X502Y20D02*
X515Y20D01*
X1064Y20D02*
X1087Y20D01*
X1727Y20D02*
X1750Y20D01*
X1970Y20D02*
X1975Y20D01*
X290Y19D02*
X295Y19D01*
X379Y19D02*
X384Y19D01*
X502Y19D02*
X516Y19D01*
X1065Y19D02*
X1088Y19D01*
X1728Y19D02*
X1751Y19D01*
X1970Y19D02*
X1975Y19D01*
X290Y18D02*
X295Y18D01*
X379Y18D02*
X384Y18D01*
X502Y18D02*
X516Y18D01*
X1066Y18D02*
X1088Y18D01*
X1729Y18D02*
X1751Y18D01*
X1970Y18D02*
X1975Y18D01*
X290Y17D02*
X295Y17D01*
X379Y17D02*
X384Y17D01*
X503Y17D02*
X516Y17D01*
X1067Y17D02*
X1088Y17D01*
X1730Y17D02*
X1751Y17D01*
X1970Y17D02*
X1975Y17D01*
X291Y16D02*
X295Y16D01*
X379Y16D02*
X383Y16D01*
X503Y16D02*
X516Y16D01*
X1068Y16D02*
X1087Y16D01*
X1731Y16D02*
X1750Y16D01*
X1970Y16D02*
X1974Y16D01*
X292Y15D02*
X293Y15D01*
X381Y15D02*
X382Y15D01*
X505Y15D02*
X514Y15D01*
X1071Y15D02*
X1086Y15D01*
X1734Y15D02*
X1749Y15D01*
X1972Y15D02*
X1973Y15D01*
D02*
G04 End of Silk0*
M02*