G04 MADE WITH FRITZING*
G04 WWW.FRITZING.ORG*
G04 DOUBLE SIDED*
G04 HOLES PLATED*
G04 CONTOUR ON CENTER OF CONTOUR VECTOR*
%ASAXBY*%
%FSLAX23Y23*%
%MOIN*%
%OFA0B0*%
%SFA1.0B1.0*%
%ADD10C,0.010000*%
%ADD11R,0.001000X0.001000*%
%LNSILK1*%
G90*
G70*
G54D10*
X2122Y1201D02*
X122Y1201D01*
D02*
X122Y1201D02*
X122Y1001D01*
D02*
X122Y1001D02*
X2122Y1001D01*
D02*
X2122Y1001D02*
X2122Y1201D01*
D02*
X2222Y801D02*
X1522Y801D01*
D02*
X1522Y801D02*
X1522Y701D01*
D02*
X1522Y701D02*
X2222Y701D01*
D02*
X2222Y701D02*
X2222Y801D01*
D02*
X2222Y201D02*
X1522Y201D01*
D02*
X1522Y201D02*
X1522Y101D01*
D02*
X1522Y101D02*
X2222Y101D01*
D02*
X2222Y101D02*
X2222Y201D01*
G54D11*
X1Y1299D02*
X2283Y1299D01*
X1Y1298D02*
X2283Y1298D01*
X1Y1297D02*
X2283Y1297D01*
X1Y1296D02*
X2283Y1296D01*
X1Y1295D02*
X2283Y1295D01*
X1Y1294D02*
X2283Y1294D01*
X1Y1293D02*
X2283Y1293D01*
X1Y1292D02*
X2283Y1292D01*
X1Y1291D02*
X8Y1291D01*
X2276Y1291D02*
X2283Y1291D01*
X1Y1290D02*
X8Y1290D01*
X2276Y1290D02*
X2283Y1290D01*
X1Y1289D02*
X8Y1289D01*
X2276Y1289D02*
X2283Y1289D01*
X1Y1288D02*
X8Y1288D01*
X2276Y1288D02*
X2283Y1288D01*
X1Y1287D02*
X8Y1287D01*
X2276Y1287D02*
X2283Y1287D01*
X1Y1286D02*
X8Y1286D01*
X2276Y1286D02*
X2283Y1286D01*
X1Y1285D02*
X8Y1285D01*
X2276Y1285D02*
X2283Y1285D01*
X1Y1284D02*
X8Y1284D01*
X2276Y1284D02*
X2283Y1284D01*
X1Y1283D02*
X8Y1283D01*
X2276Y1283D02*
X2283Y1283D01*
X1Y1282D02*
X8Y1282D01*
X2276Y1282D02*
X2283Y1282D01*
X1Y1281D02*
X8Y1281D01*
X2276Y1281D02*
X2283Y1281D01*
X1Y1280D02*
X8Y1280D01*
X2276Y1280D02*
X2283Y1280D01*
X1Y1279D02*
X8Y1279D01*
X2276Y1279D02*
X2283Y1279D01*
X1Y1278D02*
X8Y1278D01*
X2276Y1278D02*
X2283Y1278D01*
X1Y1277D02*
X8Y1277D01*
X2276Y1277D02*
X2283Y1277D01*
X1Y1276D02*
X8Y1276D01*
X2276Y1276D02*
X2283Y1276D01*
X1Y1275D02*
X8Y1275D01*
X2276Y1275D02*
X2283Y1275D01*
X1Y1274D02*
X8Y1274D01*
X2276Y1274D02*
X2283Y1274D01*
X1Y1273D02*
X8Y1273D01*
X2276Y1273D02*
X2283Y1273D01*
X1Y1272D02*
X8Y1272D01*
X2276Y1272D02*
X2283Y1272D01*
X1Y1271D02*
X8Y1271D01*
X2276Y1271D02*
X2283Y1271D01*
X1Y1270D02*
X8Y1270D01*
X2276Y1270D02*
X2283Y1270D01*
X1Y1269D02*
X8Y1269D01*
X2276Y1269D02*
X2283Y1269D01*
X1Y1268D02*
X8Y1268D01*
X2276Y1268D02*
X2283Y1268D01*
X1Y1267D02*
X8Y1267D01*
X2276Y1267D02*
X2283Y1267D01*
X1Y1266D02*
X8Y1266D01*
X2276Y1266D02*
X2283Y1266D01*
X1Y1265D02*
X8Y1265D01*
X2276Y1265D02*
X2283Y1265D01*
X1Y1264D02*
X8Y1264D01*
X2276Y1264D02*
X2283Y1264D01*
X1Y1263D02*
X8Y1263D01*
X2276Y1263D02*
X2283Y1263D01*
X1Y1262D02*
X8Y1262D01*
X2276Y1262D02*
X2283Y1262D01*
X1Y1261D02*
X8Y1261D01*
X2276Y1261D02*
X2283Y1261D01*
X1Y1260D02*
X8Y1260D01*
X2276Y1260D02*
X2283Y1260D01*
X1Y1259D02*
X8Y1259D01*
X2276Y1259D02*
X2283Y1259D01*
X1Y1258D02*
X8Y1258D01*
X2276Y1258D02*
X2283Y1258D01*
X1Y1257D02*
X8Y1257D01*
X2276Y1257D02*
X2283Y1257D01*
X1Y1256D02*
X8Y1256D01*
X2276Y1256D02*
X2283Y1256D01*
X1Y1255D02*
X8Y1255D01*
X2276Y1255D02*
X2283Y1255D01*
X1Y1254D02*
X8Y1254D01*
X2276Y1254D02*
X2283Y1254D01*
X1Y1253D02*
X8Y1253D01*
X2276Y1253D02*
X2283Y1253D01*
X1Y1252D02*
X8Y1252D01*
X2276Y1252D02*
X2283Y1252D01*
X1Y1251D02*
X8Y1251D01*
X2276Y1251D02*
X2283Y1251D01*
X1Y1250D02*
X8Y1250D01*
X2276Y1250D02*
X2283Y1250D01*
X1Y1249D02*
X8Y1249D01*
X2276Y1249D02*
X2283Y1249D01*
X1Y1248D02*
X8Y1248D01*
X2276Y1248D02*
X2283Y1248D01*
X1Y1247D02*
X8Y1247D01*
X2276Y1247D02*
X2283Y1247D01*
X1Y1246D02*
X8Y1246D01*
X2276Y1246D02*
X2283Y1246D01*
X1Y1245D02*
X8Y1245D01*
X2276Y1245D02*
X2283Y1245D01*
X1Y1244D02*
X8Y1244D01*
X2276Y1244D02*
X2283Y1244D01*
X1Y1243D02*
X8Y1243D01*
X2276Y1243D02*
X2283Y1243D01*
X1Y1242D02*
X8Y1242D01*
X2276Y1242D02*
X2283Y1242D01*
X1Y1241D02*
X8Y1241D01*
X2276Y1241D02*
X2283Y1241D01*
X1Y1240D02*
X8Y1240D01*
X2276Y1240D02*
X2283Y1240D01*
X1Y1239D02*
X8Y1239D01*
X2276Y1239D02*
X2283Y1239D01*
X1Y1238D02*
X8Y1238D01*
X2276Y1238D02*
X2283Y1238D01*
X1Y1237D02*
X8Y1237D01*
X2276Y1237D02*
X2283Y1237D01*
X1Y1236D02*
X8Y1236D01*
X2276Y1236D02*
X2283Y1236D01*
X1Y1235D02*
X8Y1235D01*
X2276Y1235D02*
X2283Y1235D01*
X1Y1234D02*
X8Y1234D01*
X2276Y1234D02*
X2283Y1234D01*
X1Y1233D02*
X8Y1233D01*
X2276Y1233D02*
X2283Y1233D01*
X1Y1232D02*
X8Y1232D01*
X2276Y1232D02*
X2283Y1232D01*
X1Y1231D02*
X8Y1231D01*
X2276Y1231D02*
X2283Y1231D01*
X1Y1230D02*
X8Y1230D01*
X2276Y1230D02*
X2283Y1230D01*
X1Y1229D02*
X8Y1229D01*
X2276Y1229D02*
X2283Y1229D01*
X1Y1228D02*
X8Y1228D01*
X2276Y1228D02*
X2283Y1228D01*
X1Y1227D02*
X8Y1227D01*
X2276Y1227D02*
X2283Y1227D01*
X1Y1226D02*
X8Y1226D01*
X2276Y1226D02*
X2283Y1226D01*
X1Y1225D02*
X8Y1225D01*
X2276Y1225D02*
X2283Y1225D01*
X1Y1224D02*
X8Y1224D01*
X2276Y1224D02*
X2283Y1224D01*
X1Y1223D02*
X8Y1223D01*
X2276Y1223D02*
X2283Y1223D01*
X1Y1222D02*
X8Y1222D01*
X2276Y1222D02*
X2283Y1222D01*
X1Y1221D02*
X8Y1221D01*
X2276Y1221D02*
X2283Y1221D01*
X1Y1220D02*
X8Y1220D01*
X2276Y1220D02*
X2283Y1220D01*
X1Y1219D02*
X8Y1219D01*
X2276Y1219D02*
X2283Y1219D01*
X1Y1218D02*
X8Y1218D01*
X2276Y1218D02*
X2283Y1218D01*
X1Y1217D02*
X8Y1217D01*
X2276Y1217D02*
X2283Y1217D01*
X1Y1216D02*
X8Y1216D01*
X2276Y1216D02*
X2283Y1216D01*
X1Y1215D02*
X8Y1215D01*
X2276Y1215D02*
X2283Y1215D01*
X1Y1214D02*
X8Y1214D01*
X2276Y1214D02*
X2283Y1214D01*
X1Y1213D02*
X8Y1213D01*
X2276Y1213D02*
X2283Y1213D01*
X1Y1212D02*
X8Y1212D01*
X2276Y1212D02*
X2283Y1212D01*
X1Y1211D02*
X8Y1211D01*
X2276Y1211D02*
X2283Y1211D01*
X1Y1210D02*
X8Y1210D01*
X2276Y1210D02*
X2283Y1210D01*
X1Y1209D02*
X8Y1209D01*
X2276Y1209D02*
X2283Y1209D01*
X1Y1208D02*
X8Y1208D01*
X2276Y1208D02*
X2283Y1208D01*
X1Y1207D02*
X8Y1207D01*
X2276Y1207D02*
X2283Y1207D01*
X1Y1206D02*
X8Y1206D01*
X2276Y1206D02*
X2283Y1206D01*
X1Y1205D02*
X8Y1205D01*
X2276Y1205D02*
X2283Y1205D01*
X1Y1204D02*
X8Y1204D01*
X2276Y1204D02*
X2283Y1204D01*
X1Y1203D02*
X8Y1203D01*
X2276Y1203D02*
X2283Y1203D01*
X1Y1202D02*
X8Y1202D01*
X2089Y1202D02*
X2089Y1202D01*
X2276Y1202D02*
X2283Y1202D01*
X1Y1201D02*
X8Y1201D01*
X2088Y1201D02*
X2090Y1201D01*
X2276Y1201D02*
X2283Y1201D01*
X1Y1200D02*
X8Y1200D01*
X2087Y1200D02*
X2091Y1200D01*
X2276Y1200D02*
X2283Y1200D01*
X1Y1199D02*
X8Y1199D01*
X2086Y1199D02*
X2092Y1199D01*
X2276Y1199D02*
X2283Y1199D01*
X1Y1198D02*
X8Y1198D01*
X2087Y1198D02*
X2093Y1198D01*
X2276Y1198D02*
X2283Y1198D01*
X1Y1197D02*
X8Y1197D01*
X2088Y1197D02*
X2094Y1197D01*
X2276Y1197D02*
X2283Y1197D01*
X1Y1196D02*
X8Y1196D01*
X2089Y1196D02*
X2095Y1196D01*
X2276Y1196D02*
X2283Y1196D01*
X1Y1195D02*
X8Y1195D01*
X2090Y1195D02*
X2096Y1195D01*
X2276Y1195D02*
X2283Y1195D01*
X1Y1194D02*
X8Y1194D01*
X2091Y1194D02*
X2097Y1194D01*
X2276Y1194D02*
X2283Y1194D01*
X1Y1193D02*
X8Y1193D01*
X2092Y1193D02*
X2098Y1193D01*
X2276Y1193D02*
X2283Y1193D01*
X1Y1192D02*
X8Y1192D01*
X2093Y1192D02*
X2099Y1192D01*
X2276Y1192D02*
X2283Y1192D01*
X1Y1191D02*
X8Y1191D01*
X2094Y1191D02*
X2100Y1191D01*
X2276Y1191D02*
X2283Y1191D01*
X1Y1190D02*
X8Y1190D01*
X2095Y1190D02*
X2101Y1190D01*
X2276Y1190D02*
X2283Y1190D01*
X1Y1189D02*
X8Y1189D01*
X2096Y1189D02*
X2102Y1189D01*
X2276Y1189D02*
X2283Y1189D01*
X1Y1188D02*
X8Y1188D01*
X2097Y1188D02*
X2103Y1188D01*
X2276Y1188D02*
X2283Y1188D01*
X1Y1187D02*
X8Y1187D01*
X2098Y1187D02*
X2104Y1187D01*
X2276Y1187D02*
X2283Y1187D01*
X1Y1186D02*
X8Y1186D01*
X2099Y1186D02*
X2105Y1186D01*
X2276Y1186D02*
X2283Y1186D01*
X1Y1185D02*
X8Y1185D01*
X2101Y1185D02*
X2106Y1185D01*
X2276Y1185D02*
X2283Y1185D01*
X1Y1184D02*
X8Y1184D01*
X2102Y1184D02*
X2107Y1184D01*
X2276Y1184D02*
X2283Y1184D01*
X1Y1183D02*
X8Y1183D01*
X2103Y1183D02*
X2108Y1183D01*
X2276Y1183D02*
X2283Y1183D01*
X1Y1182D02*
X8Y1182D01*
X2104Y1182D02*
X2109Y1182D01*
X2276Y1182D02*
X2283Y1182D01*
X1Y1181D02*
X8Y1181D01*
X2105Y1181D02*
X2110Y1181D01*
X2276Y1181D02*
X2283Y1181D01*
X1Y1180D02*
X8Y1180D01*
X2106Y1180D02*
X2111Y1180D01*
X2276Y1180D02*
X2283Y1180D01*
X1Y1179D02*
X8Y1179D01*
X2107Y1179D02*
X2112Y1179D01*
X2276Y1179D02*
X2283Y1179D01*
X1Y1178D02*
X8Y1178D01*
X2107Y1178D02*
X2113Y1178D01*
X2276Y1178D02*
X2283Y1178D01*
X1Y1177D02*
X8Y1177D01*
X2108Y1177D02*
X2114Y1177D01*
X2276Y1177D02*
X2283Y1177D01*
X1Y1176D02*
X8Y1176D01*
X2109Y1176D02*
X2115Y1176D01*
X2276Y1176D02*
X2283Y1176D01*
X1Y1175D02*
X8Y1175D01*
X2110Y1175D02*
X2116Y1175D01*
X2276Y1175D02*
X2283Y1175D01*
X1Y1174D02*
X8Y1174D01*
X2111Y1174D02*
X2117Y1174D01*
X2276Y1174D02*
X2283Y1174D01*
X1Y1173D02*
X8Y1173D01*
X2112Y1173D02*
X2118Y1173D01*
X2276Y1173D02*
X2283Y1173D01*
X1Y1172D02*
X8Y1172D01*
X2113Y1172D02*
X2119Y1172D01*
X2276Y1172D02*
X2283Y1172D01*
X1Y1171D02*
X8Y1171D01*
X2114Y1171D02*
X2120Y1171D01*
X2276Y1171D02*
X2283Y1171D01*
X1Y1170D02*
X8Y1170D01*
X2115Y1170D02*
X2121Y1170D01*
X2276Y1170D02*
X2283Y1170D01*
X1Y1169D02*
X8Y1169D01*
X2116Y1169D02*
X2122Y1169D01*
X2276Y1169D02*
X2283Y1169D01*
X1Y1168D02*
X8Y1168D01*
X2117Y1168D02*
X2123Y1168D01*
X2276Y1168D02*
X2283Y1168D01*
X1Y1167D02*
X8Y1167D01*
X2118Y1167D02*
X2123Y1167D01*
X2276Y1167D02*
X2283Y1167D01*
X1Y1166D02*
X8Y1166D01*
X2119Y1166D02*
X2122Y1166D01*
X2276Y1166D02*
X2283Y1166D01*
X1Y1165D02*
X8Y1165D01*
X2120Y1165D02*
X2121Y1165D01*
X2276Y1165D02*
X2283Y1165D01*
X1Y1164D02*
X8Y1164D01*
X2276Y1164D02*
X2283Y1164D01*
X1Y1163D02*
X8Y1163D01*
X2276Y1163D02*
X2283Y1163D01*
X1Y1162D02*
X8Y1162D01*
X2276Y1162D02*
X2283Y1162D01*
X1Y1161D02*
X8Y1161D01*
X2276Y1161D02*
X2283Y1161D01*
X1Y1160D02*
X8Y1160D01*
X2276Y1160D02*
X2283Y1160D01*
X1Y1159D02*
X8Y1159D01*
X2276Y1159D02*
X2283Y1159D01*
X1Y1158D02*
X8Y1158D01*
X2276Y1158D02*
X2283Y1158D01*
X1Y1157D02*
X8Y1157D01*
X2276Y1157D02*
X2283Y1157D01*
X1Y1156D02*
X8Y1156D01*
X2276Y1156D02*
X2283Y1156D01*
X1Y1155D02*
X8Y1155D01*
X2276Y1155D02*
X2283Y1155D01*
X1Y1154D02*
X8Y1154D01*
X2276Y1154D02*
X2283Y1154D01*
X1Y1153D02*
X8Y1153D01*
X2276Y1153D02*
X2283Y1153D01*
X1Y1152D02*
X8Y1152D01*
X2276Y1152D02*
X2283Y1152D01*
X1Y1151D02*
X8Y1151D01*
X2276Y1151D02*
X2283Y1151D01*
X1Y1150D02*
X8Y1150D01*
X2276Y1150D02*
X2283Y1150D01*
X1Y1149D02*
X8Y1149D01*
X2276Y1149D02*
X2283Y1149D01*
X1Y1148D02*
X8Y1148D01*
X2276Y1148D02*
X2283Y1148D01*
X1Y1147D02*
X8Y1147D01*
X2276Y1147D02*
X2283Y1147D01*
X1Y1146D02*
X8Y1146D01*
X2276Y1146D02*
X2283Y1146D01*
X1Y1145D02*
X8Y1145D01*
X2276Y1145D02*
X2283Y1145D01*
X1Y1144D02*
X8Y1144D01*
X2276Y1144D02*
X2283Y1144D01*
X1Y1143D02*
X8Y1143D01*
X2276Y1143D02*
X2283Y1143D01*
X1Y1142D02*
X8Y1142D01*
X2276Y1142D02*
X2283Y1142D01*
X1Y1141D02*
X8Y1141D01*
X2276Y1141D02*
X2283Y1141D01*
X1Y1140D02*
X8Y1140D01*
X2276Y1140D02*
X2283Y1140D01*
X1Y1139D02*
X8Y1139D01*
X2276Y1139D02*
X2283Y1139D01*
X1Y1138D02*
X8Y1138D01*
X2276Y1138D02*
X2283Y1138D01*
X1Y1137D02*
X8Y1137D01*
X2276Y1137D02*
X2283Y1137D01*
X1Y1136D02*
X8Y1136D01*
X2276Y1136D02*
X2283Y1136D01*
X1Y1135D02*
X8Y1135D01*
X2276Y1135D02*
X2283Y1135D01*
X1Y1134D02*
X8Y1134D01*
X2276Y1134D02*
X2283Y1134D01*
X1Y1133D02*
X8Y1133D01*
X2276Y1133D02*
X2283Y1133D01*
X1Y1132D02*
X8Y1132D01*
X2276Y1132D02*
X2283Y1132D01*
X1Y1131D02*
X8Y1131D01*
X2276Y1131D02*
X2283Y1131D01*
X1Y1130D02*
X8Y1130D01*
X2276Y1130D02*
X2283Y1130D01*
X1Y1129D02*
X8Y1129D01*
X2276Y1129D02*
X2283Y1129D01*
X1Y1128D02*
X8Y1128D01*
X2276Y1128D02*
X2283Y1128D01*
X1Y1127D02*
X8Y1127D01*
X2276Y1127D02*
X2283Y1127D01*
X1Y1126D02*
X8Y1126D01*
X2276Y1126D02*
X2283Y1126D01*
X1Y1125D02*
X8Y1125D01*
X2276Y1125D02*
X2283Y1125D01*
X1Y1124D02*
X8Y1124D01*
X2276Y1124D02*
X2283Y1124D01*
X1Y1123D02*
X8Y1123D01*
X2276Y1123D02*
X2283Y1123D01*
X1Y1122D02*
X8Y1122D01*
X2276Y1122D02*
X2283Y1122D01*
X1Y1121D02*
X8Y1121D01*
X2276Y1121D02*
X2283Y1121D01*
X1Y1120D02*
X8Y1120D01*
X2276Y1120D02*
X2283Y1120D01*
X1Y1119D02*
X8Y1119D01*
X2276Y1119D02*
X2283Y1119D01*
X1Y1118D02*
X8Y1118D01*
X2276Y1118D02*
X2283Y1118D01*
X1Y1117D02*
X8Y1117D01*
X2276Y1117D02*
X2283Y1117D01*
X1Y1116D02*
X8Y1116D01*
X2276Y1116D02*
X2283Y1116D01*
X1Y1115D02*
X8Y1115D01*
X2276Y1115D02*
X2283Y1115D01*
X1Y1114D02*
X8Y1114D01*
X2276Y1114D02*
X2283Y1114D01*
X1Y1113D02*
X8Y1113D01*
X2276Y1113D02*
X2283Y1113D01*
X1Y1112D02*
X8Y1112D01*
X2276Y1112D02*
X2283Y1112D01*
X1Y1111D02*
X8Y1111D01*
X2276Y1111D02*
X2283Y1111D01*
X1Y1110D02*
X8Y1110D01*
X2276Y1110D02*
X2283Y1110D01*
X1Y1109D02*
X8Y1109D01*
X2276Y1109D02*
X2283Y1109D01*
X1Y1108D02*
X8Y1108D01*
X2276Y1108D02*
X2283Y1108D01*
X1Y1107D02*
X8Y1107D01*
X2276Y1107D02*
X2283Y1107D01*
X1Y1106D02*
X8Y1106D01*
X2276Y1106D02*
X2283Y1106D01*
X1Y1105D02*
X8Y1105D01*
X2276Y1105D02*
X2283Y1105D01*
X1Y1104D02*
X8Y1104D01*
X2276Y1104D02*
X2283Y1104D01*
X1Y1103D02*
X8Y1103D01*
X2276Y1103D02*
X2283Y1103D01*
X1Y1102D02*
X8Y1102D01*
X2276Y1102D02*
X2283Y1102D01*
X1Y1101D02*
X8Y1101D01*
X2276Y1101D02*
X2283Y1101D01*
X1Y1100D02*
X8Y1100D01*
X2276Y1100D02*
X2283Y1100D01*
X1Y1099D02*
X8Y1099D01*
X2276Y1099D02*
X2283Y1099D01*
X1Y1098D02*
X8Y1098D01*
X2276Y1098D02*
X2283Y1098D01*
X1Y1097D02*
X8Y1097D01*
X2276Y1097D02*
X2283Y1097D01*
X1Y1096D02*
X8Y1096D01*
X2276Y1096D02*
X2283Y1096D01*
X1Y1095D02*
X8Y1095D01*
X2276Y1095D02*
X2283Y1095D01*
X1Y1094D02*
X8Y1094D01*
X2276Y1094D02*
X2283Y1094D01*
X1Y1093D02*
X8Y1093D01*
X2276Y1093D02*
X2283Y1093D01*
X1Y1092D02*
X8Y1092D01*
X2276Y1092D02*
X2283Y1092D01*
X1Y1091D02*
X8Y1091D01*
X2276Y1091D02*
X2283Y1091D01*
X1Y1090D02*
X8Y1090D01*
X2276Y1090D02*
X2283Y1090D01*
X1Y1089D02*
X8Y1089D01*
X2276Y1089D02*
X2283Y1089D01*
X1Y1088D02*
X8Y1088D01*
X2276Y1088D02*
X2283Y1088D01*
X1Y1087D02*
X8Y1087D01*
X2276Y1087D02*
X2283Y1087D01*
X1Y1086D02*
X8Y1086D01*
X2276Y1086D02*
X2283Y1086D01*
X1Y1085D02*
X8Y1085D01*
X2276Y1085D02*
X2283Y1085D01*
X1Y1084D02*
X8Y1084D01*
X2276Y1084D02*
X2283Y1084D01*
X1Y1083D02*
X8Y1083D01*
X2276Y1083D02*
X2283Y1083D01*
X1Y1082D02*
X8Y1082D01*
X2276Y1082D02*
X2283Y1082D01*
X1Y1081D02*
X8Y1081D01*
X2276Y1081D02*
X2283Y1081D01*
X1Y1080D02*
X8Y1080D01*
X2276Y1080D02*
X2283Y1080D01*
X1Y1079D02*
X8Y1079D01*
X2276Y1079D02*
X2283Y1079D01*
X1Y1078D02*
X8Y1078D01*
X2276Y1078D02*
X2283Y1078D01*
X1Y1077D02*
X8Y1077D01*
X2276Y1077D02*
X2283Y1077D01*
X1Y1076D02*
X8Y1076D01*
X2276Y1076D02*
X2283Y1076D01*
X1Y1075D02*
X8Y1075D01*
X2276Y1075D02*
X2283Y1075D01*
X1Y1074D02*
X8Y1074D01*
X2276Y1074D02*
X2283Y1074D01*
X1Y1073D02*
X8Y1073D01*
X2276Y1073D02*
X2283Y1073D01*
X1Y1072D02*
X8Y1072D01*
X2276Y1072D02*
X2283Y1072D01*
X1Y1071D02*
X8Y1071D01*
X2276Y1071D02*
X2283Y1071D01*
X1Y1070D02*
X8Y1070D01*
X2276Y1070D02*
X2283Y1070D01*
X1Y1069D02*
X8Y1069D01*
X2276Y1069D02*
X2283Y1069D01*
X1Y1068D02*
X8Y1068D01*
X2276Y1068D02*
X2283Y1068D01*
X1Y1067D02*
X8Y1067D01*
X2276Y1067D02*
X2283Y1067D01*
X1Y1066D02*
X8Y1066D01*
X2276Y1066D02*
X2283Y1066D01*
X1Y1065D02*
X8Y1065D01*
X2276Y1065D02*
X2283Y1065D01*
X1Y1064D02*
X8Y1064D01*
X2276Y1064D02*
X2283Y1064D01*
X1Y1063D02*
X8Y1063D01*
X2276Y1063D02*
X2283Y1063D01*
X1Y1062D02*
X8Y1062D01*
X2276Y1062D02*
X2283Y1062D01*
X1Y1061D02*
X8Y1061D01*
X2276Y1061D02*
X2283Y1061D01*
X1Y1060D02*
X8Y1060D01*
X2276Y1060D02*
X2283Y1060D01*
X1Y1059D02*
X8Y1059D01*
X2276Y1059D02*
X2283Y1059D01*
X1Y1058D02*
X8Y1058D01*
X2276Y1058D02*
X2283Y1058D01*
X1Y1057D02*
X8Y1057D01*
X2276Y1057D02*
X2283Y1057D01*
X1Y1056D02*
X8Y1056D01*
X2276Y1056D02*
X2283Y1056D01*
X1Y1055D02*
X8Y1055D01*
X2276Y1055D02*
X2283Y1055D01*
X1Y1054D02*
X8Y1054D01*
X2276Y1054D02*
X2283Y1054D01*
X1Y1053D02*
X8Y1053D01*
X2276Y1053D02*
X2283Y1053D01*
X1Y1052D02*
X8Y1052D01*
X2276Y1052D02*
X2283Y1052D01*
X1Y1051D02*
X8Y1051D01*
X2276Y1051D02*
X2283Y1051D01*
X1Y1050D02*
X8Y1050D01*
X2276Y1050D02*
X2283Y1050D01*
X1Y1049D02*
X8Y1049D01*
X2276Y1049D02*
X2283Y1049D01*
X1Y1048D02*
X8Y1048D01*
X2276Y1048D02*
X2283Y1048D01*
X1Y1047D02*
X8Y1047D01*
X2276Y1047D02*
X2283Y1047D01*
X1Y1046D02*
X8Y1046D01*
X2276Y1046D02*
X2283Y1046D01*
X1Y1045D02*
X8Y1045D01*
X2276Y1045D02*
X2283Y1045D01*
X1Y1044D02*
X8Y1044D01*
X2276Y1044D02*
X2283Y1044D01*
X1Y1043D02*
X8Y1043D01*
X2276Y1043D02*
X2283Y1043D01*
X1Y1042D02*
X8Y1042D01*
X2276Y1042D02*
X2283Y1042D01*
X1Y1041D02*
X8Y1041D01*
X2276Y1041D02*
X2283Y1041D01*
X1Y1040D02*
X8Y1040D01*
X2276Y1040D02*
X2283Y1040D01*
X1Y1039D02*
X8Y1039D01*
X2276Y1039D02*
X2283Y1039D01*
X1Y1038D02*
X8Y1038D01*
X2276Y1038D02*
X2283Y1038D01*
X1Y1037D02*
X8Y1037D01*
X2276Y1037D02*
X2283Y1037D01*
X1Y1036D02*
X8Y1036D01*
X2276Y1036D02*
X2283Y1036D01*
X1Y1035D02*
X8Y1035D01*
X2276Y1035D02*
X2283Y1035D01*
X1Y1034D02*
X8Y1034D01*
X2276Y1034D02*
X2283Y1034D01*
X1Y1033D02*
X8Y1033D01*
X2276Y1033D02*
X2283Y1033D01*
X1Y1032D02*
X8Y1032D01*
X2276Y1032D02*
X2283Y1032D01*
X1Y1031D02*
X8Y1031D01*
X2276Y1031D02*
X2283Y1031D01*
X1Y1030D02*
X8Y1030D01*
X2276Y1030D02*
X2283Y1030D01*
X1Y1029D02*
X8Y1029D01*
X2276Y1029D02*
X2283Y1029D01*
X1Y1028D02*
X8Y1028D01*
X2276Y1028D02*
X2283Y1028D01*
X1Y1027D02*
X8Y1027D01*
X2276Y1027D02*
X2283Y1027D01*
X1Y1026D02*
X8Y1026D01*
X2276Y1026D02*
X2283Y1026D01*
X1Y1025D02*
X8Y1025D01*
X2276Y1025D02*
X2283Y1025D01*
X1Y1024D02*
X8Y1024D01*
X2276Y1024D02*
X2283Y1024D01*
X1Y1023D02*
X8Y1023D01*
X2276Y1023D02*
X2283Y1023D01*
X1Y1022D02*
X8Y1022D01*
X2276Y1022D02*
X2283Y1022D01*
X1Y1021D02*
X8Y1021D01*
X2276Y1021D02*
X2283Y1021D01*
X1Y1020D02*
X8Y1020D01*
X2276Y1020D02*
X2283Y1020D01*
X1Y1019D02*
X8Y1019D01*
X2276Y1019D02*
X2283Y1019D01*
X1Y1018D02*
X8Y1018D01*
X2276Y1018D02*
X2283Y1018D01*
X1Y1017D02*
X8Y1017D01*
X2276Y1017D02*
X2283Y1017D01*
X1Y1016D02*
X8Y1016D01*
X2276Y1016D02*
X2283Y1016D01*
X1Y1015D02*
X8Y1015D01*
X2276Y1015D02*
X2283Y1015D01*
X1Y1014D02*
X8Y1014D01*
X2276Y1014D02*
X2283Y1014D01*
X1Y1013D02*
X8Y1013D01*
X2276Y1013D02*
X2283Y1013D01*
X1Y1012D02*
X8Y1012D01*
X2276Y1012D02*
X2283Y1012D01*
X1Y1011D02*
X8Y1011D01*
X2276Y1011D02*
X2283Y1011D01*
X1Y1010D02*
X8Y1010D01*
X2276Y1010D02*
X2283Y1010D01*
X1Y1009D02*
X8Y1009D01*
X2276Y1009D02*
X2283Y1009D01*
X1Y1008D02*
X8Y1008D01*
X2276Y1008D02*
X2283Y1008D01*
X1Y1007D02*
X8Y1007D01*
X2276Y1007D02*
X2283Y1007D01*
X1Y1006D02*
X8Y1006D01*
X2276Y1006D02*
X2283Y1006D01*
X1Y1005D02*
X8Y1005D01*
X2276Y1005D02*
X2283Y1005D01*
X1Y1004D02*
X8Y1004D01*
X2276Y1004D02*
X2283Y1004D01*
X1Y1003D02*
X8Y1003D01*
X2276Y1003D02*
X2283Y1003D01*
X1Y1002D02*
X8Y1002D01*
X2276Y1002D02*
X2283Y1002D01*
X1Y1001D02*
X8Y1001D01*
X2276Y1001D02*
X2283Y1001D01*
X1Y1000D02*
X8Y1000D01*
X2276Y1000D02*
X2283Y1000D01*
X1Y999D02*
X8Y999D01*
X2276Y999D02*
X2283Y999D01*
X1Y998D02*
X8Y998D01*
X2276Y998D02*
X2283Y998D01*
X1Y997D02*
X8Y997D01*
X2276Y997D02*
X2283Y997D01*
X1Y996D02*
X8Y996D01*
X2276Y996D02*
X2283Y996D01*
X1Y995D02*
X8Y995D01*
X2276Y995D02*
X2283Y995D01*
X1Y994D02*
X8Y994D01*
X2276Y994D02*
X2283Y994D01*
X1Y993D02*
X8Y993D01*
X2276Y993D02*
X2283Y993D01*
X1Y992D02*
X8Y992D01*
X2276Y992D02*
X2283Y992D01*
X1Y991D02*
X8Y991D01*
X2276Y991D02*
X2283Y991D01*
X1Y990D02*
X8Y990D01*
X2276Y990D02*
X2283Y990D01*
X1Y989D02*
X8Y989D01*
X2276Y989D02*
X2283Y989D01*
X1Y988D02*
X8Y988D01*
X2276Y988D02*
X2283Y988D01*
X1Y987D02*
X8Y987D01*
X2276Y987D02*
X2283Y987D01*
X1Y986D02*
X8Y986D01*
X2276Y986D02*
X2283Y986D01*
X1Y985D02*
X8Y985D01*
X2276Y985D02*
X2283Y985D01*
X1Y984D02*
X8Y984D01*
X2276Y984D02*
X2283Y984D01*
X1Y983D02*
X8Y983D01*
X2276Y983D02*
X2283Y983D01*
X1Y982D02*
X8Y982D01*
X2276Y982D02*
X2283Y982D01*
X1Y981D02*
X8Y981D01*
X2276Y981D02*
X2283Y981D01*
X1Y980D02*
X8Y980D01*
X2276Y980D02*
X2283Y980D01*
X1Y979D02*
X8Y979D01*
X2276Y979D02*
X2283Y979D01*
X1Y978D02*
X8Y978D01*
X2276Y978D02*
X2283Y978D01*
X1Y977D02*
X8Y977D01*
X2276Y977D02*
X2283Y977D01*
X1Y976D02*
X8Y976D01*
X2276Y976D02*
X2283Y976D01*
X1Y975D02*
X8Y975D01*
X2276Y975D02*
X2283Y975D01*
X1Y974D02*
X8Y974D01*
X2276Y974D02*
X2283Y974D01*
X1Y973D02*
X8Y973D01*
X2276Y973D02*
X2283Y973D01*
X1Y972D02*
X8Y972D01*
X2276Y972D02*
X2283Y972D01*
X1Y971D02*
X8Y971D01*
X2276Y971D02*
X2283Y971D01*
X1Y970D02*
X8Y970D01*
X2276Y970D02*
X2283Y970D01*
X1Y969D02*
X8Y969D01*
X2276Y969D02*
X2283Y969D01*
X1Y968D02*
X8Y968D01*
X2276Y968D02*
X2283Y968D01*
X1Y967D02*
X8Y967D01*
X2276Y967D02*
X2283Y967D01*
X1Y966D02*
X8Y966D01*
X2276Y966D02*
X2283Y966D01*
X1Y965D02*
X8Y965D01*
X2276Y965D02*
X2283Y965D01*
X1Y964D02*
X8Y964D01*
X2276Y964D02*
X2283Y964D01*
X1Y963D02*
X8Y963D01*
X2276Y963D02*
X2283Y963D01*
X1Y962D02*
X8Y962D01*
X2276Y962D02*
X2283Y962D01*
X1Y961D02*
X8Y961D01*
X2276Y961D02*
X2283Y961D01*
X1Y960D02*
X8Y960D01*
X2276Y960D02*
X2283Y960D01*
X1Y959D02*
X8Y959D01*
X2276Y959D02*
X2283Y959D01*
X1Y958D02*
X8Y958D01*
X2276Y958D02*
X2283Y958D01*
X1Y957D02*
X8Y957D01*
X2276Y957D02*
X2283Y957D01*
X1Y956D02*
X8Y956D01*
X2276Y956D02*
X2283Y956D01*
X1Y955D02*
X8Y955D01*
X2276Y955D02*
X2283Y955D01*
X1Y954D02*
X8Y954D01*
X2276Y954D02*
X2283Y954D01*
X1Y953D02*
X8Y953D01*
X2276Y953D02*
X2283Y953D01*
X1Y952D02*
X8Y952D01*
X2276Y952D02*
X2283Y952D01*
X1Y951D02*
X8Y951D01*
X2276Y951D02*
X2283Y951D01*
X1Y950D02*
X8Y950D01*
X2276Y950D02*
X2283Y950D01*
X1Y949D02*
X8Y949D01*
X2276Y949D02*
X2283Y949D01*
X1Y948D02*
X8Y948D01*
X2276Y948D02*
X2283Y948D01*
X1Y947D02*
X8Y947D01*
X2276Y947D02*
X2283Y947D01*
X1Y946D02*
X8Y946D01*
X2276Y946D02*
X2283Y946D01*
X1Y945D02*
X8Y945D01*
X2276Y945D02*
X2283Y945D01*
X1Y944D02*
X8Y944D01*
X2276Y944D02*
X2283Y944D01*
X1Y943D02*
X8Y943D01*
X2276Y943D02*
X2283Y943D01*
X1Y942D02*
X8Y942D01*
X2276Y942D02*
X2283Y942D01*
X1Y941D02*
X8Y941D01*
X2276Y941D02*
X2283Y941D01*
X1Y940D02*
X8Y940D01*
X2276Y940D02*
X2283Y940D01*
X1Y939D02*
X8Y939D01*
X2276Y939D02*
X2283Y939D01*
X1Y938D02*
X8Y938D01*
X2276Y938D02*
X2283Y938D01*
X1Y937D02*
X8Y937D01*
X2276Y937D02*
X2283Y937D01*
X1Y936D02*
X8Y936D01*
X2276Y936D02*
X2283Y936D01*
X1Y935D02*
X8Y935D01*
X2276Y935D02*
X2283Y935D01*
X1Y934D02*
X8Y934D01*
X2276Y934D02*
X2283Y934D01*
X1Y933D02*
X8Y933D01*
X2276Y933D02*
X2283Y933D01*
X1Y932D02*
X8Y932D01*
X2276Y932D02*
X2283Y932D01*
X1Y931D02*
X8Y931D01*
X2276Y931D02*
X2283Y931D01*
X1Y930D02*
X8Y930D01*
X2276Y930D02*
X2283Y930D01*
X1Y929D02*
X8Y929D01*
X2276Y929D02*
X2283Y929D01*
X1Y928D02*
X8Y928D01*
X2276Y928D02*
X2283Y928D01*
X1Y927D02*
X8Y927D01*
X2276Y927D02*
X2283Y927D01*
X1Y926D02*
X8Y926D01*
X2276Y926D02*
X2283Y926D01*
X1Y925D02*
X8Y925D01*
X2276Y925D02*
X2283Y925D01*
X1Y924D02*
X8Y924D01*
X2276Y924D02*
X2283Y924D01*
X1Y923D02*
X8Y923D01*
X2276Y923D02*
X2283Y923D01*
X1Y922D02*
X8Y922D01*
X2276Y922D02*
X2283Y922D01*
X1Y921D02*
X8Y921D01*
X2276Y921D02*
X2283Y921D01*
X1Y920D02*
X8Y920D01*
X2276Y920D02*
X2283Y920D01*
X1Y919D02*
X8Y919D01*
X2276Y919D02*
X2283Y919D01*
X1Y918D02*
X8Y918D01*
X2276Y918D02*
X2283Y918D01*
X1Y917D02*
X8Y917D01*
X2276Y917D02*
X2283Y917D01*
X1Y916D02*
X8Y916D01*
X2276Y916D02*
X2283Y916D01*
X1Y915D02*
X8Y915D01*
X2276Y915D02*
X2283Y915D01*
X1Y914D02*
X8Y914D01*
X2276Y914D02*
X2283Y914D01*
X1Y913D02*
X8Y913D01*
X2276Y913D02*
X2283Y913D01*
X1Y912D02*
X8Y912D01*
X2276Y912D02*
X2283Y912D01*
X1Y911D02*
X8Y911D01*
X2276Y911D02*
X2283Y911D01*
X1Y910D02*
X8Y910D01*
X2276Y910D02*
X2283Y910D01*
X1Y909D02*
X8Y909D01*
X2276Y909D02*
X2283Y909D01*
X1Y908D02*
X8Y908D01*
X2276Y908D02*
X2283Y908D01*
X1Y907D02*
X8Y907D01*
X2276Y907D02*
X2283Y907D01*
X1Y906D02*
X8Y906D01*
X2276Y906D02*
X2283Y906D01*
X1Y905D02*
X8Y905D01*
X2276Y905D02*
X2283Y905D01*
X1Y904D02*
X8Y904D01*
X2276Y904D02*
X2283Y904D01*
X1Y903D02*
X8Y903D01*
X2276Y903D02*
X2283Y903D01*
X1Y902D02*
X8Y902D01*
X2276Y902D02*
X2283Y902D01*
X1Y901D02*
X8Y901D01*
X2276Y901D02*
X2283Y901D01*
X1Y900D02*
X8Y900D01*
X2276Y900D02*
X2283Y900D01*
X1Y899D02*
X8Y899D01*
X2276Y899D02*
X2283Y899D01*
X1Y898D02*
X8Y898D01*
X2276Y898D02*
X2283Y898D01*
X1Y897D02*
X8Y897D01*
X2276Y897D02*
X2283Y897D01*
X1Y896D02*
X8Y896D01*
X2276Y896D02*
X2283Y896D01*
X1Y895D02*
X8Y895D01*
X2276Y895D02*
X2283Y895D01*
X1Y894D02*
X8Y894D01*
X2276Y894D02*
X2283Y894D01*
X1Y893D02*
X8Y893D01*
X2276Y893D02*
X2283Y893D01*
X1Y892D02*
X8Y892D01*
X2276Y892D02*
X2283Y892D01*
X1Y891D02*
X8Y891D01*
X2276Y891D02*
X2283Y891D01*
X1Y890D02*
X8Y890D01*
X2276Y890D02*
X2283Y890D01*
X1Y889D02*
X8Y889D01*
X2276Y889D02*
X2283Y889D01*
X1Y888D02*
X8Y888D01*
X2276Y888D02*
X2283Y888D01*
X1Y887D02*
X8Y887D01*
X2276Y887D02*
X2283Y887D01*
X1Y886D02*
X8Y886D01*
X2276Y886D02*
X2283Y886D01*
X1Y885D02*
X8Y885D01*
X2276Y885D02*
X2283Y885D01*
X1Y884D02*
X8Y884D01*
X2276Y884D02*
X2283Y884D01*
X1Y883D02*
X8Y883D01*
X2276Y883D02*
X2283Y883D01*
X1Y882D02*
X8Y882D01*
X2276Y882D02*
X2283Y882D01*
X1Y881D02*
X8Y881D01*
X2276Y881D02*
X2283Y881D01*
X1Y880D02*
X8Y880D01*
X2276Y880D02*
X2283Y880D01*
X1Y879D02*
X8Y879D01*
X2276Y879D02*
X2283Y879D01*
X1Y878D02*
X8Y878D01*
X2276Y878D02*
X2283Y878D01*
X1Y877D02*
X8Y877D01*
X2276Y877D02*
X2283Y877D01*
X1Y876D02*
X8Y876D01*
X2276Y876D02*
X2283Y876D01*
X1Y875D02*
X8Y875D01*
X2276Y875D02*
X2283Y875D01*
X1Y874D02*
X8Y874D01*
X2276Y874D02*
X2283Y874D01*
X1Y873D02*
X8Y873D01*
X2276Y873D02*
X2283Y873D01*
X1Y872D02*
X8Y872D01*
X2276Y872D02*
X2283Y872D01*
X1Y871D02*
X8Y871D01*
X2276Y871D02*
X2283Y871D01*
X1Y870D02*
X8Y870D01*
X2276Y870D02*
X2283Y870D01*
X1Y869D02*
X8Y869D01*
X2276Y869D02*
X2283Y869D01*
X1Y868D02*
X8Y868D01*
X2276Y868D02*
X2283Y868D01*
X1Y867D02*
X8Y867D01*
X2276Y867D02*
X2283Y867D01*
X1Y866D02*
X8Y866D01*
X2276Y866D02*
X2283Y866D01*
X1Y865D02*
X8Y865D01*
X2276Y865D02*
X2283Y865D01*
X1Y864D02*
X8Y864D01*
X2276Y864D02*
X2283Y864D01*
X1Y863D02*
X8Y863D01*
X2276Y863D02*
X2283Y863D01*
X1Y862D02*
X8Y862D01*
X2276Y862D02*
X2283Y862D01*
X1Y861D02*
X8Y861D01*
X2276Y861D02*
X2283Y861D01*
X1Y860D02*
X8Y860D01*
X2276Y860D02*
X2283Y860D01*
X1Y859D02*
X8Y859D01*
X2276Y859D02*
X2283Y859D01*
X1Y858D02*
X8Y858D01*
X2276Y858D02*
X2283Y858D01*
X1Y857D02*
X8Y857D01*
X2276Y857D02*
X2283Y857D01*
X1Y856D02*
X8Y856D01*
X2276Y856D02*
X2283Y856D01*
X1Y855D02*
X8Y855D01*
X2276Y855D02*
X2283Y855D01*
X1Y854D02*
X8Y854D01*
X2276Y854D02*
X2283Y854D01*
X1Y853D02*
X8Y853D01*
X2276Y853D02*
X2283Y853D01*
X1Y852D02*
X8Y852D01*
X2276Y852D02*
X2283Y852D01*
X1Y851D02*
X8Y851D01*
X2276Y851D02*
X2283Y851D01*
X1Y850D02*
X8Y850D01*
X2276Y850D02*
X2283Y850D01*
X1Y849D02*
X8Y849D01*
X2276Y849D02*
X2283Y849D01*
X1Y848D02*
X8Y848D01*
X2276Y848D02*
X2283Y848D01*
X1Y847D02*
X8Y847D01*
X2276Y847D02*
X2283Y847D01*
X1Y846D02*
X8Y846D01*
X2276Y846D02*
X2283Y846D01*
X1Y845D02*
X8Y845D01*
X2276Y845D02*
X2283Y845D01*
X1Y844D02*
X8Y844D01*
X2276Y844D02*
X2283Y844D01*
X1Y843D02*
X8Y843D01*
X2276Y843D02*
X2283Y843D01*
X1Y842D02*
X8Y842D01*
X2276Y842D02*
X2283Y842D01*
X1Y841D02*
X8Y841D01*
X2276Y841D02*
X2283Y841D01*
X1Y840D02*
X8Y840D01*
X2276Y840D02*
X2283Y840D01*
X1Y839D02*
X8Y839D01*
X2276Y839D02*
X2283Y839D01*
X1Y838D02*
X8Y838D01*
X2276Y838D02*
X2283Y838D01*
X1Y837D02*
X8Y837D01*
X2276Y837D02*
X2283Y837D01*
X1Y836D02*
X8Y836D01*
X2276Y836D02*
X2283Y836D01*
X1Y835D02*
X8Y835D01*
X2276Y835D02*
X2283Y835D01*
X1Y834D02*
X8Y834D01*
X2276Y834D02*
X2283Y834D01*
X1Y833D02*
X8Y833D01*
X2276Y833D02*
X2283Y833D01*
X1Y832D02*
X8Y832D01*
X2276Y832D02*
X2283Y832D01*
X1Y831D02*
X8Y831D01*
X2276Y831D02*
X2283Y831D01*
X1Y830D02*
X8Y830D01*
X2276Y830D02*
X2283Y830D01*
X1Y829D02*
X8Y829D01*
X2276Y829D02*
X2283Y829D01*
X1Y828D02*
X8Y828D01*
X2276Y828D02*
X2283Y828D01*
X1Y827D02*
X8Y827D01*
X2276Y827D02*
X2283Y827D01*
X1Y826D02*
X8Y826D01*
X2276Y826D02*
X2283Y826D01*
X1Y825D02*
X8Y825D01*
X2276Y825D02*
X2283Y825D01*
X1Y824D02*
X8Y824D01*
X2276Y824D02*
X2283Y824D01*
X1Y823D02*
X8Y823D01*
X2276Y823D02*
X2283Y823D01*
X1Y822D02*
X8Y822D01*
X2276Y822D02*
X2283Y822D01*
X1Y821D02*
X8Y821D01*
X2276Y821D02*
X2283Y821D01*
X1Y820D02*
X8Y820D01*
X2276Y820D02*
X2283Y820D01*
X1Y819D02*
X8Y819D01*
X2276Y819D02*
X2283Y819D01*
X1Y818D02*
X8Y818D01*
X2276Y818D02*
X2283Y818D01*
X1Y817D02*
X8Y817D01*
X2276Y817D02*
X2283Y817D01*
X1Y816D02*
X8Y816D01*
X2276Y816D02*
X2283Y816D01*
X1Y815D02*
X8Y815D01*
X2276Y815D02*
X2283Y815D01*
X1Y814D02*
X8Y814D01*
X2276Y814D02*
X2283Y814D01*
X1Y813D02*
X8Y813D01*
X2276Y813D02*
X2283Y813D01*
X1Y812D02*
X8Y812D01*
X2276Y812D02*
X2283Y812D01*
X1Y811D02*
X8Y811D01*
X2276Y811D02*
X2283Y811D01*
X1Y810D02*
X8Y810D01*
X2276Y810D02*
X2283Y810D01*
X1Y809D02*
X8Y809D01*
X2276Y809D02*
X2283Y809D01*
X1Y808D02*
X8Y808D01*
X2276Y808D02*
X2283Y808D01*
X1Y807D02*
X8Y807D01*
X2276Y807D02*
X2283Y807D01*
X1Y806D02*
X8Y806D01*
X2276Y806D02*
X2283Y806D01*
X1Y805D02*
X8Y805D01*
X2276Y805D02*
X2283Y805D01*
X1Y804D02*
X8Y804D01*
X2276Y804D02*
X2283Y804D01*
X1Y803D02*
X8Y803D01*
X2276Y803D02*
X2283Y803D01*
X1Y802D02*
X8Y802D01*
X2189Y802D02*
X2189Y802D01*
X2276Y802D02*
X2283Y802D01*
X1Y801D02*
X8Y801D01*
X2188Y801D02*
X2190Y801D01*
X2276Y801D02*
X2283Y801D01*
X1Y800D02*
X8Y800D01*
X2187Y800D02*
X2191Y800D01*
X2276Y800D02*
X2283Y800D01*
X1Y799D02*
X8Y799D01*
X2186Y799D02*
X2192Y799D01*
X2276Y799D02*
X2283Y799D01*
X1Y798D02*
X8Y798D01*
X2187Y798D02*
X2193Y798D01*
X2276Y798D02*
X2283Y798D01*
X1Y797D02*
X8Y797D01*
X2188Y797D02*
X2194Y797D01*
X2276Y797D02*
X2283Y797D01*
X1Y796D02*
X8Y796D01*
X2189Y796D02*
X2195Y796D01*
X2276Y796D02*
X2283Y796D01*
X1Y795D02*
X8Y795D01*
X2190Y795D02*
X2196Y795D01*
X2276Y795D02*
X2283Y795D01*
X1Y794D02*
X8Y794D01*
X2191Y794D02*
X2197Y794D01*
X2276Y794D02*
X2283Y794D01*
X1Y793D02*
X8Y793D01*
X2192Y793D02*
X2198Y793D01*
X2276Y793D02*
X2283Y793D01*
X1Y792D02*
X8Y792D01*
X2193Y792D02*
X2199Y792D01*
X2276Y792D02*
X2283Y792D01*
X1Y791D02*
X8Y791D01*
X2194Y791D02*
X2200Y791D01*
X2276Y791D02*
X2283Y791D01*
X1Y790D02*
X8Y790D01*
X2195Y790D02*
X2201Y790D01*
X2276Y790D02*
X2283Y790D01*
X1Y789D02*
X8Y789D01*
X2196Y789D02*
X2202Y789D01*
X2276Y789D02*
X2283Y789D01*
X1Y788D02*
X8Y788D01*
X2197Y788D02*
X2203Y788D01*
X2276Y788D02*
X2283Y788D01*
X1Y787D02*
X8Y787D01*
X2198Y787D02*
X2204Y787D01*
X2276Y787D02*
X2283Y787D01*
X1Y786D02*
X8Y786D01*
X2199Y786D02*
X2205Y786D01*
X2276Y786D02*
X2283Y786D01*
X1Y785D02*
X8Y785D01*
X2201Y785D02*
X2206Y785D01*
X2276Y785D02*
X2283Y785D01*
X1Y784D02*
X8Y784D01*
X2202Y784D02*
X2207Y784D01*
X2276Y784D02*
X2283Y784D01*
X1Y783D02*
X8Y783D01*
X2203Y783D02*
X2208Y783D01*
X2276Y783D02*
X2283Y783D01*
X1Y782D02*
X8Y782D01*
X2204Y782D02*
X2209Y782D01*
X2276Y782D02*
X2283Y782D01*
X1Y781D02*
X8Y781D01*
X2205Y781D02*
X2210Y781D01*
X2276Y781D02*
X2283Y781D01*
X1Y780D02*
X8Y780D01*
X2206Y780D02*
X2211Y780D01*
X2276Y780D02*
X2283Y780D01*
X1Y779D02*
X8Y779D01*
X2207Y779D02*
X2212Y779D01*
X2276Y779D02*
X2283Y779D01*
X1Y778D02*
X8Y778D01*
X2207Y778D02*
X2213Y778D01*
X2276Y778D02*
X2283Y778D01*
X1Y777D02*
X8Y777D01*
X2208Y777D02*
X2214Y777D01*
X2276Y777D02*
X2283Y777D01*
X1Y776D02*
X8Y776D01*
X2209Y776D02*
X2215Y776D01*
X2276Y776D02*
X2283Y776D01*
X1Y775D02*
X8Y775D01*
X2210Y775D02*
X2216Y775D01*
X2276Y775D02*
X2283Y775D01*
X1Y774D02*
X8Y774D01*
X2211Y774D02*
X2217Y774D01*
X2276Y774D02*
X2283Y774D01*
X1Y773D02*
X8Y773D01*
X2212Y773D02*
X2218Y773D01*
X2276Y773D02*
X2283Y773D01*
X1Y772D02*
X8Y772D01*
X2213Y772D02*
X2219Y772D01*
X2276Y772D02*
X2283Y772D01*
X1Y771D02*
X8Y771D01*
X2214Y771D02*
X2220Y771D01*
X2276Y771D02*
X2283Y771D01*
X1Y770D02*
X8Y770D01*
X2215Y770D02*
X2221Y770D01*
X2276Y770D02*
X2283Y770D01*
X1Y769D02*
X8Y769D01*
X2216Y769D02*
X2222Y769D01*
X2276Y769D02*
X2283Y769D01*
X1Y768D02*
X8Y768D01*
X2217Y768D02*
X2223Y768D01*
X2276Y768D02*
X2283Y768D01*
X1Y767D02*
X8Y767D01*
X2218Y767D02*
X2223Y767D01*
X2276Y767D02*
X2283Y767D01*
X1Y766D02*
X8Y766D01*
X2219Y766D02*
X2222Y766D01*
X2276Y766D02*
X2283Y766D01*
X1Y765D02*
X8Y765D01*
X2220Y765D02*
X2221Y765D01*
X2276Y765D02*
X2283Y765D01*
X1Y764D02*
X8Y764D01*
X2276Y764D02*
X2283Y764D01*
X1Y763D02*
X8Y763D01*
X2276Y763D02*
X2283Y763D01*
X1Y762D02*
X8Y762D01*
X2276Y762D02*
X2283Y762D01*
X1Y761D02*
X8Y761D01*
X2276Y761D02*
X2283Y761D01*
X1Y760D02*
X8Y760D01*
X2276Y760D02*
X2283Y760D01*
X1Y759D02*
X8Y759D01*
X2276Y759D02*
X2283Y759D01*
X1Y758D02*
X8Y758D01*
X2276Y758D02*
X2283Y758D01*
X1Y757D02*
X8Y757D01*
X2276Y757D02*
X2283Y757D01*
X1Y756D02*
X8Y756D01*
X2276Y756D02*
X2283Y756D01*
X1Y755D02*
X8Y755D01*
X2276Y755D02*
X2283Y755D01*
X1Y754D02*
X8Y754D01*
X2276Y754D02*
X2283Y754D01*
X1Y753D02*
X8Y753D01*
X2276Y753D02*
X2283Y753D01*
X1Y752D02*
X8Y752D01*
X2276Y752D02*
X2283Y752D01*
X1Y751D02*
X8Y751D01*
X2276Y751D02*
X2283Y751D01*
X1Y750D02*
X8Y750D01*
X2276Y750D02*
X2283Y750D01*
X1Y749D02*
X8Y749D01*
X2276Y749D02*
X2283Y749D01*
X1Y748D02*
X8Y748D01*
X2276Y748D02*
X2283Y748D01*
X1Y747D02*
X8Y747D01*
X2276Y747D02*
X2283Y747D01*
X1Y746D02*
X8Y746D01*
X2276Y746D02*
X2283Y746D01*
X1Y745D02*
X8Y745D01*
X2276Y745D02*
X2283Y745D01*
X1Y744D02*
X8Y744D01*
X2276Y744D02*
X2283Y744D01*
X1Y743D02*
X8Y743D01*
X2276Y743D02*
X2283Y743D01*
X1Y742D02*
X8Y742D01*
X2276Y742D02*
X2283Y742D01*
X1Y741D02*
X8Y741D01*
X2276Y741D02*
X2283Y741D01*
X1Y740D02*
X8Y740D01*
X2276Y740D02*
X2283Y740D01*
X1Y739D02*
X8Y739D01*
X2276Y739D02*
X2283Y739D01*
X1Y738D02*
X8Y738D01*
X2276Y738D02*
X2283Y738D01*
X1Y737D02*
X8Y737D01*
X2276Y737D02*
X2283Y737D01*
X1Y736D02*
X8Y736D01*
X2276Y736D02*
X2283Y736D01*
X1Y735D02*
X8Y735D01*
X2276Y735D02*
X2283Y735D01*
X1Y734D02*
X8Y734D01*
X2276Y734D02*
X2283Y734D01*
X1Y733D02*
X8Y733D01*
X2276Y733D02*
X2283Y733D01*
X1Y732D02*
X8Y732D01*
X2276Y732D02*
X2283Y732D01*
X1Y731D02*
X8Y731D01*
X2276Y731D02*
X2283Y731D01*
X1Y730D02*
X8Y730D01*
X2276Y730D02*
X2283Y730D01*
X1Y729D02*
X8Y729D01*
X2276Y729D02*
X2283Y729D01*
X1Y728D02*
X8Y728D01*
X2276Y728D02*
X2283Y728D01*
X1Y727D02*
X8Y727D01*
X2276Y727D02*
X2283Y727D01*
X1Y726D02*
X8Y726D01*
X2276Y726D02*
X2283Y726D01*
X1Y725D02*
X8Y725D01*
X2276Y725D02*
X2283Y725D01*
X1Y724D02*
X8Y724D01*
X2276Y724D02*
X2283Y724D01*
X1Y723D02*
X8Y723D01*
X2276Y723D02*
X2283Y723D01*
X1Y722D02*
X8Y722D01*
X2276Y722D02*
X2283Y722D01*
X1Y721D02*
X8Y721D01*
X2276Y721D02*
X2283Y721D01*
X1Y720D02*
X8Y720D01*
X2276Y720D02*
X2283Y720D01*
X1Y719D02*
X8Y719D01*
X2276Y719D02*
X2283Y719D01*
X1Y718D02*
X8Y718D01*
X2276Y718D02*
X2283Y718D01*
X1Y717D02*
X8Y717D01*
X2276Y717D02*
X2283Y717D01*
X1Y716D02*
X8Y716D01*
X2276Y716D02*
X2283Y716D01*
X1Y715D02*
X8Y715D01*
X2276Y715D02*
X2283Y715D01*
X1Y714D02*
X8Y714D01*
X2276Y714D02*
X2283Y714D01*
X1Y713D02*
X8Y713D01*
X2276Y713D02*
X2283Y713D01*
X1Y712D02*
X8Y712D01*
X2276Y712D02*
X2283Y712D01*
X1Y711D02*
X8Y711D01*
X2276Y711D02*
X2283Y711D01*
X1Y710D02*
X8Y710D01*
X2276Y710D02*
X2283Y710D01*
X1Y709D02*
X8Y709D01*
X2276Y709D02*
X2283Y709D01*
X1Y708D02*
X8Y708D01*
X2276Y708D02*
X2283Y708D01*
X1Y707D02*
X8Y707D01*
X2276Y707D02*
X2283Y707D01*
X1Y706D02*
X8Y706D01*
X2276Y706D02*
X2283Y706D01*
X1Y705D02*
X8Y705D01*
X2276Y705D02*
X2283Y705D01*
X1Y704D02*
X8Y704D01*
X2276Y704D02*
X2283Y704D01*
X1Y703D02*
X8Y703D01*
X2276Y703D02*
X2283Y703D01*
X1Y702D02*
X8Y702D01*
X2276Y702D02*
X2283Y702D01*
X1Y701D02*
X8Y701D01*
X2276Y701D02*
X2283Y701D01*
X1Y700D02*
X8Y700D01*
X2276Y700D02*
X2283Y700D01*
X1Y699D02*
X8Y699D01*
X2276Y699D02*
X2283Y699D01*
X1Y698D02*
X8Y698D01*
X2276Y698D02*
X2283Y698D01*
X1Y697D02*
X8Y697D01*
X2276Y697D02*
X2283Y697D01*
X1Y696D02*
X8Y696D01*
X2276Y696D02*
X2283Y696D01*
X1Y695D02*
X8Y695D01*
X2276Y695D02*
X2283Y695D01*
X1Y694D02*
X8Y694D01*
X2276Y694D02*
X2283Y694D01*
X1Y693D02*
X8Y693D01*
X2276Y693D02*
X2283Y693D01*
X1Y692D02*
X8Y692D01*
X2276Y692D02*
X2283Y692D01*
X1Y691D02*
X8Y691D01*
X2276Y691D02*
X2283Y691D01*
X1Y690D02*
X8Y690D01*
X2276Y690D02*
X2283Y690D01*
X1Y689D02*
X8Y689D01*
X2276Y689D02*
X2283Y689D01*
X1Y688D02*
X8Y688D01*
X2276Y688D02*
X2283Y688D01*
X1Y687D02*
X8Y687D01*
X2276Y687D02*
X2283Y687D01*
X1Y686D02*
X8Y686D01*
X2276Y686D02*
X2283Y686D01*
X1Y685D02*
X8Y685D01*
X2276Y685D02*
X2283Y685D01*
X1Y684D02*
X8Y684D01*
X2276Y684D02*
X2283Y684D01*
X1Y683D02*
X8Y683D01*
X2276Y683D02*
X2283Y683D01*
X1Y682D02*
X8Y682D01*
X2276Y682D02*
X2283Y682D01*
X1Y681D02*
X8Y681D01*
X2276Y681D02*
X2283Y681D01*
X1Y680D02*
X8Y680D01*
X2276Y680D02*
X2283Y680D01*
X1Y679D02*
X8Y679D01*
X2276Y679D02*
X2283Y679D01*
X1Y678D02*
X8Y678D01*
X2276Y678D02*
X2283Y678D01*
X1Y677D02*
X8Y677D01*
X2276Y677D02*
X2283Y677D01*
X1Y676D02*
X8Y676D01*
X2276Y676D02*
X2283Y676D01*
X1Y675D02*
X8Y675D01*
X2276Y675D02*
X2283Y675D01*
X1Y674D02*
X8Y674D01*
X2276Y674D02*
X2283Y674D01*
X1Y673D02*
X8Y673D01*
X2276Y673D02*
X2283Y673D01*
X1Y672D02*
X8Y672D01*
X2276Y672D02*
X2283Y672D01*
X1Y671D02*
X8Y671D01*
X2276Y671D02*
X2283Y671D01*
X1Y670D02*
X8Y670D01*
X2276Y670D02*
X2283Y670D01*
X1Y669D02*
X8Y669D01*
X2276Y669D02*
X2283Y669D01*
X1Y668D02*
X8Y668D01*
X2276Y668D02*
X2283Y668D01*
X1Y667D02*
X8Y667D01*
X2276Y667D02*
X2283Y667D01*
X1Y666D02*
X8Y666D01*
X2276Y666D02*
X2283Y666D01*
X1Y665D02*
X8Y665D01*
X2276Y665D02*
X2283Y665D01*
X1Y664D02*
X8Y664D01*
X2276Y664D02*
X2283Y664D01*
X1Y663D02*
X8Y663D01*
X2276Y663D02*
X2283Y663D01*
X1Y662D02*
X8Y662D01*
X2276Y662D02*
X2283Y662D01*
X1Y661D02*
X8Y661D01*
X2276Y661D02*
X2283Y661D01*
X1Y660D02*
X8Y660D01*
X2276Y660D02*
X2283Y660D01*
X1Y659D02*
X8Y659D01*
X2276Y659D02*
X2283Y659D01*
X1Y658D02*
X8Y658D01*
X2276Y658D02*
X2283Y658D01*
X1Y657D02*
X8Y657D01*
X2276Y657D02*
X2283Y657D01*
X1Y656D02*
X8Y656D01*
X2276Y656D02*
X2283Y656D01*
X1Y655D02*
X8Y655D01*
X2276Y655D02*
X2283Y655D01*
X1Y654D02*
X8Y654D01*
X2276Y654D02*
X2283Y654D01*
X1Y653D02*
X8Y653D01*
X2276Y653D02*
X2283Y653D01*
X1Y652D02*
X8Y652D01*
X2276Y652D02*
X2283Y652D01*
X1Y651D02*
X8Y651D01*
X2276Y651D02*
X2283Y651D01*
X1Y650D02*
X8Y650D01*
X2276Y650D02*
X2283Y650D01*
X1Y649D02*
X8Y649D01*
X2276Y649D02*
X2283Y649D01*
X1Y648D02*
X8Y648D01*
X2276Y648D02*
X2283Y648D01*
X1Y647D02*
X8Y647D01*
X2276Y647D02*
X2283Y647D01*
X1Y646D02*
X8Y646D01*
X2276Y646D02*
X2283Y646D01*
X1Y645D02*
X8Y645D01*
X2276Y645D02*
X2283Y645D01*
X1Y644D02*
X8Y644D01*
X2276Y644D02*
X2283Y644D01*
X1Y643D02*
X8Y643D01*
X2276Y643D02*
X2283Y643D01*
X1Y642D02*
X8Y642D01*
X2276Y642D02*
X2283Y642D01*
X1Y641D02*
X8Y641D01*
X2276Y641D02*
X2283Y641D01*
X1Y640D02*
X8Y640D01*
X2276Y640D02*
X2283Y640D01*
X1Y639D02*
X8Y639D01*
X2276Y639D02*
X2283Y639D01*
X1Y638D02*
X8Y638D01*
X2276Y638D02*
X2283Y638D01*
X1Y637D02*
X8Y637D01*
X2276Y637D02*
X2283Y637D01*
X1Y636D02*
X8Y636D01*
X2276Y636D02*
X2283Y636D01*
X1Y635D02*
X8Y635D01*
X2276Y635D02*
X2283Y635D01*
X1Y634D02*
X8Y634D01*
X2276Y634D02*
X2283Y634D01*
X1Y633D02*
X8Y633D01*
X2276Y633D02*
X2283Y633D01*
X1Y632D02*
X8Y632D01*
X2276Y632D02*
X2283Y632D01*
X1Y631D02*
X8Y631D01*
X2276Y631D02*
X2283Y631D01*
X1Y630D02*
X8Y630D01*
X2276Y630D02*
X2283Y630D01*
X1Y629D02*
X8Y629D01*
X2276Y629D02*
X2283Y629D01*
X1Y628D02*
X8Y628D01*
X2276Y628D02*
X2283Y628D01*
X1Y627D02*
X8Y627D01*
X2276Y627D02*
X2283Y627D01*
X1Y626D02*
X8Y626D01*
X2276Y626D02*
X2283Y626D01*
X1Y625D02*
X8Y625D01*
X2276Y625D02*
X2283Y625D01*
X1Y624D02*
X8Y624D01*
X2276Y624D02*
X2283Y624D01*
X1Y623D02*
X8Y623D01*
X2276Y623D02*
X2283Y623D01*
X1Y622D02*
X8Y622D01*
X2276Y622D02*
X2283Y622D01*
X1Y621D02*
X8Y621D01*
X2276Y621D02*
X2283Y621D01*
X1Y620D02*
X8Y620D01*
X2276Y620D02*
X2283Y620D01*
X1Y619D02*
X8Y619D01*
X2276Y619D02*
X2283Y619D01*
X1Y618D02*
X8Y618D01*
X2276Y618D02*
X2283Y618D01*
X1Y617D02*
X8Y617D01*
X2276Y617D02*
X2283Y617D01*
X1Y616D02*
X8Y616D01*
X2276Y616D02*
X2283Y616D01*
X1Y615D02*
X8Y615D01*
X2276Y615D02*
X2283Y615D01*
X1Y614D02*
X8Y614D01*
X2276Y614D02*
X2283Y614D01*
X1Y613D02*
X8Y613D01*
X2276Y613D02*
X2283Y613D01*
X1Y612D02*
X8Y612D01*
X2276Y612D02*
X2283Y612D01*
X1Y611D02*
X8Y611D01*
X2276Y611D02*
X2283Y611D01*
X1Y610D02*
X8Y610D01*
X2276Y610D02*
X2283Y610D01*
X1Y609D02*
X8Y609D01*
X2276Y609D02*
X2283Y609D01*
X1Y608D02*
X8Y608D01*
X2276Y608D02*
X2283Y608D01*
X1Y607D02*
X8Y607D01*
X2276Y607D02*
X2283Y607D01*
X1Y606D02*
X8Y606D01*
X2276Y606D02*
X2283Y606D01*
X1Y605D02*
X8Y605D01*
X2276Y605D02*
X2283Y605D01*
X1Y604D02*
X8Y604D01*
X2276Y604D02*
X2283Y604D01*
X1Y603D02*
X8Y603D01*
X2276Y603D02*
X2283Y603D01*
X1Y602D02*
X8Y602D01*
X2276Y602D02*
X2283Y602D01*
X1Y601D02*
X8Y601D01*
X2276Y601D02*
X2283Y601D01*
X1Y600D02*
X8Y600D01*
X2276Y600D02*
X2283Y600D01*
X1Y599D02*
X8Y599D01*
X2276Y599D02*
X2283Y599D01*
X1Y598D02*
X8Y598D01*
X2276Y598D02*
X2283Y598D01*
X1Y597D02*
X8Y597D01*
X2276Y597D02*
X2283Y597D01*
X1Y596D02*
X8Y596D01*
X2276Y596D02*
X2283Y596D01*
X1Y595D02*
X8Y595D01*
X2276Y595D02*
X2283Y595D01*
X1Y594D02*
X8Y594D01*
X2276Y594D02*
X2283Y594D01*
X1Y593D02*
X8Y593D01*
X2276Y593D02*
X2283Y593D01*
X1Y592D02*
X8Y592D01*
X2276Y592D02*
X2283Y592D01*
X1Y591D02*
X8Y591D01*
X2276Y591D02*
X2283Y591D01*
X1Y590D02*
X8Y590D01*
X2276Y590D02*
X2283Y590D01*
X1Y589D02*
X8Y589D01*
X2276Y589D02*
X2283Y589D01*
X1Y588D02*
X8Y588D01*
X2276Y588D02*
X2283Y588D01*
X1Y587D02*
X8Y587D01*
X2276Y587D02*
X2283Y587D01*
X1Y586D02*
X8Y586D01*
X2276Y586D02*
X2283Y586D01*
X1Y585D02*
X8Y585D01*
X2276Y585D02*
X2283Y585D01*
X1Y584D02*
X8Y584D01*
X2276Y584D02*
X2283Y584D01*
X1Y583D02*
X8Y583D01*
X2276Y583D02*
X2283Y583D01*
X1Y582D02*
X8Y582D01*
X2276Y582D02*
X2283Y582D01*
X1Y581D02*
X8Y581D01*
X2276Y581D02*
X2283Y581D01*
X1Y580D02*
X8Y580D01*
X2276Y580D02*
X2283Y580D01*
X1Y579D02*
X8Y579D01*
X2276Y579D02*
X2283Y579D01*
X1Y578D02*
X8Y578D01*
X2276Y578D02*
X2283Y578D01*
X1Y577D02*
X8Y577D01*
X2276Y577D02*
X2283Y577D01*
X1Y576D02*
X8Y576D01*
X2276Y576D02*
X2283Y576D01*
X1Y575D02*
X8Y575D01*
X2276Y575D02*
X2283Y575D01*
X1Y574D02*
X8Y574D01*
X2276Y574D02*
X2283Y574D01*
X1Y573D02*
X8Y573D01*
X2276Y573D02*
X2283Y573D01*
X1Y572D02*
X8Y572D01*
X2276Y572D02*
X2283Y572D01*
X1Y571D02*
X8Y571D01*
X2276Y571D02*
X2283Y571D01*
X1Y570D02*
X8Y570D01*
X2276Y570D02*
X2283Y570D01*
X1Y569D02*
X8Y569D01*
X2276Y569D02*
X2283Y569D01*
X1Y568D02*
X8Y568D01*
X2276Y568D02*
X2283Y568D01*
X1Y567D02*
X8Y567D01*
X2276Y567D02*
X2283Y567D01*
X1Y566D02*
X8Y566D01*
X2276Y566D02*
X2283Y566D01*
X1Y565D02*
X8Y565D01*
X2276Y565D02*
X2283Y565D01*
X1Y564D02*
X8Y564D01*
X2276Y564D02*
X2283Y564D01*
X1Y563D02*
X8Y563D01*
X2276Y563D02*
X2283Y563D01*
X1Y562D02*
X8Y562D01*
X2276Y562D02*
X2283Y562D01*
X1Y561D02*
X8Y561D01*
X2276Y561D02*
X2283Y561D01*
X1Y560D02*
X8Y560D01*
X2276Y560D02*
X2283Y560D01*
X1Y559D02*
X8Y559D01*
X2276Y559D02*
X2283Y559D01*
X1Y558D02*
X8Y558D01*
X2276Y558D02*
X2283Y558D01*
X1Y557D02*
X8Y557D01*
X2276Y557D02*
X2283Y557D01*
X1Y556D02*
X8Y556D01*
X2276Y556D02*
X2283Y556D01*
X1Y555D02*
X8Y555D01*
X2276Y555D02*
X2283Y555D01*
X1Y554D02*
X8Y554D01*
X2276Y554D02*
X2283Y554D01*
X1Y553D02*
X8Y553D01*
X2276Y553D02*
X2283Y553D01*
X1Y552D02*
X8Y552D01*
X2276Y552D02*
X2283Y552D01*
X1Y551D02*
X8Y551D01*
X2276Y551D02*
X2283Y551D01*
X1Y550D02*
X8Y550D01*
X2276Y550D02*
X2283Y550D01*
X1Y549D02*
X8Y549D01*
X2276Y549D02*
X2283Y549D01*
X1Y548D02*
X8Y548D01*
X2276Y548D02*
X2283Y548D01*
X1Y547D02*
X8Y547D01*
X2276Y547D02*
X2283Y547D01*
X1Y546D02*
X8Y546D01*
X2276Y546D02*
X2283Y546D01*
X1Y545D02*
X8Y545D01*
X2276Y545D02*
X2283Y545D01*
X1Y544D02*
X8Y544D01*
X2276Y544D02*
X2283Y544D01*
X1Y543D02*
X8Y543D01*
X2276Y543D02*
X2283Y543D01*
X1Y542D02*
X8Y542D01*
X2276Y542D02*
X2283Y542D01*
X1Y541D02*
X8Y541D01*
X2276Y541D02*
X2283Y541D01*
X1Y540D02*
X8Y540D01*
X2276Y540D02*
X2283Y540D01*
X1Y539D02*
X8Y539D01*
X2276Y539D02*
X2283Y539D01*
X1Y538D02*
X8Y538D01*
X2276Y538D02*
X2283Y538D01*
X1Y537D02*
X8Y537D01*
X2276Y537D02*
X2283Y537D01*
X1Y536D02*
X8Y536D01*
X2276Y536D02*
X2283Y536D01*
X1Y535D02*
X8Y535D01*
X2276Y535D02*
X2283Y535D01*
X1Y534D02*
X8Y534D01*
X2276Y534D02*
X2283Y534D01*
X1Y533D02*
X8Y533D01*
X2276Y533D02*
X2283Y533D01*
X1Y532D02*
X8Y532D01*
X2276Y532D02*
X2283Y532D01*
X1Y531D02*
X8Y531D01*
X2276Y531D02*
X2283Y531D01*
X1Y530D02*
X8Y530D01*
X2276Y530D02*
X2283Y530D01*
X1Y529D02*
X8Y529D01*
X2276Y529D02*
X2283Y529D01*
X1Y528D02*
X8Y528D01*
X2276Y528D02*
X2283Y528D01*
X1Y527D02*
X8Y527D01*
X2276Y527D02*
X2283Y527D01*
X1Y526D02*
X8Y526D01*
X2276Y526D02*
X2283Y526D01*
X1Y525D02*
X8Y525D01*
X2276Y525D02*
X2283Y525D01*
X1Y524D02*
X8Y524D01*
X2276Y524D02*
X2283Y524D01*
X1Y523D02*
X8Y523D01*
X2276Y523D02*
X2283Y523D01*
X1Y522D02*
X8Y522D01*
X2276Y522D02*
X2283Y522D01*
X1Y521D02*
X8Y521D01*
X2276Y521D02*
X2283Y521D01*
X1Y520D02*
X8Y520D01*
X2276Y520D02*
X2283Y520D01*
X1Y519D02*
X8Y519D01*
X2276Y519D02*
X2283Y519D01*
X1Y518D02*
X8Y518D01*
X2276Y518D02*
X2283Y518D01*
X1Y517D02*
X8Y517D01*
X2276Y517D02*
X2283Y517D01*
X1Y516D02*
X8Y516D01*
X2276Y516D02*
X2283Y516D01*
X1Y515D02*
X8Y515D01*
X2276Y515D02*
X2283Y515D01*
X1Y514D02*
X8Y514D01*
X2276Y514D02*
X2283Y514D01*
X1Y513D02*
X8Y513D01*
X2276Y513D02*
X2283Y513D01*
X1Y512D02*
X8Y512D01*
X2276Y512D02*
X2283Y512D01*
X1Y511D02*
X8Y511D01*
X2276Y511D02*
X2283Y511D01*
X1Y510D02*
X8Y510D01*
X1841Y510D02*
X1846Y510D01*
X2276Y510D02*
X2283Y510D01*
X1Y509D02*
X8Y509D01*
X1840Y509D02*
X1847Y509D01*
X2276Y509D02*
X2283Y509D01*
X1Y508D02*
X8Y508D01*
X1839Y508D02*
X1847Y508D01*
X2276Y508D02*
X2283Y508D01*
X1Y507D02*
X8Y507D01*
X1613Y507D02*
X1634Y507D01*
X1767Y507D02*
X1770Y507D01*
X1839Y507D02*
X1847Y507D01*
X2008Y507D02*
X2011Y507D01*
X2032Y507D02*
X2035Y507D01*
X2052Y507D02*
X2079Y507D01*
X2108Y507D02*
X2111Y507D01*
X2151Y507D02*
X2157Y507D01*
X2276Y507D02*
X2283Y507D01*
X1Y506D02*
X8Y506D01*
X1611Y506D02*
X1635Y506D01*
X1766Y506D02*
X1771Y506D01*
X1839Y506D02*
X1847Y506D01*
X2007Y506D02*
X2012Y506D01*
X2031Y506D02*
X2036Y506D01*
X2051Y506D02*
X2080Y506D01*
X2108Y506D02*
X2112Y506D01*
X2150Y506D02*
X2159Y506D01*
X2276Y506D02*
X2283Y506D01*
X1Y505D02*
X8Y505D01*
X1610Y505D02*
X1636Y505D01*
X1766Y505D02*
X1771Y505D01*
X1839Y505D02*
X1847Y505D01*
X2007Y505D02*
X2012Y505D01*
X2031Y505D02*
X2036Y505D01*
X2051Y505D02*
X2080Y505D01*
X2107Y505D02*
X2113Y505D01*
X2149Y505D02*
X2160Y505D01*
X2276Y505D02*
X2283Y505D01*
X1Y504D02*
X8Y504D01*
X1610Y504D02*
X1637Y504D01*
X1766Y504D02*
X1771Y504D01*
X1839Y504D02*
X1847Y504D01*
X2007Y504D02*
X2013Y504D01*
X2030Y504D02*
X2036Y504D01*
X2051Y504D02*
X2080Y504D01*
X2107Y504D02*
X2113Y504D01*
X2148Y504D02*
X2160Y504D01*
X2276Y504D02*
X2283Y504D01*
X1Y503D02*
X8Y503D01*
X1609Y503D02*
X1638Y503D01*
X1766Y503D02*
X1771Y503D01*
X1840Y503D02*
X1847Y503D01*
X2007Y503D02*
X2014Y503D01*
X2030Y503D02*
X2036Y503D01*
X2052Y503D02*
X2080Y503D01*
X2107Y503D02*
X2113Y503D01*
X2147Y503D02*
X2161Y503D01*
X2276Y503D02*
X2283Y503D01*
X1Y502D02*
X8Y502D01*
X1609Y502D02*
X1638Y502D01*
X1766Y502D02*
X1771Y502D01*
X1841Y502D02*
X1846Y502D01*
X2008Y502D02*
X2014Y502D01*
X2029Y502D02*
X2035Y502D01*
X2053Y502D02*
X2079Y502D01*
X2106Y502D02*
X2113Y502D01*
X2147Y502D02*
X2162Y502D01*
X2276Y502D02*
X2283Y502D01*
X1Y501D02*
X8Y501D01*
X1609Y501D02*
X1614Y501D01*
X1633Y501D02*
X1638Y501D01*
X1766Y501D02*
X1771Y501D01*
X2008Y501D02*
X2015Y501D01*
X2028Y501D02*
X2035Y501D01*
X2063Y501D02*
X2068Y501D01*
X2106Y501D02*
X2114Y501D01*
X2146Y501D02*
X2152Y501D01*
X2156Y501D02*
X2162Y501D01*
X2276Y501D02*
X2283Y501D01*
X1Y500D02*
X8Y500D01*
X1609Y500D02*
X1615Y500D01*
X1633Y500D02*
X1638Y500D01*
X1766Y500D02*
X1771Y500D01*
X2009Y500D02*
X2015Y500D01*
X2028Y500D02*
X2034Y500D01*
X2063Y500D02*
X2068Y500D01*
X2106Y500D02*
X2114Y500D01*
X2146Y500D02*
X2152Y500D01*
X2157Y500D02*
X2163Y500D01*
X2276Y500D02*
X2283Y500D01*
X1Y499D02*
X8Y499D01*
X1609Y499D02*
X1615Y499D01*
X1633Y499D02*
X1638Y499D01*
X1766Y499D02*
X1771Y499D01*
X2010Y499D02*
X2016Y499D01*
X2027Y499D02*
X2033Y499D01*
X2063Y499D02*
X2068Y499D01*
X2106Y499D02*
X2114Y499D01*
X2145Y499D02*
X2151Y499D01*
X2157Y499D02*
X2163Y499D01*
X2276Y499D02*
X2283Y499D01*
X1Y498D02*
X8Y498D01*
X1610Y498D02*
X1616Y498D01*
X1634Y498D02*
X1638Y498D01*
X1766Y498D02*
X1771Y498D01*
X2010Y498D02*
X2016Y498D01*
X2027Y498D02*
X2033Y498D01*
X2063Y498D02*
X2068Y498D01*
X2105Y498D02*
X2115Y498D01*
X2145Y498D02*
X2151Y498D01*
X2158Y498D02*
X2164Y498D01*
X2276Y498D02*
X2283Y498D01*
X1Y497D02*
X8Y497D01*
X1610Y497D02*
X1617Y497D01*
X1635Y497D02*
X1637Y497D01*
X1766Y497D02*
X1771Y497D01*
X2011Y497D02*
X2017Y497D01*
X2026Y497D02*
X2032Y497D01*
X2063Y497D02*
X2068Y497D01*
X2105Y497D02*
X2115Y497D01*
X2144Y497D02*
X2150Y497D01*
X2158Y497D02*
X2164Y497D01*
X2276Y497D02*
X2283Y497D01*
X1Y496D02*
X8Y496D01*
X1611Y496D02*
X1618Y496D01*
X1766Y496D02*
X1771Y496D01*
X2011Y496D02*
X2018Y496D01*
X2026Y496D02*
X2032Y496D01*
X2063Y496D02*
X2068Y496D01*
X2105Y496D02*
X2115Y496D01*
X2144Y496D02*
X2150Y496D01*
X2159Y496D02*
X2165Y496D01*
X2276Y496D02*
X2283Y496D01*
X1Y495D02*
X8Y495D01*
X1612Y495D02*
X1619Y495D01*
X1766Y495D02*
X1771Y495D01*
X2012Y495D02*
X2018Y495D01*
X2025Y495D02*
X2031Y495D01*
X2063Y495D02*
X2068Y495D01*
X2104Y495D02*
X2115Y495D01*
X2143Y495D02*
X2149Y495D01*
X2159Y495D02*
X2165Y495D01*
X2276Y495D02*
X2283Y495D01*
X1Y494D02*
X8Y494D01*
X1612Y494D02*
X1619Y494D01*
X1661Y494D02*
X1675Y494D01*
X1705Y494D02*
X1719Y494D01*
X1749Y494D02*
X1760Y494D01*
X1766Y494D02*
X1771Y494D01*
X1787Y494D02*
X1790Y494D01*
X1811Y494D02*
X1814Y494D01*
X1834Y494D02*
X1846Y494D01*
X1875Y494D02*
X1878Y494D01*
X1888Y494D02*
X1897Y494D01*
X1926Y494D02*
X1940Y494D01*
X2013Y494D02*
X2019Y494D01*
X2024Y494D02*
X2031Y494D01*
X2063Y494D02*
X2068Y494D01*
X2104Y494D02*
X2116Y494D01*
X2143Y494D02*
X2149Y494D01*
X2160Y494D02*
X2165Y494D01*
X2276Y494D02*
X2283Y494D01*
X1Y493D02*
X8Y493D01*
X1613Y493D02*
X1620Y493D01*
X1659Y493D02*
X1677Y493D01*
X1703Y493D02*
X1721Y493D01*
X1748Y493D02*
X1762Y493D01*
X1766Y493D02*
X1771Y493D01*
X1786Y493D02*
X1791Y493D01*
X1810Y493D02*
X1815Y493D01*
X1833Y493D02*
X1847Y493D01*
X1875Y493D02*
X1879Y493D01*
X1886Y493D02*
X1899Y493D01*
X1924Y493D02*
X1942Y493D01*
X2013Y493D02*
X2019Y493D01*
X2024Y493D02*
X2030Y493D01*
X2063Y493D02*
X2068Y493D01*
X2104Y493D02*
X2116Y493D01*
X2142Y493D02*
X2148Y493D01*
X2160Y493D02*
X2166Y493D01*
X2276Y493D02*
X2283Y493D01*
X1Y492D02*
X8Y492D01*
X1614Y492D02*
X1621Y492D01*
X1658Y492D02*
X1678Y492D01*
X1702Y492D02*
X1722Y492D01*
X1746Y492D02*
X1763Y492D01*
X1766Y492D02*
X1771Y492D01*
X1786Y492D02*
X1791Y492D01*
X1810Y492D02*
X1815Y492D01*
X1833Y492D02*
X1847Y492D01*
X1874Y492D02*
X1879Y492D01*
X1884Y492D02*
X1900Y492D01*
X1923Y492D02*
X1943Y492D01*
X2014Y492D02*
X2020Y492D01*
X2023Y492D02*
X2029Y492D01*
X2063Y492D02*
X2068Y492D01*
X2104Y492D02*
X2109Y492D01*
X2111Y492D02*
X2116Y492D01*
X2142Y492D02*
X2148Y492D01*
X2161Y492D02*
X2166Y492D01*
X2276Y492D02*
X2283Y492D01*
X1Y491D02*
X8Y491D01*
X1615Y491D02*
X1622Y491D01*
X1657Y491D02*
X1679Y491D01*
X1701Y491D02*
X1723Y491D01*
X1745Y491D02*
X1771Y491D01*
X1786Y491D02*
X1791Y491D01*
X1810Y491D02*
X1815Y491D01*
X1833Y491D02*
X1847Y491D01*
X1874Y491D02*
X1879Y491D01*
X1883Y491D02*
X1901Y491D01*
X1922Y491D02*
X1944Y491D01*
X2014Y491D02*
X2021Y491D01*
X2023Y491D02*
X2029Y491D01*
X2063Y491D02*
X2068Y491D01*
X2103Y491D02*
X2109Y491D01*
X2111Y491D02*
X2117Y491D01*
X2141Y491D02*
X2147Y491D01*
X2161Y491D02*
X2167Y491D01*
X2276Y491D02*
X2283Y491D01*
X1Y490D02*
X8Y490D01*
X1615Y490D02*
X1622Y490D01*
X1656Y490D02*
X1680Y490D01*
X1700Y490D02*
X1724Y490D01*
X1744Y490D02*
X1771Y490D01*
X1786Y490D02*
X1791Y490D01*
X1810Y490D02*
X1815Y490D01*
X1834Y490D02*
X1847Y490D01*
X1874Y490D02*
X1902Y490D01*
X1921Y490D02*
X1945Y490D01*
X2015Y490D02*
X2028Y490D01*
X2063Y490D02*
X2068Y490D01*
X2103Y490D02*
X2108Y490D01*
X2111Y490D02*
X2117Y490D01*
X2141Y490D02*
X2147Y490D01*
X2162Y490D02*
X2167Y490D01*
X2276Y490D02*
X2283Y490D01*
X1Y489D02*
X8Y489D01*
X1616Y489D02*
X1623Y489D01*
X1655Y489D02*
X1681Y489D01*
X1699Y489D02*
X1725Y489D01*
X1743Y489D02*
X1771Y489D01*
X1786Y489D02*
X1791Y489D01*
X1810Y489D02*
X1815Y489D01*
X1835Y489D02*
X1847Y489D01*
X1874Y489D02*
X1902Y489D01*
X1920Y489D02*
X1946Y489D01*
X2015Y489D02*
X2028Y489D01*
X2063Y489D02*
X2068Y489D01*
X2103Y489D02*
X2108Y489D01*
X2112Y489D02*
X2117Y489D01*
X2140Y489D02*
X2146Y489D01*
X2162Y489D02*
X2168Y489D01*
X2276Y489D02*
X2283Y489D01*
X1Y488D02*
X8Y488D01*
X1617Y488D02*
X1624Y488D01*
X1654Y488D02*
X1662Y488D01*
X1674Y488D02*
X1682Y488D01*
X1699Y488D02*
X1706Y488D01*
X1718Y488D02*
X1726Y488D01*
X1743Y488D02*
X1750Y488D01*
X1759Y488D02*
X1771Y488D01*
X1786Y488D02*
X1791Y488D01*
X1810Y488D02*
X1815Y488D01*
X1842Y488D02*
X1847Y488D01*
X1874Y488D02*
X1888Y488D01*
X1896Y488D02*
X1903Y488D01*
X1920Y488D02*
X1927Y488D01*
X1939Y488D02*
X1947Y488D01*
X2016Y488D02*
X2027Y488D01*
X2063Y488D02*
X2068Y488D01*
X2102Y488D02*
X2108Y488D01*
X2112Y488D02*
X2118Y488D01*
X2140Y488D02*
X2146Y488D01*
X2163Y488D02*
X2168Y488D01*
X2276Y488D02*
X2283Y488D01*
X1Y487D02*
X8Y487D01*
X1618Y487D02*
X1625Y487D01*
X1654Y487D02*
X1661Y487D01*
X1676Y487D02*
X1682Y487D01*
X1698Y487D02*
X1705Y487D01*
X1720Y487D02*
X1726Y487D01*
X1742Y487D02*
X1749Y487D01*
X1761Y487D02*
X1771Y487D01*
X1786Y487D02*
X1791Y487D01*
X1810Y487D02*
X1815Y487D01*
X1842Y487D02*
X1847Y487D01*
X1874Y487D02*
X1887Y487D01*
X1897Y487D02*
X1903Y487D01*
X1919Y487D02*
X1926Y487D01*
X1941Y487D02*
X1947Y487D01*
X2017Y487D02*
X2026Y487D01*
X2063Y487D02*
X2068Y487D01*
X2102Y487D02*
X2107Y487D01*
X2112Y487D02*
X2118Y487D01*
X2140Y487D02*
X2145Y487D01*
X2163Y487D02*
X2169Y487D01*
X2276Y487D02*
X2283Y487D01*
X1Y486D02*
X8Y486D01*
X1619Y486D02*
X1626Y486D01*
X1654Y486D02*
X1659Y486D01*
X1676Y486D02*
X1682Y486D01*
X1698Y486D02*
X1704Y486D01*
X1721Y486D02*
X1727Y486D01*
X1742Y486D02*
X1748Y486D01*
X1762Y486D02*
X1771Y486D01*
X1786Y486D02*
X1791Y486D01*
X1810Y486D02*
X1815Y486D01*
X1842Y486D02*
X1847Y486D01*
X1874Y486D02*
X1885Y486D01*
X1898Y486D02*
X1903Y486D01*
X1919Y486D02*
X1925Y486D01*
X1942Y486D02*
X1948Y486D01*
X2017Y486D02*
X2026Y486D01*
X2063Y486D02*
X2068Y486D01*
X2102Y486D02*
X2107Y486D01*
X2113Y486D02*
X2118Y486D01*
X2140Y486D02*
X2145Y486D01*
X2163Y486D02*
X2169Y486D01*
X2276Y486D02*
X2283Y486D01*
X1Y485D02*
X8Y485D01*
X1619Y485D02*
X1626Y485D01*
X1653Y485D02*
X1659Y485D01*
X1677Y485D02*
X1683Y485D01*
X1698Y485D02*
X1703Y485D01*
X1721Y485D02*
X1727Y485D01*
X1742Y485D02*
X1747Y485D01*
X1763Y485D02*
X1771Y485D01*
X1786Y485D02*
X1791Y485D01*
X1810Y485D02*
X1815Y485D01*
X1842Y485D02*
X1847Y485D01*
X1874Y485D02*
X1884Y485D01*
X1898Y485D02*
X1903Y485D01*
X1919Y485D02*
X1924Y485D01*
X1942Y485D02*
X1948Y485D01*
X2018Y485D02*
X2025Y485D01*
X2063Y485D02*
X2068Y485D01*
X2101Y485D02*
X2107Y485D01*
X2113Y485D02*
X2118Y485D01*
X2140Y485D02*
X2145Y485D01*
X2164Y485D02*
X2169Y485D01*
X2276Y485D02*
X2283Y485D01*
X1Y484D02*
X8Y484D01*
X1620Y484D02*
X1627Y484D01*
X1653Y484D02*
X1658Y484D01*
X1677Y484D02*
X1683Y484D01*
X1697Y484D02*
X1703Y484D01*
X1722Y484D02*
X1727Y484D01*
X1742Y484D02*
X1747Y484D01*
X1764Y484D02*
X1771Y484D01*
X1786Y484D02*
X1791Y484D01*
X1810Y484D02*
X1815Y484D01*
X1842Y484D02*
X1847Y484D01*
X1874Y484D02*
X1882Y484D01*
X1898Y484D02*
X1903Y484D01*
X1918Y484D02*
X1924Y484D01*
X1943Y484D02*
X1948Y484D01*
X2018Y484D02*
X2025Y484D01*
X2063Y484D02*
X2068Y484D01*
X2101Y484D02*
X2107Y484D01*
X2113Y484D02*
X2119Y484D01*
X2139Y484D02*
X2145Y484D01*
X2164Y484D02*
X2169Y484D01*
X2276Y484D02*
X2283Y484D01*
X1Y483D02*
X8Y483D01*
X1621Y483D02*
X1628Y483D01*
X1653Y483D02*
X1658Y483D01*
X1678Y483D02*
X1683Y483D01*
X1697Y483D02*
X1703Y483D01*
X1722Y483D02*
X1727Y483D01*
X1742Y483D02*
X1747Y483D01*
X1765Y483D02*
X1771Y483D01*
X1786Y483D02*
X1791Y483D01*
X1810Y483D02*
X1815Y483D01*
X1842Y483D02*
X1847Y483D01*
X1874Y483D02*
X1881Y483D01*
X1898Y483D02*
X1903Y483D01*
X1918Y483D02*
X1924Y483D01*
X1943Y483D02*
X1948Y483D01*
X2018Y483D02*
X2025Y483D01*
X2063Y483D02*
X2068Y483D01*
X2101Y483D02*
X2106Y483D01*
X2114Y483D02*
X2119Y483D01*
X2140Y483D02*
X2145Y483D01*
X2164Y483D02*
X2169Y483D01*
X2276Y483D02*
X2283Y483D01*
X1Y482D02*
X8Y482D01*
X1622Y482D02*
X1629Y482D01*
X1653Y482D02*
X1658Y482D01*
X1678Y482D02*
X1683Y482D01*
X1697Y482D02*
X1703Y482D01*
X1722Y482D02*
X1727Y482D01*
X1742Y482D02*
X1747Y482D01*
X1766Y482D02*
X1771Y482D01*
X1786Y482D02*
X1791Y482D01*
X1810Y482D02*
X1815Y482D01*
X1842Y482D02*
X1847Y482D01*
X1874Y482D02*
X1879Y482D01*
X1898Y482D02*
X1903Y482D01*
X1918Y482D02*
X1924Y482D01*
X1943Y482D02*
X1948Y482D01*
X2017Y482D02*
X2026Y482D01*
X2063Y482D02*
X2068Y482D01*
X2101Y482D02*
X2106Y482D01*
X2114Y482D02*
X2119Y482D01*
X2140Y482D02*
X2145Y482D01*
X2163Y482D02*
X2169Y482D01*
X2276Y482D02*
X2283Y482D01*
X1Y481D02*
X8Y481D01*
X1622Y481D02*
X1629Y481D01*
X1653Y481D02*
X1658Y481D01*
X1678Y481D02*
X1683Y481D01*
X1697Y481D02*
X1703Y481D01*
X1722Y481D02*
X1727Y481D01*
X1742Y481D02*
X1747Y481D01*
X1766Y481D02*
X1771Y481D01*
X1786Y481D02*
X1791Y481D01*
X1810Y481D02*
X1815Y481D01*
X1842Y481D02*
X1847Y481D01*
X1874Y481D02*
X1879Y481D01*
X1898Y481D02*
X1903Y481D01*
X1918Y481D02*
X1924Y481D01*
X1943Y481D02*
X1948Y481D01*
X2017Y481D02*
X2026Y481D01*
X2063Y481D02*
X2068Y481D01*
X2100Y481D02*
X2106Y481D01*
X2114Y481D02*
X2120Y481D01*
X2140Y481D02*
X2145Y481D01*
X2163Y481D02*
X2169Y481D01*
X2276Y481D02*
X2283Y481D01*
X1Y480D02*
X8Y480D01*
X1623Y480D02*
X1630Y480D01*
X1653Y480D02*
X1658Y480D01*
X1678Y480D02*
X1683Y480D01*
X1697Y480D02*
X1703Y480D01*
X1722Y480D02*
X1727Y480D01*
X1742Y480D02*
X1747Y480D01*
X1766Y480D02*
X1771Y480D01*
X1786Y480D02*
X1791Y480D01*
X1810Y480D02*
X1815Y480D01*
X1842Y480D02*
X1847Y480D01*
X1874Y480D02*
X1879Y480D01*
X1898Y480D02*
X1903Y480D01*
X1918Y480D02*
X1924Y480D01*
X1943Y480D02*
X1948Y480D01*
X2016Y480D02*
X2027Y480D01*
X2063Y480D02*
X2068Y480D01*
X2100Y480D02*
X2105Y480D01*
X2114Y480D02*
X2120Y480D01*
X2140Y480D02*
X2146Y480D01*
X2163Y480D02*
X2168Y480D01*
X2276Y480D02*
X2283Y480D01*
X1Y479D02*
X8Y479D01*
X1624Y479D02*
X1631Y479D01*
X1653Y479D02*
X1683Y479D01*
X1697Y479D02*
X1727Y479D01*
X1742Y479D02*
X1747Y479D01*
X1766Y479D02*
X1771Y479D01*
X1786Y479D02*
X1791Y479D01*
X1810Y479D02*
X1815Y479D01*
X1842Y479D02*
X1847Y479D01*
X1874Y479D02*
X1879Y479D01*
X1898Y479D02*
X1903Y479D01*
X1918Y479D02*
X1924Y479D01*
X1943Y479D02*
X1948Y479D01*
X2016Y479D02*
X2028Y479D01*
X2063Y479D02*
X2068Y479D01*
X2100Y479D02*
X2105Y479D01*
X2115Y479D02*
X2120Y479D01*
X2140Y479D02*
X2146Y479D01*
X2162Y479D02*
X2168Y479D01*
X2276Y479D02*
X2283Y479D01*
X1Y478D02*
X8Y478D01*
X1625Y478D02*
X1632Y478D01*
X1653Y478D02*
X1683Y478D01*
X1697Y478D02*
X1727Y478D01*
X1742Y478D02*
X1747Y478D01*
X1766Y478D02*
X1771Y478D01*
X1786Y478D02*
X1791Y478D01*
X1810Y478D02*
X1815Y478D01*
X1842Y478D02*
X1847Y478D01*
X1874Y478D02*
X1879Y478D01*
X1898Y478D02*
X1903Y478D01*
X1918Y478D02*
X1924Y478D01*
X1943Y478D02*
X1948Y478D01*
X2015Y478D02*
X2028Y478D01*
X2063Y478D02*
X2068Y478D01*
X2099Y478D02*
X2105Y478D01*
X2115Y478D02*
X2120Y478D01*
X2141Y478D02*
X2147Y478D01*
X2162Y478D02*
X2168Y478D01*
X2276Y478D02*
X2283Y478D01*
X1Y477D02*
X8Y477D01*
X1626Y477D02*
X1633Y477D01*
X1653Y477D02*
X1683Y477D01*
X1697Y477D02*
X1727Y477D01*
X1742Y477D02*
X1747Y477D01*
X1766Y477D02*
X1771Y477D01*
X1786Y477D02*
X1791Y477D01*
X1810Y477D02*
X1815Y477D01*
X1842Y477D02*
X1847Y477D01*
X1874Y477D02*
X1879Y477D01*
X1898Y477D02*
X1903Y477D01*
X1918Y477D02*
X1924Y477D01*
X1943Y477D02*
X1948Y477D01*
X2014Y477D02*
X2021Y477D01*
X2023Y477D02*
X2029Y477D01*
X2063Y477D02*
X2068Y477D01*
X2099Y477D02*
X2105Y477D01*
X2115Y477D02*
X2121Y477D01*
X2141Y477D02*
X2147Y477D01*
X2161Y477D02*
X2167Y477D01*
X2276Y477D02*
X2283Y477D01*
X1Y476D02*
X8Y476D01*
X1626Y476D02*
X1633Y476D01*
X1653Y476D02*
X1683Y476D01*
X1697Y476D02*
X1727Y476D01*
X1742Y476D02*
X1747Y476D01*
X1766Y476D02*
X1771Y476D01*
X1786Y476D02*
X1792Y476D01*
X1810Y476D02*
X1815Y476D01*
X1842Y476D02*
X1847Y476D01*
X1874Y476D02*
X1879Y476D01*
X1898Y476D02*
X1903Y476D01*
X1918Y476D02*
X1924Y476D01*
X1943Y476D02*
X1948Y476D01*
X2014Y476D02*
X2020Y476D01*
X2023Y476D02*
X2029Y476D01*
X2063Y476D02*
X2068Y476D01*
X2099Y476D02*
X2121Y476D01*
X2142Y476D02*
X2148Y476D01*
X2161Y476D02*
X2167Y476D01*
X2276Y476D02*
X2283Y476D01*
X1Y475D02*
X8Y475D01*
X1627Y475D02*
X1634Y475D01*
X1653Y475D02*
X1682Y475D01*
X1697Y475D02*
X1727Y475D01*
X1742Y475D02*
X1747Y475D01*
X1766Y475D02*
X1771Y475D01*
X1786Y475D02*
X1792Y475D01*
X1810Y475D02*
X1815Y475D01*
X1842Y475D02*
X1847Y475D01*
X1874Y475D02*
X1879Y475D01*
X1898Y475D02*
X1903Y475D01*
X1918Y475D02*
X1924Y475D01*
X1943Y475D02*
X1948Y475D01*
X2013Y475D02*
X2019Y475D01*
X2024Y475D02*
X2030Y475D01*
X2063Y475D02*
X2068Y475D01*
X2099Y475D02*
X2121Y475D01*
X2142Y475D02*
X2148Y475D01*
X2160Y475D02*
X2166Y475D01*
X2276Y475D02*
X2283Y475D01*
X1Y474D02*
X8Y474D01*
X1628Y474D02*
X1635Y474D01*
X1653Y474D02*
X1682Y474D01*
X1697Y474D02*
X1726Y474D01*
X1742Y474D02*
X1747Y474D01*
X1766Y474D02*
X1771Y474D01*
X1786Y474D02*
X1792Y474D01*
X1810Y474D02*
X1815Y474D01*
X1842Y474D02*
X1847Y474D01*
X1874Y474D02*
X1879Y474D01*
X1898Y474D02*
X1903Y474D01*
X1918Y474D02*
X1924Y474D01*
X1943Y474D02*
X1948Y474D01*
X2013Y474D02*
X2019Y474D01*
X2024Y474D02*
X2030Y474D01*
X2063Y474D02*
X2068Y474D01*
X2098Y474D02*
X2122Y474D01*
X2143Y474D02*
X2149Y474D01*
X2160Y474D02*
X2166Y474D01*
X2276Y474D02*
X2283Y474D01*
X1Y473D02*
X8Y473D01*
X1629Y473D02*
X1636Y473D01*
X1653Y473D02*
X1659Y473D01*
X1697Y473D02*
X1703Y473D01*
X1742Y473D02*
X1747Y473D01*
X1766Y473D02*
X1771Y473D01*
X1786Y473D02*
X1792Y473D01*
X1810Y473D02*
X1815Y473D01*
X1842Y473D02*
X1847Y473D01*
X1874Y473D02*
X1879Y473D01*
X1898Y473D02*
X1903Y473D01*
X1918Y473D02*
X1924Y473D01*
X1943Y473D02*
X1948Y473D01*
X2012Y473D02*
X2018Y473D01*
X2025Y473D02*
X2031Y473D01*
X2063Y473D02*
X2068Y473D01*
X2098Y473D02*
X2122Y473D01*
X2143Y473D02*
X2149Y473D01*
X2159Y473D02*
X2165Y473D01*
X2276Y473D02*
X2283Y473D01*
X1Y472D02*
X8Y472D01*
X1629Y472D02*
X1636Y472D01*
X1653Y472D02*
X1658Y472D01*
X1697Y472D02*
X1703Y472D01*
X1742Y472D02*
X1747Y472D01*
X1765Y472D02*
X1771Y472D01*
X1786Y472D02*
X1792Y472D01*
X1809Y472D02*
X1815Y472D01*
X1842Y472D02*
X1847Y472D01*
X1874Y472D02*
X1879Y472D01*
X1898Y472D02*
X1903Y472D01*
X1918Y472D02*
X1924Y472D01*
X1943Y472D02*
X1948Y472D01*
X2011Y472D02*
X2018Y472D01*
X2025Y472D02*
X2032Y472D01*
X2063Y472D02*
X2068Y472D01*
X2098Y472D02*
X2122Y472D01*
X2144Y472D02*
X2150Y472D01*
X2159Y472D02*
X2165Y472D01*
X2276Y472D02*
X2283Y472D01*
X1Y471D02*
X8Y471D01*
X1611Y471D02*
X1613Y471D01*
X1630Y471D02*
X1637Y471D01*
X1653Y471D02*
X1658Y471D01*
X1697Y471D02*
X1703Y471D01*
X1742Y471D02*
X1747Y471D01*
X1764Y471D02*
X1771Y471D01*
X1787Y471D02*
X1792Y471D01*
X1808Y471D02*
X1815Y471D01*
X1842Y471D02*
X1847Y471D01*
X1874Y471D02*
X1879Y471D01*
X1898Y471D02*
X1903Y471D01*
X1918Y471D02*
X1924Y471D01*
X1943Y471D02*
X1948Y471D01*
X2011Y471D02*
X2017Y471D01*
X2026Y471D02*
X2032Y471D01*
X2063Y471D02*
X2068Y471D01*
X2097Y471D02*
X2122Y471D01*
X2144Y471D02*
X2150Y471D01*
X2158Y471D02*
X2164Y471D01*
X2276Y471D02*
X2283Y471D01*
X1Y470D02*
X8Y470D01*
X1610Y470D02*
X1614Y470D01*
X1631Y470D02*
X1638Y470D01*
X1653Y470D02*
X1659Y470D01*
X1698Y470D02*
X1703Y470D01*
X1742Y470D02*
X1747Y470D01*
X1763Y470D02*
X1771Y470D01*
X1787Y470D02*
X1792Y470D01*
X1806Y470D02*
X1815Y470D01*
X1842Y470D02*
X1847Y470D01*
X1874Y470D02*
X1879Y470D01*
X1898Y470D02*
X1903Y470D01*
X1919Y470D02*
X1924Y470D01*
X1942Y470D02*
X1948Y470D01*
X2010Y470D02*
X2017Y470D01*
X2027Y470D02*
X2033Y470D01*
X2063Y470D02*
X2068Y470D01*
X2097Y470D02*
X2103Y470D01*
X2117Y470D02*
X2123Y470D01*
X2145Y470D02*
X2151Y470D01*
X2158Y470D02*
X2164Y470D01*
X2276Y470D02*
X2283Y470D01*
X1Y469D02*
X8Y469D01*
X1609Y469D02*
X1614Y469D01*
X1632Y469D02*
X1638Y469D01*
X1653Y469D02*
X1659Y469D01*
X1698Y469D02*
X1704Y469D01*
X1742Y469D02*
X1748Y469D01*
X1762Y469D02*
X1771Y469D01*
X1787Y469D02*
X1792Y469D01*
X1804Y469D02*
X1815Y469D01*
X1842Y469D02*
X1847Y469D01*
X1874Y469D02*
X1879Y469D01*
X1898Y469D02*
X1903Y469D01*
X1919Y469D02*
X1925Y469D01*
X1942Y469D02*
X1948Y469D01*
X2010Y469D02*
X2016Y469D01*
X2027Y469D02*
X2033Y469D01*
X2063Y469D02*
X2068Y469D01*
X2097Y469D02*
X2102Y469D01*
X2118Y469D02*
X2123Y469D01*
X2145Y469D02*
X2151Y469D01*
X2157Y469D02*
X2163Y469D01*
X2276Y469D02*
X2283Y469D01*
X1Y468D02*
X8Y468D01*
X1609Y468D02*
X1614Y468D01*
X1633Y468D02*
X1638Y468D01*
X1654Y468D02*
X1660Y468D01*
X1698Y468D02*
X1705Y468D01*
X1742Y468D02*
X1749Y468D01*
X1761Y468D02*
X1771Y468D01*
X1787Y468D02*
X1792Y468D01*
X1803Y468D02*
X1815Y468D01*
X1842Y468D02*
X1847Y468D01*
X1874Y468D02*
X1879Y468D01*
X1898Y468D02*
X1903Y468D01*
X1919Y468D02*
X1926Y468D01*
X1941Y468D02*
X1947Y468D01*
X2009Y468D02*
X2015Y468D01*
X2028Y468D02*
X2034Y468D01*
X2063Y468D02*
X2068Y468D01*
X2096Y468D02*
X2102Y468D01*
X2118Y468D02*
X2123Y468D01*
X2146Y468D02*
X2152Y468D01*
X2157Y468D02*
X2163Y468D01*
X2276Y468D02*
X2283Y468D01*
X1Y467D02*
X8Y467D01*
X1609Y467D02*
X1615Y467D01*
X1633Y467D02*
X1638Y467D01*
X1654Y467D02*
X1662Y467D01*
X1698Y467D02*
X1706Y467D01*
X1743Y467D02*
X1750Y467D01*
X1760Y467D02*
X1771Y467D01*
X1787Y467D02*
X1793Y467D01*
X1801Y467D02*
X1815Y467D01*
X1842Y467D02*
X1847Y467D01*
X1874Y467D02*
X1879Y467D01*
X1898Y467D02*
X1904Y467D01*
X1919Y467D02*
X1927Y467D01*
X1939Y467D02*
X1947Y467D01*
X2009Y467D02*
X2015Y467D01*
X2028Y467D02*
X2035Y467D01*
X2063Y467D02*
X2068Y467D01*
X2096Y467D02*
X2102Y467D01*
X2118Y467D02*
X2124Y467D01*
X2146Y467D02*
X2152Y467D01*
X2156Y467D02*
X2162Y467D01*
X2276Y467D02*
X2283Y467D01*
X1Y466D02*
X8Y466D01*
X1609Y466D02*
X1638Y466D01*
X1655Y466D02*
X1681Y466D01*
X1699Y466D02*
X1725Y466D01*
X1743Y466D02*
X1771Y466D01*
X1787Y466D02*
X1815Y466D01*
X1835Y466D02*
X1854Y466D01*
X1874Y466D02*
X1879Y466D01*
X1898Y466D02*
X1904Y466D01*
X1920Y466D02*
X1946Y466D01*
X2008Y466D02*
X2014Y466D01*
X2029Y466D02*
X2035Y466D01*
X2053Y466D02*
X2078Y466D01*
X2096Y466D02*
X2101Y466D01*
X2119Y466D02*
X2124Y466D01*
X2147Y466D02*
X2162Y466D01*
X2276Y466D02*
X2283Y466D01*
X1Y465D02*
X8Y465D01*
X1610Y465D02*
X1638Y465D01*
X1656Y465D02*
X1682Y465D01*
X1700Y465D02*
X1726Y465D01*
X1744Y465D02*
X1771Y465D01*
X1788Y465D02*
X1815Y465D01*
X1834Y465D02*
X1856Y465D01*
X1874Y465D02*
X1879Y465D01*
X1898Y465D02*
X1904Y465D01*
X1921Y465D02*
X1945Y465D01*
X2007Y465D02*
X2014Y465D01*
X2030Y465D02*
X2036Y465D01*
X2052Y465D02*
X2080Y465D01*
X2096Y465D02*
X2101Y465D01*
X2119Y465D02*
X2124Y465D01*
X2147Y465D02*
X2161Y465D01*
X2276Y465D02*
X2283Y465D01*
X1Y464D02*
X8Y464D01*
X1610Y464D02*
X1638Y464D01*
X1657Y464D02*
X1683Y464D01*
X1701Y464D02*
X1727Y464D01*
X1745Y464D02*
X1771Y464D01*
X1788Y464D02*
X1807Y464D01*
X1810Y464D02*
X1815Y464D01*
X1833Y464D02*
X1856Y464D01*
X1874Y464D02*
X1879Y464D01*
X1898Y464D02*
X1904Y464D01*
X1922Y464D02*
X1944Y464D01*
X2007Y464D02*
X2013Y464D01*
X2030Y464D02*
X2036Y464D01*
X2051Y464D02*
X2080Y464D01*
X2095Y464D02*
X2101Y464D01*
X2119Y464D02*
X2125Y464D01*
X2148Y464D02*
X2161Y464D01*
X2276Y464D02*
X2283Y464D01*
X1Y463D02*
X8Y463D01*
X1611Y463D02*
X1637Y463D01*
X1658Y463D02*
X1683Y463D01*
X1702Y463D02*
X1727Y463D01*
X1746Y463D02*
X1764Y463D01*
X1766Y463D02*
X1771Y463D01*
X1789Y463D02*
X1805Y463D01*
X1810Y463D02*
X1815Y463D01*
X1833Y463D02*
X1856Y463D01*
X1874Y463D02*
X1879Y463D01*
X1899Y463D02*
X1904Y463D01*
X1923Y463D02*
X1943Y463D01*
X2007Y463D02*
X2012Y463D01*
X2031Y463D02*
X2036Y463D01*
X2051Y463D02*
X2080Y463D01*
X2095Y463D02*
X2100Y463D01*
X2119Y463D02*
X2125Y463D01*
X2149Y463D02*
X2160Y463D01*
X2276Y463D02*
X2283Y463D01*
X1Y462D02*
X8Y462D01*
X1612Y462D02*
X1636Y462D01*
X1659Y462D02*
X1682Y462D01*
X1703Y462D02*
X1727Y462D01*
X1747Y462D02*
X1762Y462D01*
X1766Y462D02*
X1771Y462D01*
X1790Y462D02*
X1804Y462D01*
X1810Y462D02*
X1815Y462D01*
X1833Y462D02*
X1856Y462D01*
X1875Y462D02*
X1879Y462D01*
X1899Y462D02*
X1903Y462D01*
X1924Y462D02*
X1942Y462D01*
X2007Y462D02*
X2012Y462D01*
X2031Y462D02*
X2036Y462D01*
X2051Y462D02*
X2080Y462D01*
X2095Y462D02*
X2100Y462D01*
X2120Y462D02*
X2124Y462D01*
X2150Y462D02*
X2159Y462D01*
X2276Y462D02*
X2283Y462D01*
X1Y461D02*
X8Y461D01*
X1614Y461D02*
X1635Y461D01*
X1661Y461D02*
X1682Y461D01*
X1705Y461D02*
X1726Y461D01*
X1749Y461D02*
X1761Y461D01*
X1767Y461D02*
X1770Y461D01*
X1792Y461D02*
X1802Y461D01*
X1811Y461D02*
X1814Y461D01*
X1834Y461D02*
X1855Y461D01*
X1875Y461D02*
X1878Y461D01*
X1899Y461D02*
X1903Y461D01*
X1926Y461D02*
X1940Y461D01*
X2008Y461D02*
X2011Y461D01*
X2032Y461D02*
X2035Y461D01*
X2052Y461D02*
X2080Y461D01*
X2096Y461D02*
X2099Y461D01*
X2120Y461D02*
X2124Y461D01*
X2151Y461D02*
X2157Y461D01*
X2276Y461D02*
X2283Y461D01*
X1Y460D02*
X8Y460D01*
X2276Y460D02*
X2283Y460D01*
X1Y459D02*
X8Y459D01*
X2276Y459D02*
X2283Y459D01*
X1Y458D02*
X8Y458D01*
X2276Y458D02*
X2283Y458D01*
X1Y457D02*
X8Y457D01*
X2276Y457D02*
X2283Y457D01*
X1Y456D02*
X8Y456D01*
X2276Y456D02*
X2283Y456D01*
X1Y455D02*
X8Y455D01*
X2276Y455D02*
X2283Y455D01*
X1Y454D02*
X8Y454D01*
X2276Y454D02*
X2283Y454D01*
X1Y453D02*
X8Y453D01*
X2276Y453D02*
X2283Y453D01*
X1Y452D02*
X8Y452D01*
X2276Y452D02*
X2283Y452D01*
X1Y451D02*
X8Y451D01*
X2276Y451D02*
X2283Y451D01*
X1Y450D02*
X8Y450D01*
X2276Y450D02*
X2283Y450D01*
X1Y449D02*
X8Y449D01*
X2276Y449D02*
X2283Y449D01*
X1Y448D02*
X8Y448D01*
X2276Y448D02*
X2283Y448D01*
X1Y447D02*
X8Y447D01*
X2276Y447D02*
X2283Y447D01*
X1Y446D02*
X8Y446D01*
X2276Y446D02*
X2283Y446D01*
X1Y445D02*
X8Y445D01*
X2276Y445D02*
X2283Y445D01*
X1Y444D02*
X8Y444D01*
X2276Y444D02*
X2283Y444D01*
X1Y443D02*
X8Y443D01*
X2276Y443D02*
X2283Y443D01*
X1Y442D02*
X8Y442D01*
X2276Y442D02*
X2283Y442D01*
X1Y441D02*
X8Y441D01*
X2276Y441D02*
X2283Y441D01*
X1Y440D02*
X8Y440D01*
X2276Y440D02*
X2283Y440D01*
X1Y439D02*
X8Y439D01*
X2276Y439D02*
X2283Y439D01*
X1Y438D02*
X8Y438D01*
X2276Y438D02*
X2283Y438D01*
X1Y437D02*
X8Y437D01*
X2276Y437D02*
X2283Y437D01*
X1Y436D02*
X8Y436D01*
X2276Y436D02*
X2283Y436D01*
X1Y435D02*
X8Y435D01*
X2276Y435D02*
X2283Y435D01*
X1Y434D02*
X8Y434D01*
X2276Y434D02*
X2283Y434D01*
X1Y433D02*
X8Y433D01*
X2276Y433D02*
X2283Y433D01*
X1Y432D02*
X8Y432D01*
X2276Y432D02*
X2283Y432D01*
X1Y431D02*
X8Y431D01*
X2276Y431D02*
X2283Y431D01*
X1Y430D02*
X8Y430D01*
X2276Y430D02*
X2283Y430D01*
X1Y429D02*
X8Y429D01*
X2276Y429D02*
X2283Y429D01*
X1Y428D02*
X8Y428D01*
X2276Y428D02*
X2283Y428D01*
X1Y427D02*
X8Y427D01*
X2276Y427D02*
X2283Y427D01*
X1Y426D02*
X8Y426D01*
X2276Y426D02*
X2283Y426D01*
X1Y425D02*
X8Y425D01*
X2276Y425D02*
X2283Y425D01*
X1Y424D02*
X8Y424D01*
X2276Y424D02*
X2283Y424D01*
X1Y423D02*
X8Y423D01*
X2276Y423D02*
X2283Y423D01*
X1Y422D02*
X8Y422D01*
X2276Y422D02*
X2283Y422D01*
X1Y421D02*
X8Y421D01*
X2276Y421D02*
X2283Y421D01*
X1Y420D02*
X8Y420D01*
X2276Y420D02*
X2283Y420D01*
X1Y419D02*
X8Y419D01*
X2276Y419D02*
X2283Y419D01*
X1Y418D02*
X8Y418D01*
X2276Y418D02*
X2283Y418D01*
X1Y417D02*
X8Y417D01*
X2276Y417D02*
X2283Y417D01*
X1Y416D02*
X8Y416D01*
X2276Y416D02*
X2283Y416D01*
X1Y415D02*
X8Y415D01*
X2276Y415D02*
X2283Y415D01*
X1Y414D02*
X8Y414D01*
X2276Y414D02*
X2283Y414D01*
X1Y413D02*
X8Y413D01*
X2276Y413D02*
X2283Y413D01*
X1Y412D02*
X8Y412D01*
X2276Y412D02*
X2283Y412D01*
X1Y411D02*
X8Y411D01*
X2276Y411D02*
X2283Y411D01*
X1Y410D02*
X8Y410D01*
X2276Y410D02*
X2283Y410D01*
X1Y409D02*
X8Y409D01*
X2276Y409D02*
X2283Y409D01*
X1Y408D02*
X8Y408D01*
X2276Y408D02*
X2283Y408D01*
X1Y407D02*
X8Y407D01*
X2276Y407D02*
X2283Y407D01*
X1Y406D02*
X8Y406D01*
X2276Y406D02*
X2283Y406D01*
X1Y405D02*
X8Y405D01*
X2276Y405D02*
X2283Y405D01*
X1Y404D02*
X8Y404D01*
X2276Y404D02*
X2283Y404D01*
X1Y403D02*
X8Y403D01*
X2276Y403D02*
X2283Y403D01*
X1Y402D02*
X8Y402D01*
X2276Y402D02*
X2283Y402D01*
X1Y401D02*
X8Y401D01*
X2276Y401D02*
X2283Y401D01*
X1Y400D02*
X8Y400D01*
X2276Y400D02*
X2283Y400D01*
X1Y399D02*
X8Y399D01*
X2276Y399D02*
X2283Y399D01*
X1Y398D02*
X8Y398D01*
X2276Y398D02*
X2283Y398D01*
X1Y397D02*
X8Y397D01*
X2276Y397D02*
X2283Y397D01*
X1Y396D02*
X8Y396D01*
X2276Y396D02*
X2283Y396D01*
X1Y395D02*
X8Y395D01*
X2276Y395D02*
X2283Y395D01*
X1Y394D02*
X8Y394D01*
X2276Y394D02*
X2283Y394D01*
X1Y393D02*
X8Y393D01*
X2276Y393D02*
X2283Y393D01*
X1Y392D02*
X8Y392D01*
X2276Y392D02*
X2283Y392D01*
X1Y391D02*
X8Y391D01*
X2276Y391D02*
X2283Y391D01*
X1Y390D02*
X8Y390D01*
X2276Y390D02*
X2283Y390D01*
X1Y389D02*
X8Y389D01*
X2276Y389D02*
X2283Y389D01*
X1Y388D02*
X8Y388D01*
X2276Y388D02*
X2283Y388D01*
X1Y387D02*
X8Y387D01*
X2276Y387D02*
X2283Y387D01*
X1Y386D02*
X8Y386D01*
X2276Y386D02*
X2283Y386D01*
X1Y385D02*
X8Y385D01*
X2276Y385D02*
X2283Y385D01*
X1Y384D02*
X8Y384D01*
X2276Y384D02*
X2283Y384D01*
X1Y383D02*
X8Y383D01*
X2276Y383D02*
X2283Y383D01*
X1Y382D02*
X8Y382D01*
X2276Y382D02*
X2283Y382D01*
X1Y381D02*
X8Y381D01*
X2276Y381D02*
X2283Y381D01*
X1Y380D02*
X8Y380D01*
X2276Y380D02*
X2283Y380D01*
X1Y379D02*
X8Y379D01*
X2276Y379D02*
X2283Y379D01*
X1Y378D02*
X8Y378D01*
X2276Y378D02*
X2283Y378D01*
X1Y377D02*
X8Y377D01*
X2276Y377D02*
X2283Y377D01*
X1Y376D02*
X8Y376D01*
X2276Y376D02*
X2283Y376D01*
X1Y375D02*
X8Y375D01*
X2276Y375D02*
X2283Y375D01*
X1Y374D02*
X8Y374D01*
X2276Y374D02*
X2283Y374D01*
X1Y373D02*
X8Y373D01*
X2276Y373D02*
X2283Y373D01*
X1Y372D02*
X8Y372D01*
X2276Y372D02*
X2283Y372D01*
X1Y371D02*
X8Y371D01*
X2276Y371D02*
X2283Y371D01*
X1Y370D02*
X8Y370D01*
X2276Y370D02*
X2283Y370D01*
X1Y369D02*
X8Y369D01*
X2276Y369D02*
X2283Y369D01*
X1Y368D02*
X8Y368D01*
X2276Y368D02*
X2283Y368D01*
X1Y367D02*
X8Y367D01*
X2276Y367D02*
X2283Y367D01*
X1Y366D02*
X8Y366D01*
X2276Y366D02*
X2283Y366D01*
X1Y365D02*
X8Y365D01*
X2276Y365D02*
X2283Y365D01*
X1Y364D02*
X8Y364D01*
X2276Y364D02*
X2283Y364D01*
X1Y363D02*
X8Y363D01*
X2276Y363D02*
X2283Y363D01*
X1Y362D02*
X8Y362D01*
X2276Y362D02*
X2283Y362D01*
X1Y361D02*
X8Y361D01*
X2276Y361D02*
X2283Y361D01*
X1Y360D02*
X8Y360D01*
X2276Y360D02*
X2283Y360D01*
X1Y359D02*
X8Y359D01*
X2276Y359D02*
X2283Y359D01*
X1Y358D02*
X8Y358D01*
X2276Y358D02*
X2283Y358D01*
X1Y357D02*
X8Y357D01*
X2276Y357D02*
X2283Y357D01*
X1Y356D02*
X8Y356D01*
X2276Y356D02*
X2283Y356D01*
X1Y355D02*
X8Y355D01*
X2276Y355D02*
X2283Y355D01*
X1Y354D02*
X8Y354D01*
X2276Y354D02*
X2283Y354D01*
X1Y353D02*
X8Y353D01*
X2276Y353D02*
X2283Y353D01*
X1Y352D02*
X8Y352D01*
X2276Y352D02*
X2283Y352D01*
X1Y351D02*
X8Y351D01*
X2276Y351D02*
X2283Y351D01*
X1Y350D02*
X8Y350D01*
X2276Y350D02*
X2283Y350D01*
X1Y349D02*
X8Y349D01*
X2276Y349D02*
X2283Y349D01*
X1Y348D02*
X8Y348D01*
X2276Y348D02*
X2283Y348D01*
X1Y347D02*
X8Y347D01*
X2276Y347D02*
X2283Y347D01*
X1Y346D02*
X8Y346D01*
X2276Y346D02*
X2283Y346D01*
X1Y345D02*
X8Y345D01*
X2276Y345D02*
X2283Y345D01*
X1Y344D02*
X8Y344D01*
X2276Y344D02*
X2283Y344D01*
X1Y343D02*
X8Y343D01*
X2276Y343D02*
X2283Y343D01*
X1Y342D02*
X8Y342D01*
X2276Y342D02*
X2283Y342D01*
X1Y341D02*
X8Y341D01*
X2276Y341D02*
X2283Y341D01*
X1Y340D02*
X8Y340D01*
X2276Y340D02*
X2283Y340D01*
X1Y339D02*
X8Y339D01*
X2276Y339D02*
X2283Y339D01*
X1Y338D02*
X8Y338D01*
X2276Y338D02*
X2283Y338D01*
X1Y337D02*
X8Y337D01*
X2276Y337D02*
X2283Y337D01*
X1Y336D02*
X8Y336D01*
X2276Y336D02*
X2283Y336D01*
X1Y335D02*
X8Y335D01*
X2276Y335D02*
X2283Y335D01*
X1Y334D02*
X8Y334D01*
X2276Y334D02*
X2283Y334D01*
X1Y333D02*
X8Y333D01*
X2276Y333D02*
X2283Y333D01*
X1Y332D02*
X8Y332D01*
X2276Y332D02*
X2283Y332D01*
X1Y331D02*
X8Y331D01*
X2276Y331D02*
X2283Y331D01*
X1Y330D02*
X8Y330D01*
X2276Y330D02*
X2283Y330D01*
X1Y329D02*
X8Y329D01*
X2276Y329D02*
X2283Y329D01*
X1Y328D02*
X8Y328D01*
X2276Y328D02*
X2283Y328D01*
X1Y327D02*
X8Y327D01*
X2276Y327D02*
X2283Y327D01*
X1Y326D02*
X8Y326D01*
X2276Y326D02*
X2283Y326D01*
X1Y325D02*
X8Y325D01*
X2276Y325D02*
X2283Y325D01*
X1Y324D02*
X8Y324D01*
X2276Y324D02*
X2283Y324D01*
X1Y323D02*
X8Y323D01*
X2276Y323D02*
X2283Y323D01*
X1Y322D02*
X8Y322D01*
X2276Y322D02*
X2283Y322D01*
X1Y321D02*
X8Y321D01*
X2276Y321D02*
X2283Y321D01*
X1Y320D02*
X8Y320D01*
X2276Y320D02*
X2283Y320D01*
X1Y319D02*
X8Y319D01*
X2276Y319D02*
X2283Y319D01*
X1Y318D02*
X8Y318D01*
X2276Y318D02*
X2283Y318D01*
X1Y317D02*
X8Y317D01*
X2276Y317D02*
X2283Y317D01*
X1Y316D02*
X8Y316D01*
X2276Y316D02*
X2283Y316D01*
X1Y315D02*
X8Y315D01*
X2276Y315D02*
X2283Y315D01*
X1Y314D02*
X8Y314D01*
X2276Y314D02*
X2283Y314D01*
X1Y313D02*
X8Y313D01*
X2276Y313D02*
X2283Y313D01*
X1Y312D02*
X8Y312D01*
X2276Y312D02*
X2283Y312D01*
X1Y311D02*
X8Y311D01*
X2276Y311D02*
X2283Y311D01*
X1Y310D02*
X8Y310D01*
X2276Y310D02*
X2283Y310D01*
X1Y309D02*
X8Y309D01*
X2276Y309D02*
X2283Y309D01*
X1Y308D02*
X8Y308D01*
X2276Y308D02*
X2283Y308D01*
X1Y307D02*
X8Y307D01*
X2276Y307D02*
X2283Y307D01*
X1Y306D02*
X8Y306D01*
X2276Y306D02*
X2283Y306D01*
X1Y305D02*
X8Y305D01*
X2276Y305D02*
X2283Y305D01*
X1Y304D02*
X8Y304D01*
X2276Y304D02*
X2283Y304D01*
X1Y303D02*
X8Y303D01*
X2276Y303D02*
X2283Y303D01*
X1Y302D02*
X8Y302D01*
X2276Y302D02*
X2283Y302D01*
X1Y301D02*
X8Y301D01*
X2276Y301D02*
X2283Y301D01*
X1Y300D02*
X8Y300D01*
X2276Y300D02*
X2283Y300D01*
X1Y299D02*
X8Y299D01*
X2276Y299D02*
X2283Y299D01*
X1Y298D02*
X8Y298D01*
X2276Y298D02*
X2283Y298D01*
X1Y297D02*
X8Y297D01*
X2276Y297D02*
X2283Y297D01*
X1Y296D02*
X8Y296D01*
X2276Y296D02*
X2283Y296D01*
X1Y295D02*
X8Y295D01*
X2276Y295D02*
X2283Y295D01*
X1Y294D02*
X8Y294D01*
X2276Y294D02*
X2283Y294D01*
X1Y293D02*
X8Y293D01*
X2276Y293D02*
X2283Y293D01*
X1Y292D02*
X8Y292D01*
X2276Y292D02*
X2283Y292D01*
X1Y291D02*
X8Y291D01*
X2276Y291D02*
X2283Y291D01*
X1Y290D02*
X8Y290D01*
X2276Y290D02*
X2283Y290D01*
X1Y289D02*
X8Y289D01*
X2276Y289D02*
X2283Y289D01*
X1Y288D02*
X8Y288D01*
X2276Y288D02*
X2283Y288D01*
X1Y287D02*
X8Y287D01*
X2276Y287D02*
X2283Y287D01*
X1Y286D02*
X8Y286D01*
X2276Y286D02*
X2283Y286D01*
X1Y285D02*
X8Y285D01*
X2276Y285D02*
X2283Y285D01*
X1Y284D02*
X8Y284D01*
X2276Y284D02*
X2283Y284D01*
X1Y283D02*
X8Y283D01*
X2276Y283D02*
X2283Y283D01*
X1Y282D02*
X8Y282D01*
X2276Y282D02*
X2283Y282D01*
X1Y281D02*
X8Y281D01*
X2276Y281D02*
X2283Y281D01*
X1Y280D02*
X8Y280D01*
X2276Y280D02*
X2283Y280D01*
X1Y279D02*
X8Y279D01*
X2276Y279D02*
X2283Y279D01*
X1Y278D02*
X8Y278D01*
X2276Y278D02*
X2283Y278D01*
X1Y277D02*
X8Y277D01*
X2276Y277D02*
X2283Y277D01*
X1Y276D02*
X8Y276D01*
X2276Y276D02*
X2283Y276D01*
X1Y275D02*
X8Y275D01*
X2276Y275D02*
X2283Y275D01*
X1Y274D02*
X8Y274D01*
X2276Y274D02*
X2283Y274D01*
X1Y273D02*
X8Y273D01*
X2276Y273D02*
X2283Y273D01*
X1Y272D02*
X8Y272D01*
X2276Y272D02*
X2283Y272D01*
X1Y271D02*
X8Y271D01*
X2276Y271D02*
X2283Y271D01*
X1Y270D02*
X8Y270D01*
X2276Y270D02*
X2283Y270D01*
X1Y269D02*
X8Y269D01*
X2276Y269D02*
X2283Y269D01*
X1Y268D02*
X8Y268D01*
X2276Y268D02*
X2283Y268D01*
X1Y267D02*
X8Y267D01*
X2276Y267D02*
X2283Y267D01*
X1Y266D02*
X8Y266D01*
X2276Y266D02*
X2283Y266D01*
X1Y265D02*
X8Y265D01*
X2276Y265D02*
X2283Y265D01*
X1Y264D02*
X8Y264D01*
X2276Y264D02*
X2283Y264D01*
X1Y263D02*
X8Y263D01*
X2276Y263D02*
X2283Y263D01*
X1Y262D02*
X8Y262D01*
X2276Y262D02*
X2283Y262D01*
X1Y261D02*
X8Y261D01*
X2276Y261D02*
X2283Y261D01*
X1Y260D02*
X8Y260D01*
X2276Y260D02*
X2283Y260D01*
X1Y259D02*
X8Y259D01*
X2276Y259D02*
X2283Y259D01*
X1Y258D02*
X8Y258D01*
X2276Y258D02*
X2283Y258D01*
X1Y257D02*
X8Y257D01*
X2276Y257D02*
X2283Y257D01*
X1Y256D02*
X8Y256D01*
X2276Y256D02*
X2283Y256D01*
X1Y255D02*
X8Y255D01*
X2276Y255D02*
X2283Y255D01*
X1Y254D02*
X8Y254D01*
X2276Y254D02*
X2283Y254D01*
X1Y253D02*
X8Y253D01*
X2276Y253D02*
X2283Y253D01*
X1Y252D02*
X8Y252D01*
X2276Y252D02*
X2283Y252D01*
X1Y251D02*
X8Y251D01*
X2276Y251D02*
X2283Y251D01*
X1Y250D02*
X8Y250D01*
X2276Y250D02*
X2283Y250D01*
X1Y249D02*
X8Y249D01*
X2276Y249D02*
X2283Y249D01*
X1Y248D02*
X8Y248D01*
X2276Y248D02*
X2283Y248D01*
X1Y247D02*
X8Y247D01*
X2276Y247D02*
X2283Y247D01*
X1Y246D02*
X8Y246D01*
X2276Y246D02*
X2283Y246D01*
X1Y245D02*
X8Y245D01*
X2276Y245D02*
X2283Y245D01*
X1Y244D02*
X8Y244D01*
X2276Y244D02*
X2283Y244D01*
X1Y243D02*
X8Y243D01*
X2276Y243D02*
X2283Y243D01*
X1Y242D02*
X8Y242D01*
X2276Y242D02*
X2283Y242D01*
X1Y241D02*
X8Y241D01*
X2276Y241D02*
X2283Y241D01*
X1Y240D02*
X8Y240D01*
X2276Y240D02*
X2283Y240D01*
X1Y239D02*
X8Y239D01*
X2276Y239D02*
X2283Y239D01*
X1Y238D02*
X8Y238D01*
X2276Y238D02*
X2283Y238D01*
X1Y237D02*
X8Y237D01*
X2276Y237D02*
X2283Y237D01*
X1Y236D02*
X8Y236D01*
X2276Y236D02*
X2283Y236D01*
X1Y235D02*
X8Y235D01*
X2276Y235D02*
X2283Y235D01*
X1Y234D02*
X8Y234D01*
X2276Y234D02*
X2283Y234D01*
X1Y233D02*
X8Y233D01*
X2276Y233D02*
X2283Y233D01*
X1Y232D02*
X8Y232D01*
X2276Y232D02*
X2283Y232D01*
X1Y231D02*
X8Y231D01*
X2276Y231D02*
X2283Y231D01*
X1Y230D02*
X8Y230D01*
X2276Y230D02*
X2283Y230D01*
X1Y229D02*
X8Y229D01*
X2276Y229D02*
X2283Y229D01*
X1Y228D02*
X8Y228D01*
X2276Y228D02*
X2283Y228D01*
X1Y227D02*
X8Y227D01*
X2276Y227D02*
X2283Y227D01*
X1Y226D02*
X8Y226D01*
X2276Y226D02*
X2283Y226D01*
X1Y225D02*
X8Y225D01*
X2276Y225D02*
X2283Y225D01*
X1Y224D02*
X8Y224D01*
X2276Y224D02*
X2283Y224D01*
X1Y223D02*
X8Y223D01*
X2276Y223D02*
X2283Y223D01*
X1Y222D02*
X8Y222D01*
X2276Y222D02*
X2283Y222D01*
X1Y221D02*
X8Y221D01*
X2276Y221D02*
X2283Y221D01*
X1Y220D02*
X8Y220D01*
X2276Y220D02*
X2283Y220D01*
X1Y219D02*
X8Y219D01*
X2276Y219D02*
X2283Y219D01*
X1Y218D02*
X8Y218D01*
X2276Y218D02*
X2283Y218D01*
X1Y217D02*
X8Y217D01*
X2276Y217D02*
X2283Y217D01*
X1Y216D02*
X8Y216D01*
X2276Y216D02*
X2283Y216D01*
X1Y215D02*
X8Y215D01*
X2276Y215D02*
X2283Y215D01*
X1Y214D02*
X8Y214D01*
X2276Y214D02*
X2283Y214D01*
X1Y213D02*
X8Y213D01*
X2276Y213D02*
X2283Y213D01*
X1Y212D02*
X8Y212D01*
X2276Y212D02*
X2283Y212D01*
X1Y211D02*
X8Y211D01*
X2276Y211D02*
X2283Y211D01*
X1Y210D02*
X8Y210D01*
X2276Y210D02*
X2283Y210D01*
X1Y209D02*
X8Y209D01*
X2276Y209D02*
X2283Y209D01*
X1Y208D02*
X8Y208D01*
X2276Y208D02*
X2283Y208D01*
X1Y207D02*
X8Y207D01*
X2276Y207D02*
X2283Y207D01*
X1Y206D02*
X8Y206D01*
X2276Y206D02*
X2283Y206D01*
X1Y205D02*
X8Y205D01*
X2276Y205D02*
X2283Y205D01*
X1Y204D02*
X8Y204D01*
X2276Y204D02*
X2283Y204D01*
X1Y203D02*
X8Y203D01*
X2276Y203D02*
X2283Y203D01*
X1Y202D02*
X8Y202D01*
X2189Y202D02*
X2189Y202D01*
X2276Y202D02*
X2283Y202D01*
X1Y201D02*
X8Y201D01*
X2188Y201D02*
X2190Y201D01*
X2276Y201D02*
X2283Y201D01*
X1Y200D02*
X8Y200D01*
X2187Y200D02*
X2191Y200D01*
X2276Y200D02*
X2283Y200D01*
X1Y199D02*
X8Y199D01*
X2186Y199D02*
X2192Y199D01*
X2276Y199D02*
X2283Y199D01*
X1Y198D02*
X8Y198D01*
X2187Y198D02*
X2193Y198D01*
X2276Y198D02*
X2283Y198D01*
X1Y197D02*
X8Y197D01*
X2188Y197D02*
X2194Y197D01*
X2276Y197D02*
X2283Y197D01*
X1Y196D02*
X8Y196D01*
X2189Y196D02*
X2195Y196D01*
X2276Y196D02*
X2283Y196D01*
X1Y195D02*
X8Y195D01*
X2190Y195D02*
X2196Y195D01*
X2276Y195D02*
X2283Y195D01*
X1Y194D02*
X8Y194D01*
X2191Y194D02*
X2197Y194D01*
X2276Y194D02*
X2283Y194D01*
X1Y193D02*
X8Y193D01*
X2192Y193D02*
X2198Y193D01*
X2276Y193D02*
X2283Y193D01*
X1Y192D02*
X8Y192D01*
X2193Y192D02*
X2199Y192D01*
X2276Y192D02*
X2283Y192D01*
X1Y191D02*
X8Y191D01*
X2194Y191D02*
X2200Y191D01*
X2276Y191D02*
X2283Y191D01*
X1Y190D02*
X8Y190D01*
X2195Y190D02*
X2201Y190D01*
X2276Y190D02*
X2283Y190D01*
X1Y189D02*
X8Y189D01*
X2196Y189D02*
X2202Y189D01*
X2276Y189D02*
X2283Y189D01*
X1Y188D02*
X8Y188D01*
X2197Y188D02*
X2203Y188D01*
X2276Y188D02*
X2283Y188D01*
X1Y187D02*
X8Y187D01*
X2198Y187D02*
X2204Y187D01*
X2276Y187D02*
X2283Y187D01*
X1Y186D02*
X8Y186D01*
X2200Y186D02*
X2205Y186D01*
X2276Y186D02*
X2283Y186D01*
X1Y185D02*
X8Y185D01*
X2201Y185D02*
X2206Y185D01*
X2276Y185D02*
X2283Y185D01*
X1Y184D02*
X8Y184D01*
X2202Y184D02*
X2207Y184D01*
X2276Y184D02*
X2283Y184D01*
X1Y183D02*
X8Y183D01*
X2203Y183D02*
X2208Y183D01*
X2276Y183D02*
X2283Y183D01*
X1Y182D02*
X8Y182D01*
X2204Y182D02*
X2209Y182D01*
X2276Y182D02*
X2283Y182D01*
X1Y181D02*
X8Y181D01*
X2205Y181D02*
X2210Y181D01*
X2276Y181D02*
X2283Y181D01*
X1Y180D02*
X8Y180D01*
X2206Y180D02*
X2211Y180D01*
X2276Y180D02*
X2283Y180D01*
X1Y179D02*
X8Y179D01*
X2207Y179D02*
X2212Y179D01*
X2276Y179D02*
X2283Y179D01*
X1Y178D02*
X8Y178D01*
X2208Y178D02*
X2213Y178D01*
X2276Y178D02*
X2283Y178D01*
X1Y177D02*
X8Y177D01*
X2208Y177D02*
X2214Y177D01*
X2276Y177D02*
X2283Y177D01*
X1Y176D02*
X8Y176D01*
X2209Y176D02*
X2215Y176D01*
X2276Y176D02*
X2283Y176D01*
X1Y175D02*
X8Y175D01*
X2210Y175D02*
X2216Y175D01*
X2276Y175D02*
X2283Y175D01*
X1Y174D02*
X8Y174D01*
X2211Y174D02*
X2217Y174D01*
X2276Y174D02*
X2283Y174D01*
X1Y173D02*
X8Y173D01*
X2212Y173D02*
X2218Y173D01*
X2276Y173D02*
X2283Y173D01*
X1Y172D02*
X8Y172D01*
X2213Y172D02*
X2219Y172D01*
X2276Y172D02*
X2283Y172D01*
X1Y171D02*
X8Y171D01*
X2214Y171D02*
X2220Y171D01*
X2276Y171D02*
X2283Y171D01*
X1Y170D02*
X8Y170D01*
X2215Y170D02*
X2221Y170D01*
X2276Y170D02*
X2283Y170D01*
X1Y169D02*
X8Y169D01*
X2216Y169D02*
X2222Y169D01*
X2276Y169D02*
X2283Y169D01*
X1Y168D02*
X8Y168D01*
X2217Y168D02*
X2223Y168D01*
X2276Y168D02*
X2283Y168D01*
X1Y167D02*
X8Y167D01*
X2218Y167D02*
X2223Y167D01*
X2276Y167D02*
X2283Y167D01*
X1Y166D02*
X8Y166D01*
X2219Y166D02*
X2222Y166D01*
X2276Y166D02*
X2283Y166D01*
X1Y165D02*
X8Y165D01*
X2220Y165D02*
X2221Y165D01*
X2276Y165D02*
X2283Y165D01*
X1Y164D02*
X8Y164D01*
X2276Y164D02*
X2283Y164D01*
X1Y163D02*
X8Y163D01*
X2276Y163D02*
X2283Y163D01*
X1Y162D02*
X8Y162D01*
X2276Y162D02*
X2283Y162D01*
X1Y161D02*
X8Y161D01*
X2276Y161D02*
X2283Y161D01*
X1Y160D02*
X8Y160D01*
X2276Y160D02*
X2283Y160D01*
X1Y159D02*
X8Y159D01*
X2276Y159D02*
X2283Y159D01*
X1Y158D02*
X8Y158D01*
X2276Y158D02*
X2283Y158D01*
X1Y157D02*
X8Y157D01*
X2276Y157D02*
X2283Y157D01*
X1Y156D02*
X8Y156D01*
X2276Y156D02*
X2283Y156D01*
X1Y155D02*
X8Y155D01*
X2276Y155D02*
X2283Y155D01*
X1Y154D02*
X8Y154D01*
X2276Y154D02*
X2283Y154D01*
X1Y153D02*
X8Y153D01*
X2276Y153D02*
X2283Y153D01*
X1Y152D02*
X8Y152D01*
X2276Y152D02*
X2283Y152D01*
X1Y151D02*
X8Y151D01*
X2276Y151D02*
X2283Y151D01*
X1Y150D02*
X8Y150D01*
X2276Y150D02*
X2283Y150D01*
X1Y149D02*
X8Y149D01*
X2276Y149D02*
X2283Y149D01*
X1Y148D02*
X8Y148D01*
X2276Y148D02*
X2283Y148D01*
X1Y147D02*
X8Y147D01*
X2276Y147D02*
X2283Y147D01*
X1Y146D02*
X8Y146D01*
X2276Y146D02*
X2283Y146D01*
X1Y145D02*
X8Y145D01*
X2276Y145D02*
X2283Y145D01*
X1Y144D02*
X8Y144D01*
X2276Y144D02*
X2283Y144D01*
X1Y143D02*
X8Y143D01*
X2276Y143D02*
X2283Y143D01*
X1Y142D02*
X8Y142D01*
X2276Y142D02*
X2283Y142D01*
X1Y141D02*
X8Y141D01*
X2276Y141D02*
X2283Y141D01*
X1Y140D02*
X8Y140D01*
X2276Y140D02*
X2283Y140D01*
X1Y139D02*
X8Y139D01*
X2276Y139D02*
X2283Y139D01*
X1Y138D02*
X8Y138D01*
X2276Y138D02*
X2283Y138D01*
X1Y137D02*
X8Y137D01*
X2276Y137D02*
X2283Y137D01*
X1Y136D02*
X8Y136D01*
X2276Y136D02*
X2283Y136D01*
X1Y135D02*
X8Y135D01*
X2276Y135D02*
X2283Y135D01*
X1Y134D02*
X8Y134D01*
X2276Y134D02*
X2283Y134D01*
X1Y133D02*
X8Y133D01*
X2276Y133D02*
X2283Y133D01*
X1Y132D02*
X8Y132D01*
X2276Y132D02*
X2283Y132D01*
X1Y131D02*
X8Y131D01*
X2276Y131D02*
X2283Y131D01*
X1Y130D02*
X8Y130D01*
X2276Y130D02*
X2283Y130D01*
X1Y129D02*
X8Y129D01*
X2276Y129D02*
X2283Y129D01*
X1Y128D02*
X8Y128D01*
X2276Y128D02*
X2283Y128D01*
X1Y127D02*
X8Y127D01*
X2276Y127D02*
X2283Y127D01*
X1Y126D02*
X8Y126D01*
X2276Y126D02*
X2283Y126D01*
X1Y125D02*
X8Y125D01*
X2276Y125D02*
X2283Y125D01*
X1Y124D02*
X8Y124D01*
X2276Y124D02*
X2283Y124D01*
X1Y123D02*
X8Y123D01*
X2276Y123D02*
X2283Y123D01*
X1Y122D02*
X8Y122D01*
X2276Y122D02*
X2283Y122D01*
X1Y121D02*
X8Y121D01*
X2276Y121D02*
X2283Y121D01*
X1Y120D02*
X8Y120D01*
X2276Y120D02*
X2283Y120D01*
X1Y119D02*
X8Y119D01*
X2276Y119D02*
X2283Y119D01*
X1Y118D02*
X8Y118D01*
X2276Y118D02*
X2283Y118D01*
X1Y117D02*
X8Y117D01*
X2276Y117D02*
X2283Y117D01*
X1Y116D02*
X8Y116D01*
X2276Y116D02*
X2283Y116D01*
X1Y115D02*
X8Y115D01*
X2276Y115D02*
X2283Y115D01*
X1Y114D02*
X8Y114D01*
X2276Y114D02*
X2283Y114D01*
X1Y113D02*
X8Y113D01*
X2276Y113D02*
X2283Y113D01*
X1Y112D02*
X8Y112D01*
X2276Y112D02*
X2283Y112D01*
X1Y111D02*
X8Y111D01*
X2276Y111D02*
X2283Y111D01*
X1Y110D02*
X8Y110D01*
X2276Y110D02*
X2283Y110D01*
X1Y109D02*
X8Y109D01*
X2276Y109D02*
X2283Y109D01*
X1Y108D02*
X8Y108D01*
X2276Y108D02*
X2283Y108D01*
X1Y107D02*
X8Y107D01*
X2276Y107D02*
X2283Y107D01*
X1Y106D02*
X8Y106D01*
X2276Y106D02*
X2283Y106D01*
X1Y105D02*
X8Y105D01*
X2276Y105D02*
X2283Y105D01*
X1Y104D02*
X8Y104D01*
X2276Y104D02*
X2283Y104D01*
X1Y103D02*
X8Y103D01*
X2276Y103D02*
X2283Y103D01*
X1Y102D02*
X8Y102D01*
X2276Y102D02*
X2283Y102D01*
X1Y101D02*
X8Y101D01*
X2276Y101D02*
X2283Y101D01*
X1Y100D02*
X8Y100D01*
X2276Y100D02*
X2283Y100D01*
X1Y99D02*
X8Y99D01*
X2276Y99D02*
X2283Y99D01*
X1Y98D02*
X8Y98D01*
X2276Y98D02*
X2283Y98D01*
X1Y97D02*
X8Y97D01*
X2276Y97D02*
X2283Y97D01*
X1Y96D02*
X8Y96D01*
X2276Y96D02*
X2283Y96D01*
X1Y95D02*
X8Y95D01*
X2276Y95D02*
X2283Y95D01*
X1Y94D02*
X8Y94D01*
X2276Y94D02*
X2283Y94D01*
X1Y93D02*
X8Y93D01*
X2276Y93D02*
X2283Y93D01*
X1Y92D02*
X8Y92D01*
X2276Y92D02*
X2283Y92D01*
X1Y91D02*
X8Y91D01*
X2276Y91D02*
X2283Y91D01*
X1Y90D02*
X8Y90D01*
X2276Y90D02*
X2283Y90D01*
X1Y89D02*
X8Y89D01*
X2276Y89D02*
X2283Y89D01*
X1Y88D02*
X8Y88D01*
X2276Y88D02*
X2283Y88D01*
X1Y87D02*
X8Y87D01*
X2276Y87D02*
X2283Y87D01*
X1Y86D02*
X8Y86D01*
X2276Y86D02*
X2283Y86D01*
X1Y85D02*
X8Y85D01*
X2276Y85D02*
X2283Y85D01*
X1Y84D02*
X8Y84D01*
X2276Y84D02*
X2283Y84D01*
X1Y83D02*
X8Y83D01*
X2276Y83D02*
X2283Y83D01*
X1Y82D02*
X8Y82D01*
X2276Y82D02*
X2283Y82D01*
X1Y81D02*
X8Y81D01*
X2276Y81D02*
X2283Y81D01*
X1Y80D02*
X8Y80D01*
X2276Y80D02*
X2283Y80D01*
X1Y79D02*
X8Y79D01*
X2276Y79D02*
X2283Y79D01*
X1Y78D02*
X8Y78D01*
X2276Y78D02*
X2283Y78D01*
X1Y77D02*
X8Y77D01*
X2276Y77D02*
X2283Y77D01*
X1Y76D02*
X8Y76D01*
X2276Y76D02*
X2283Y76D01*
X1Y75D02*
X8Y75D01*
X2276Y75D02*
X2283Y75D01*
X1Y74D02*
X8Y74D01*
X2276Y74D02*
X2283Y74D01*
X1Y73D02*
X8Y73D01*
X2276Y73D02*
X2283Y73D01*
X1Y72D02*
X8Y72D01*
X2276Y72D02*
X2283Y72D01*
X1Y71D02*
X8Y71D01*
X2276Y71D02*
X2283Y71D01*
X1Y70D02*
X8Y70D01*
X2276Y70D02*
X2283Y70D01*
X1Y69D02*
X8Y69D01*
X2276Y69D02*
X2283Y69D01*
X1Y68D02*
X8Y68D01*
X2276Y68D02*
X2283Y68D01*
X1Y67D02*
X8Y67D01*
X2276Y67D02*
X2283Y67D01*
X1Y66D02*
X8Y66D01*
X2276Y66D02*
X2283Y66D01*
X1Y65D02*
X8Y65D01*
X2276Y65D02*
X2283Y65D01*
X1Y64D02*
X8Y64D01*
X2276Y64D02*
X2283Y64D01*
X1Y63D02*
X8Y63D01*
X2276Y63D02*
X2283Y63D01*
X1Y62D02*
X8Y62D01*
X2276Y62D02*
X2283Y62D01*
X1Y61D02*
X8Y61D01*
X2276Y61D02*
X2283Y61D01*
X1Y60D02*
X8Y60D01*
X2276Y60D02*
X2283Y60D01*
X1Y59D02*
X8Y59D01*
X2276Y59D02*
X2283Y59D01*
X1Y58D02*
X8Y58D01*
X2276Y58D02*
X2283Y58D01*
X1Y57D02*
X8Y57D01*
X2276Y57D02*
X2283Y57D01*
X1Y56D02*
X8Y56D01*
X2276Y56D02*
X2283Y56D01*
X1Y55D02*
X8Y55D01*
X2276Y55D02*
X2283Y55D01*
X1Y54D02*
X8Y54D01*
X2276Y54D02*
X2283Y54D01*
X1Y53D02*
X8Y53D01*
X2276Y53D02*
X2283Y53D01*
X1Y52D02*
X8Y52D01*
X2276Y52D02*
X2283Y52D01*
X1Y51D02*
X8Y51D01*
X2276Y51D02*
X2283Y51D01*
X1Y50D02*
X8Y50D01*
X2276Y50D02*
X2283Y50D01*
X1Y49D02*
X8Y49D01*
X2276Y49D02*
X2283Y49D01*
X1Y48D02*
X8Y48D01*
X2276Y48D02*
X2283Y48D01*
X1Y47D02*
X8Y47D01*
X2276Y47D02*
X2283Y47D01*
X1Y46D02*
X8Y46D01*
X2276Y46D02*
X2283Y46D01*
X1Y45D02*
X8Y45D01*
X2276Y45D02*
X2283Y45D01*
X1Y44D02*
X8Y44D01*
X2276Y44D02*
X2283Y44D01*
X1Y43D02*
X8Y43D01*
X2276Y43D02*
X2283Y43D01*
X1Y42D02*
X8Y42D01*
X2276Y42D02*
X2283Y42D01*
X1Y41D02*
X8Y41D01*
X2276Y41D02*
X2283Y41D01*
X1Y40D02*
X8Y40D01*
X2276Y40D02*
X2283Y40D01*
X1Y39D02*
X8Y39D01*
X2276Y39D02*
X2283Y39D01*
X1Y38D02*
X8Y38D01*
X2276Y38D02*
X2283Y38D01*
X1Y37D02*
X8Y37D01*
X2276Y37D02*
X2283Y37D01*
X1Y36D02*
X8Y36D01*
X2276Y36D02*
X2283Y36D01*
X1Y35D02*
X8Y35D01*
X2276Y35D02*
X2283Y35D01*
X1Y34D02*
X8Y34D01*
X2276Y34D02*
X2283Y34D01*
X1Y33D02*
X8Y33D01*
X2276Y33D02*
X2283Y33D01*
X1Y32D02*
X8Y32D01*
X2276Y32D02*
X2283Y32D01*
X1Y31D02*
X8Y31D01*
X2276Y31D02*
X2283Y31D01*
X1Y30D02*
X8Y30D01*
X2276Y30D02*
X2283Y30D01*
X1Y29D02*
X8Y29D01*
X2276Y29D02*
X2283Y29D01*
X1Y28D02*
X8Y28D01*
X2276Y28D02*
X2283Y28D01*
X1Y27D02*
X8Y27D01*
X2276Y27D02*
X2283Y27D01*
X1Y26D02*
X8Y26D01*
X2276Y26D02*
X2283Y26D01*
X1Y25D02*
X8Y25D01*
X2276Y25D02*
X2283Y25D01*
X1Y24D02*
X8Y24D01*
X2276Y24D02*
X2283Y24D01*
X1Y23D02*
X8Y23D01*
X2276Y23D02*
X2283Y23D01*
X1Y22D02*
X8Y22D01*
X2276Y22D02*
X2283Y22D01*
X1Y21D02*
X8Y21D01*
X2276Y21D02*
X2283Y21D01*
X1Y20D02*
X8Y20D01*
X2276Y20D02*
X2283Y20D01*
X1Y19D02*
X8Y19D01*
X2276Y19D02*
X2283Y19D01*
X1Y18D02*
X8Y18D01*
X2276Y18D02*
X2283Y18D01*
X1Y17D02*
X8Y17D01*
X2276Y17D02*
X2283Y17D01*
X1Y16D02*
X8Y16D01*
X2276Y16D02*
X2283Y16D01*
X1Y15D02*
X8Y15D01*
X2276Y15D02*
X2283Y15D01*
X1Y14D02*
X8Y14D01*
X2276Y14D02*
X2283Y14D01*
X1Y13D02*
X8Y13D01*
X2276Y13D02*
X2283Y13D01*
X1Y12D02*
X8Y12D01*
X2276Y12D02*
X2283Y12D01*
X1Y11D02*
X8Y11D01*
X2276Y11D02*
X2283Y11D01*
X1Y10D02*
X8Y10D01*
X2276Y10D02*
X2283Y10D01*
X1Y9D02*
X8Y9D01*
X2276Y9D02*
X2283Y9D01*
X1Y8D02*
X2283Y8D01*
X1Y7D02*
X2283Y7D01*
X1Y6D02*
X2283Y6D01*
X1Y5D02*
X2283Y5D01*
X1Y4D02*
X2283Y4D01*
X1Y3D02*
X2283Y3D01*
X1Y2D02*
X2283Y2D01*
X1Y1D02*
X2283Y1D01*
D02*
G04 End of Silk1*
M02*